<?xml version="1.0" encoding="UTF-8"?>
<svg version="1.1" xmlns="http://www.w3.org/2000/svg" width="190" height="70">
<path d="M0 0 C2.31 0 4.62 0 7 0 C8.32 3.3 9.64 6.6 11 10 C12.32 6.7 13.64 3.4 15 0 C16.98 0 18.96 0 21 0 C21.99862699 7.36487404 22.10331031 14.57313685 22 22 C20.35 22 18.7 22 17 22 C16.67 18.37 16.34 14.74 16 11 C15.01 14.3 14.02 17.6 13 21 C11.35 21 9.7 21 8 21 C7.01 18.03 6.02 15.06 5 12 C4.67 15.3 4.34 18.6 4 22 C2.68 22 1.36 22 0 22 C0 14.74 0 7.48 0 0 Z " fill="#F7F7F7" transform="translate(6,12)"/>
<path d="M0 0 C3.4141955 0.71935789 3.4141955 0.71935789 5.8125 -0.125 C7.625 -0.5 7.625 -0.5 9.8125 0.6875 C12.41090794 3.28590794 12.58565237 5.46122244 12.72265625 9.078125 C12.71105469 9.95984375 12.69945312 10.8415625 12.6875 11.75 C12.67847656 12.64203125 12.66945312 13.5340625 12.66015625 14.453125 C12.64855469 15.12859375 12.63695312 15.8040625 12.625 16.5 C10.975 16.5 9.325 16.5 7.625 16.5 C7.295 12.54 6.965 8.58 6.625 4.5 C5.635 4.5 4.645 4.5 3.625 4.5 C3.625 8.46 3.625 12.42 3.625 16.5 C1.645 16.5 -0.335 16.5 -2.375 16.5 C-2.375 12.54 -2.375 8.58 -2.375 4.5 C-3.365 4.5 -4.355 4.5 -5.375 4.5 C-5.705 8.46 -6.035 12.42 -6.375 16.5 C-8.025 16.5 -9.675 16.5 -11.375 16.5 C-11.375 11.22 -11.375 5.94 -11.375 0.5 C-9.395 0.5 -7.415 0.5 -5.375 0.5 C-3.375 -0.5 -3.375 -0.5 0 0 Z " fill="#F6F6F6" transform="translate(129.375,40.5)"/>
<path d="M0 0 C0.70125 -0.226875 1.4025 -0.45375 2.125 -0.6875 C4 -1 4 -1 6.59765625 0.55859375 C9 3 9 3 9.48828125 6.234375 C9.43027344 7.39453125 9.37226562 8.5546875 9.3125 9.75 C9.24482422 11.50570312 9.24482422 11.50570312 9.17578125 13.296875 C9.11777344 14.18890625 9.05976562 15.0809375 9 16 C7.35 16 5.7 16 4 16 C3.67 12.37 3.34 8.74 3 5 C2.34 5 1.68 5 1 5 C0.67 8.63 0.34 12.26 0 16 C-1.65 16 -3.3 16 -5 16 C-5.33 12.37 -5.66 8.74 -6 5 C-6.99 4.67 -7.98 4.34 -9 4 C-9 7.96 -9 11.92 -9 16 C-10.65 16 -12.3 16 -14 16 C-14 10.72 -14 5.44 -14 0 C-8.30976006 -0.81289142 -5.38028907 -0.8121191 0 0 Z " fill="#F6F6F6" transform="translate(107,41)"/>
<path d="M0 0 C1.66554139 1.17725014 3.28022579 2.42588918 4.8828125 3.6875 C4.5528125 5.0075 4.2228125 6.3275 3.8828125 7.6875 C2.13671875 8.3359375 2.13671875 8.3359375 -0.1171875 8.6875 C-2.15234375 7.7265625 -2.15234375 7.7265625 -4.1796875 6.3125 C-9.42803054 2.70615296 -13.83574141 1.96494102 -20.1171875 2.6875 C-25.01089933 4.19710994 -29.56021526 6.37251639 -34.1171875 8.6875 C-35.1071875 7.6975 -36.0971875 6.7075 -37.1171875 5.6875 C-35.60493272 1.15073565 -32.22106154 -0.15722802 -28.1171875 -2.3125 C-18.76137247 -5.95087251 -8.575464 -5.3161548 0 0 Z " fill="#3DB5E0" transform="translate(162.1171875,11.3125)"/>
<path d="M0 0 C1.35158203 0.15275391 1.35158203 0.15275391 2.73046875 0.30859375 C3.41753906 0.39238281 4.10460937 0.47617187 4.8125 0.5625 C4.75244146 3.48134528 4.66541384 6.39511639 4.5625 9.3125 C4.54123047 10.55 4.54123047 10.55 4.51953125 11.8125 C4.36553885 15.63151159 4.2538661 17.91621393 2.0625 21.125 C-0.54427006 22.79043643 -1.87771977 22.99248707 -4.9375 22.8125 C-5.73671875 22.77640625 -6.5359375 22.7403125 -7.359375 22.703125 C-7.96265625 22.65671875 -8.5659375 22.6103125 -9.1875 22.5625 C-9.5175 21.2425 -9.8475 19.9225 -10.1875 18.5625 C-7.25925348 17.58641783 -5.23136724 17.48023332 -2.1875 17.5625 C-2.1875 17.2325 -2.1875 16.9025 -2.1875 16.5625 C-3.30125 16.459375 -4.415 16.35625 -5.5625 16.25 C-7.356875 15.9096875 -7.356875 15.9096875 -9.1875 15.5625 C-11.64955478 11.86941783 -11.75792512 8.84933122 -11.1875 4.5625 C-8.48907189 -0.44886648 -5.30909967 -0.62054412 0 0 Z M-5.1875 4.5625 C-6.54368499 5.68784105 -6.54368499 5.68784105 -6.25 8.625 C-6.229375 9.594375 -6.20875 10.56375 -6.1875 11.5625 C-4.24146726 12.15320014 -4.24146726 12.15320014 -2.1875 12.5625 C-0.77172523 11.37825674 -0.77172523 11.37825674 -1.125 8 C-1.145625 6.865625 -1.16625 5.73125 -1.1875 4.5625 C-2.5075 4.5625 -3.8275 4.5625 -5.1875 4.5625 Z " fill="#F7F7F7" transform="translate(60.1875,40.4375)"/>
<path d="M0 0 C2.475 0.495 2.475 0.495 5 1 C5.33 2.98 5.66 4.96 6 7 C6.9075 6.896875 7.815 6.79375 8.75 6.6875 C12 7 12 7 14.375 9.125 C16.26615391 12.47088769 16.48321902 14.21478436 16 18 C14.79293121 21.34265205 14.07943151 21.94704566 11 24 C8.4375 24.125 8.4375 24.125 6 24 C5.34 24 4.68 24 4 24 C2.68 24 1.36 24 0 24 C0 16.08 0 8.16 0 0 Z M7 11 C6.01 11.495 6.01 11.495 5 12 C5 14.31 5 16.62 5 19 C5.99 19.33 6.98 19.66 8 20 C10.16940921 19.20104587 10.16940921 19.20104587 10.6875 17.125 C11.18988397 14.81816765 11.18988397 14.81816765 10 12 C9.01 11.67 8.02 11.34 7 11 Z " fill="#F6F6F6" transform="translate(48,10)"/>
<path d="M0 0 C0.08710289 3.10398978 0.14042309 6.20766548 0.1875 9.3125 C0.21263672 10.19357422 0.23777344 11.07464844 0.26367188 11.98242188 C0.27817383 13.25375977 0.27817383 13.25375977 0.29296875 14.55078125 C0.31653442 15.72120972 0.31653442 15.72120972 0.34057617 16.9152832 C-0.08797254 19.53849284 -0.91212314 20.40457063 -3 22 C-5.26171875 22.29296875 -5.26171875 22.29296875 -7.6875 22.1875 C-8.49574219 22.16042969 -9.30398437 22.13335937 -10.13671875 22.10546875 C-10.75160156 22.07066406 -11.36648437 22.03585938 -12 22 C-12.33 20.35 -12.66 18.7 -13 17 C-10.36 17 -7.72 17 -5 17 C-5 16.67 -5 16.34 -5 16 C-6.6396875 15.9071875 -6.6396875 15.9071875 -8.3125 15.8125 C-12 15 -12 15 -14 12.875 C-15.29822018 9.14261699 -14.98586223 6.80261145 -14 3 C-10.24408764 -2.12169868 -5.56143471 -0.82053955 0 0 Z M-8 4 C-9.21690533 5.76529595 -9.21690533 5.76529595 -10 8 C-9.21690533 10.23470405 -9.21690533 10.23470405 -8 12 C-6.68 11.67 -5.36 11.34 -4 11 C-4 9.02 -4 7.04 -4 5 C-5.32 4.67 -6.64 4.34 -8 4 Z " fill="#F8F8F8" transform="translate(183,41)"/>
<path d="M0 0 C10 0 10 0 14 3 C15.19101391 5.55217267 15.04338231 6.80236948 14.4375 9.5625 C12.50871177 12.83305395 10.49190672 13.64599535 7 15 C6.01 15 5.02 15 4 15 C4 17.31 4 19.62 4 22 C2.68 22 1.36 22 0 22 C0 14.74 0 7.48 0 0 Z M4 4 C4 5.98 4 7.96 4 10 C5.65 9.67 7.3 9.34 9 9 C9 7.68 9 6.36 9 5 C7.35 4.67 5.7 4.34 4 4 Z " fill="#F9F9F9" transform="translate(6,35)"/>
<path d="M0 0 C2.9375 0.625 2.9375 0.625 5.3125 2.8125 C7.0314434 5.78759435 7.32184723 7.26196176 6.9375 10.625 C2.4825 11.12 2.4825 11.12 -2.0625 11.625 C0.70014289 12.22232819 3.09782769 12.625 5.9375 12.625 C5.9375 13.945 5.9375 15.265 5.9375 16.625 C2.4466862 18.3704069 -1.35322535 17.48778 -5.0625 16.625 C-7.97350766 14.33147881 -8.02820977 12.86074532 -8.5625 9.1875 C-8.0625 5.625 -8.0625 5.625 -5.9375 2.6875 C-3.0625 0.625 -3.0625 0.625 0 0 Z M-2.0625 4.625 C-2.3925 5.285 -2.7225 5.945 -3.0625 6.625 C-1.4125 6.625 0.2375 6.625 1.9375 6.625 C1.6075 5.965 1.2775 5.305 0.9375 4.625 C-0.0525 4.625 -1.0425 4.625 -2.0625 4.625 Z " fill="#F6F6F6" transform="translate(88.0625,16.375)"/>
<path d="M0 0 C0.78375 0.61875 1.5675 1.2375 2.375 1.875 C1.715 3.525 1.055 5.175 0.375 6.875 C-1.77309269 6.41469442 -3.52884982 5.92850788 -5.45703125 4.85546875 C-9.33346441 3.10234312 -13.45742772 3.39386564 -17.625 3.875 C-19.31707001 4.8313874 -20.99316893 5.81910931 -22.625 6.875 C-24.875 6.25 -24.875 6.25 -26.625 4.875 C-26.955 3.885 -27.285 2.895 -27.625 1.875 C-26.23422699 1.05386823 -24.83711107 0.24347505 -23.4375 -0.5625 C-22.66019531 -1.01496094 -21.88289062 -1.46742187 -21.08203125 -1.93359375 C-14.17974345 -5.28049006 -6.35005637 -4.23839867 0 0 Z " fill="#10AAE0" transform="translate(158.625,19.125)"/>
<path d="M0 0 C2.875 2.0625 2.875 2.0625 5 5 C5.62601538 8.96476406 5.65946039 10.99762021 3.4375 14.375 C0.17160572 16.55226285 -2.07983866 17 -6 17 C-8.9375 15.625 -8.9375 15.625 -11 13 C-11.7087811 9.8537034 -11.71568323 7.14554324 -11 4 C-7.79382821 0.13373402 -4.93752469 -0.92578588 0 0 Z M-4 4 C-4.99 4.495 -4.99 4.495 -6 5 C-6 6.98 -6 8.96 -6 11 C-4.02 11.99 -4.02 11.99 -2 13 C0.33391203 10.21885944 0.33391203 10.21885944 -0.375 7.3125 C-0.58125 6.549375 -0.7875 5.78625 -1 5 C-1.99 4.67 -2.98 4.34 -4 4 Z " fill="#F7F7F7" transform="translate(41,17)"/>
<path d="M0 0 C2.03934532 2.8070299 1.64828011 5.14462161 1.546875 8.55859375 C1.51980469 9.73808594 1.49273437 10.91757812 1.46484375 12.1328125 C1.43003906 13.03644531 1.39523438 13.94007812 1.359375 14.87109375 C-0.41070214 14.95223481 -2.18184598 15.0103488 -3.953125 15.05859375 C-4.93925781 15.09339844 -5.92539063 15.12820312 -6.94140625 15.1640625 C-9.640625 14.87109375 -9.640625 14.87109375 -11.5 13.515625 C-12.640625 11.87109375 -12.640625 11.87109375 -12.578125 9.37109375 C-11.47298973 6.42406637 -10.28568118 5.49225722 -7.640625 3.87109375 C-8.960625 3.21109375 -10.280625 2.55109375 -11.640625 1.87109375 C-11.310625 0.88109375 -10.980625 -0.10890625 -10.640625 -1.12890625 C-6.94567899 -2.71245454 -3.30612526 -2.27492905 0 0 Z M-6.640625 7.87109375 C-6.970625 8.86109375 -7.300625 9.85109375 -7.640625 10.87109375 C-6.320625 10.87109375 -5.000625 10.87109375 -3.640625 10.87109375 C-3.640625 9.88109375 -3.640625 8.89109375 -3.640625 7.87109375 C-4.630625 7.87109375 -5.620625 7.87109375 -6.640625 7.87109375 Z " fill="#F7F7F7" transform="translate(88.640625,42.12890625)"/>
<path d="M0 0 C2.45964276 2.29566658 2.94043955 3.60009413 3.4375 6.9375 C2.87499856 10.87501007 2.03727005 12.41832046 -1 15 C-4.99893269 15.94237143 -7.98105682 15.61136591 -11.5 13.5 C-13.60819617 9.98633972 -13.82934956 6.99894292 -13 3 C-9.13460497 -2.19828987 -5.76560229 -2.522451 0 0 Z M-7 3 C-8.35618499 4.12534105 -8.35618499 4.12534105 -8.0625 7.0625 C-8.041875 8.031875 -8.02125 9.00125 -8 10 C-5.525 10.495 -5.525 10.495 -3 11 C-1.98459888 6.89776415 -1.98459888 6.89776415 -3 3 C-4.32 3 -5.64 3 -7 3 Z " fill="#F7F7F7" transform="translate(45,42)"/>
<path d="M0 0 C2.13149375 3.2638498 2.21648537 5.90761466 2.125 9.75 C2.10695312 10.73484375 2.08890625 11.7196875 2.0703125 12.734375 C2.03550781 13.85585938 2.03550781 13.85585938 2 15 C0.35 15 -1.3 15 -3 15 C-3.33 11.04 -3.66 7.08 -4 3 C-4.99 3.33 -5.98 3.66 -7 4 C-7.33 7.63 -7.66 11.26 -8 15 C-9.65 15 -11.3 15 -13 15 C-13 9.72 -13 4.44 -13 -1 C-4.06966434 -2.51361621 -4.06966434 -2.51361621 0 0 Z " fill="#F7F7F7" transform="translate(165,42)"/>
<path d="M0 0 C1.98 0.495 1.98 0.495 4 1 C4 8.59 4 16.18 4 24 C2.35 24 0.7 24 -1 24 C-1.02887236 20.18751574 -1.04675492 16.3750593 -1.0625 12.5625 C-1.07087891 11.47388672 -1.07925781 10.38527344 -1.08789062 9.26367188 C-1.09111328 8.22919922 -1.09433594 7.19472656 -1.09765625 6.12890625 C-1.10289307 5.17056885 -1.10812988 4.21223145 -1.11352539 3.22485352 C-1 1 -1 1 0 0 Z " fill="#F5F5F5" transform="translate(74,10)"/>
<path d="M0 0 C10.51020394 -0.59243321 17.72874479 1.48858632 26 8 C25.67 9.32 25.34 10.64 25 12 C22.50403012 12.92133116 21.43325548 13.1970855 18.96484375 12.07421875 C18.29582031 11.61660156 17.62679687 11.15898437 16.9375 10.6875 C16.26589844 10.23761719 15.59429687 9.78773437 14.90234375 9.32421875 C14.27457031 8.88722656 13.64679688 8.45023438 13 8 C12.01 7.34 11.02 6.68 10 6 C10 5.34 10 4.68 10 4 C9.67 3.01 9.34 2.02 9 1 C6.03 1 3.06 1 0 1 C0 0.67 0 0.34 0 0 Z " fill="#28B1E0" transform="translate(141,7)"/>
<path d="M0 0 C0 1.32 0 2.64 0 4 C-0.64453125 4.22429688 -1.2890625 4.44859375 -1.953125 4.6796875 C-4.24388852 5.82889456 -4.24388852 5.82889456 -4.609375 8.3828125 C-4.65578125 9.28773437 -4.7021875 10.19265625 -4.75 11.125 C-4.80671875 12.03507812 -4.8634375 12.94515625 -4.921875 13.8828125 C-4.94765625 14.58148438 -4.9734375 15.28015625 -5 16 C-6.65 16 -8.3 16 -10 16 C-10 10.72 -10 5.44 -10 0 C-3 -1 -3 -1 0 0 Z " fill="#F7F7F7" transform="translate(32,41)"/>
<path d="M0 0 C0 1.32 0 2.64 0 4 C-1.65 4.33 -3.3 4.66 -5 5 C-5 8.63 -5 12.26 -5 16 C-6.65 16 -8.3 16 -10 16 C-10 10.72 -10 5.44 -10 0 C-3 -1 -3 -1 0 0 Z " fill="#F6F6F6" transform="translate(77,41)"/>
<path d="M0 0 C1.65 0 3.3 0 5 0 C5 5.28 5 10.56 5 16 C3.35 16.33 1.7 16.66 0 17 C-1.75559942 15.24440058 -1.13221919 12.96417558 -1.13671875 10.62890625 C-1.13285156 9.92636719 -1.12898438 9.22382813 -1.125 8.5 C-1.12886719 7.79746094 -1.13273437 7.09492188 -1.13671875 6.37109375 C-1.12661378 1.12661378 -1.12661378 1.12661378 0 0 Z " fill="#F3F3F3" transform="translate(66,17)"/>
<path d="M0 0 C3.375 1.5 3.375 1.5 6 3 C5.1875 4.9375 5.1875 4.9375 4 7 C1 8 1 8 -1.9375 7.5 C-4.87694189 6.79682443 -4.87694189 6.79682443 -7.1875 7.625 C-7.785625 7.74875 -8.38375 7.8725 -9 8 C-10.75 6.6875 -10.75 6.6875 -12 5 C-12 4.34 -12 3.68 -12 3 C-7.78672212 0.59241264 -4.8641549 -0.60801936 0 0 Z " fill="#3FB4DD" transform="translate(149,24)"/>
<path d="M0 0 C1.65 0 3.3 0 5 0 C5 5.28 5 10.56 5 16 C3.35 16 1.7 16 0 16 C0 10.72 0 5.44 0 0 Z " fill="#FBFBFB" transform="translate(144,41)"/>
<path d="M0 0 C0.88300781 0.19464844 1.76601562 0.38929687 2.67578125 0.58984375 C3.33964844 0.74582031 4.00351563 0.90179687 4.6875 1.0625 C2.7075 2.0525 2.7075 2.0525 0.6875 3.0625 C0.6875 2.4025 0.6875 1.7425 0.6875 1.0625 C-2.6125 1.0625 -5.9125 1.0625 -9.3125 1.0625 C-9.3125 1.7225 -9.3125 2.3825 -9.3125 3.0625 C-10.1375 3.51625 -10.9625 3.97 -11.8125 4.4375 C-13.05 5.241875 -13.05 5.241875 -14.3125 6.0625 C-14.3125 7.3825 -14.3125 8.7025 -14.3125 10.0625 C-16.25 9.25 -16.25 9.25 -18.3125 8.0625 C-18.6425 7.0725 -18.9725 6.0825 -19.3125 5.0625 C-17.92172699 4.24136823 -16.52461107 3.43097505 -15.125 2.625 C-14.34769531 2.17253906 -13.57039062 1.72007813 -12.76953125 1.25390625 C-8.22409288 -0.95016164 -4.89205941 -1.1088668 0 0 Z " fill="#53BFE5" transform="translate(150.3125,15.9375)"/>
<path d="M0 0 C3.14624993 -0.26218749 4.61837017 -0.24754367 7.3125 1.5 C8.1478125 2.2425 8.1478125 2.2425 9 3 C8.34 4.65 7.68 6.3 7 8 C3.64404172 7.40072174 1.62198774 6.15377564 -1 4 C-0.67 2.68 -0.34 1.36 0 0 Z " fill="#3BB4DF" transform="translate(152,18)"/>
<path d="M0 0 C2.125 0.9375 2.125 0.9375 4 2 C3.67 3.65 3.34 5.3 3 7 C1.125 7.625 1.125 7.625 -1 8 C-1.66 7.34 -2.32 6.68 -3 6 C-2.75 3.4375 -2.75 3.4375 -2 1 C-1.34 0.67 -0.68 0.34 0 0 Z " fill="#65BDDC" transform="translate(146,31)"/>
<path d="M0 0 C0.33 0.99 0.66 1.98 1 3 C-3.62 3.33 -8.24 3.66 -13 4 C-13.33 3.34 -13.66 2.68 -14 2 C-9.35150485 -0.3992233 -5.08913926 -0.19957409 0 0 Z " fill="#0AA9E0" transform="translate(150,8)"/>
<path d="M0 0 C1.051875 -0.01417969 2.10375 -0.02835938 3.1875 -0.04296875 C6 0.1875 6 0.1875 9 2.1875 C2.4 2.5175 -4.2 2.8475 -11 3.1875 C-7.66600195 -0.14649805 -4.50775622 0.02762106 0 0 Z " fill="#29ABD9" transform="translate(146,10.8125)"/>
<path d="M0 0 C6.09781001 -0.22084624 11.21642935 -0.01167675 17 2 C16.67 2.99 16.34 3.98 16 5 C14.35 5 12.7 5 11 5 C10.34 3.68 9.68 2.36 9 1 C6.03 1 3.06 1 0 1 C0 0.67 0 0.34 0 0 Z " fill="#4DBDE5" transform="translate(141,7)"/>
<path d="M0 0 C2.31 0.33 4.62 0.66 7 1 C7.33 2.65 7.66 4.3 8 6 C6.68 5.67 5.36 5.34 4 5 C4 4.34 4 3.68 4 3 C2.35 3 0.7 3 -1 3 C-0.67 2.01 -0.34 1.02 0 0 Z " fill="#1AADE0" transform="translate(144,26)"/>
<path d="M0 0 C4.87664009 -0.34833144 7.77050005 0.58314288 12 3 C11.34 4.32 10.68 5.64 10 7 C9.34 6.01 8.68 5.02 8 4 C5.94074861 3.27617533 5.94074861 3.27617533 4 3 C4 2.34 4 1.68 4 1 C2.68 0.67 1.36 0.34 0 0 Z " fill="#64C1E1" transform="translate(143,24)"/>
<path d="M0 0 C1.0209375 0.02513672 1.0209375 0.02513672 2.0625 0.05078125 C3.0834375 0.05658203 3.0834375 0.05658203 4.125 0.0625 C6.0625 0.36328125 6.0625 0.36328125 9.0625 2.36328125 C4.4425 2.69328125 -0.1775 3.02328125 -4.9375 3.36328125 C-1.9375 0.36328125 -1.9375 0.36328125 0 0 Z " fill="#4FB4D7" transform="translate(141.9375,19.63671875)"/>
<path d="M0 0 C2.125 0.9375 2.125 0.9375 4 2 C3.67 2.99 3.34 3.98 3 5 C1.35 4.67 -0.3 4.34 -2 4 C-2 3.01 -2 2.02 -2 1 C-1.34 0.67 -0.68 0.34 0 0 Z " fill="#F2F2F2" transform="translate(67,11)"/>
<path d="M0 0 C1.98 0.495 1.98 0.495 4 1 C3.67 2.32 3.34 3.64 3 5 C1.68 5.33 0.36 5.66 -1 6 C-0.67 4.02 -0.34 2.04 0 0 Z " fill="#5ABADE" transform="translate(163,14)"/>
<path d="M0 0 C0.66 0.33 1.32 0.66 2 1 C2 2.32 2 3.64 2 5 C0.68 5 -0.64 5 -2 5 C-2 3.68 -2 2.36 -2 1 C-1.34 0.67 -0.68 0.34 0 0 Z " fill="#23B1E4" transform="translate(146,31)"/>
<path d="M0 0 C0.99 0.33 1.98 0.66 3 1 C3 2.65 3 4.3 3 6 C1.68 5.67 0.36 5.34 -1 5 C-0.67 3.35 -0.34 1.7 0 0 Z " fill="#25AFE2" transform="translate(161,13)"/>
<path d="M0 0 C5.625 -0.25 5.625 -0.25 9 2 C9 2.66 9 3.32 9 4 C6.03 3.01 3.06 2.02 0 1 C0 0.67 0 0.34 0 0 Z " fill="#55B8DD" transform="translate(151,13)"/>
</svg>
