<?xml version="1.0" encoding="UTF-8"?>
<svg version="1.1" xmlns="http://www.w3.org/2000/svg" width="150" height="128">
<path d="M0 0 C49.5 0 99 0 150 0 C150 42.24 150 84.48 150 128 C100.5 128 51 128 0 128 C0 85.76 0 43.52 0 0 Z " fill="#FDFDFC" transform="translate(0,0)"/>
<path d="M0 0 C10.82612627 8.38454637 18.37842053 18.42440938 20.59765625 32.20703125 C22.01215584 44.42590008 20.34311681 58.15711984 13.15234375 68.44140625 C7.70406883 75.22395258 2.09724831 81.58741676 -5.84765625 85.44140625 C-6.58886719 85.8178125 -7.33007812 86.19421875 -8.09375 86.58203125 C-18.88888437 91.75204501 -32.05169825 92.07828347 -43.53515625 88.94140625 C-57.3864726 84.03573171 -67.04488053 75.03589139 -73.54296875 62.0546875 C-79.08003559 48.18038003 -79.03202682 34.86930906 -73.91796875 20.90234375 C-68.68014889 8.8591813 -57.79587905 -1.49841717 -45.66015625 -6.37109375 C-29.98423882 -11.25375656 -13.66191495 -8.99202402 0 0 Z " fill="#C0A180" transform="translate(102.84765625,18.55859375)"/>
<path d="M0 0 C6.9714084 5.3076206 12.94692983 11.34191361 14.4375 20.234375 C14.69392643 22.66187855 14.88053111 25.06933415 14.98046875 27.5078125 C13.33046875 27.5078125 11.68046875 27.5078125 9.98046875 27.5078125 C9.65046875 26.5178125 9.32046875 25.5278125 8.98046875 24.5078125 C8.46484375 23.9921875 7.94921875 23.4765625 7.41796875 22.9453125 C6.94359375 22.4709375 6.46921875 21.9965625 5.98046875 21.5078125 C5.98046875 20.8478125 5.98046875 20.1878125 5.98046875 19.5078125 C5.32046875 19.5078125 4.66046875 19.5078125 3.98046875 19.5078125 C3.32046875 18.5178125 2.66046875 17.5278125 1.98046875 16.5078125 C1.05234375 16.7553125 1.05234375 16.7553125 0.10546875 17.0078125 C-2.01953125 17.5078125 -2.01953125 17.5078125 -4.01953125 17.5078125 C-7.87667411 12.36495536 -7.87667411 12.36495536 -8.39453125 9.2578125 C-8.60078125 8.6803125 -8.80703125 8.1028125 -9.01953125 7.5078125 C-10.00953125 7.1778125 -10.99953125 6.8478125 -12.01953125 6.5078125 C-13.00953125 6.1778125 -13.99953125 5.8478125 -15.01953125 5.5078125 C-15.89453125 3.3828125 -15.89453125 3.3828125 -16.01953125 1.5078125 C-17.33953125 1.1778125 -18.65953125 0.8478125 -20.01953125 0.5078125 C-20.01953125 -0.1521875 -20.01953125 -0.8121875 -20.01953125 -1.4921875 C-22.47584126 -0.99671207 -22.47584126 -0.99671207 -25.01953125 0.5078125 C-25.76514062 2.22595583 -26.50377181 3.94958352 -27.140625 5.7109375 C-28.61782431 8.73098942 -31.44685239 10.41751093 -34.01953125 12.5078125 C-34.45265625 13.5596875 -34.88578125 14.6115625 -35.33203125 15.6953125 C-37.01953125 18.5078125 -37.01953125 18.5078125 -39.19921875 19.33203125 C-41.47107233 19.83098975 -43.71120813 20.22713589 -46.01953125 20.5078125 C-46.34953125 19.8478125 -46.67953125 19.1878125 -47.01953125 18.5078125 C-49.45391329 18.89793783 -50.73938883 19.22693286 -52.50390625 20.99609375 C-52.9215625 21.59808594 -53.33921875 22.20007813 -53.76953125 22.8203125 C-54.1975 23.41457031 -54.62546875 24.00882813 -55.06640625 24.62109375 C-56.32013507 26.75056004 -56.32013507 26.75056004 -56.01953125 30.5078125 C-55.02953125 30.8378125 -54.03953125 31.1678125 -53.01953125 31.5078125 C-52.93703125 32.6215625 -52.85453125 33.7353125 -52.76953125 34.8828125 C-52.39828125 36.6771875 -52.39828125 36.6771875 -52.01953125 38.5078125 C-51.37886719 38.81847656 -50.73820312 39.12914062 -50.078125 39.44921875 C-48.01953125 40.5078125 -48.01953125 40.5078125 -47.0703125 42.63671875 C-46.70486328 43.84134766 -46.70486328 43.84134766 -46.33203125 45.0703125 C-45.43769438 47.51918629 -45.43769438 47.51918629 -44.01953125 49.5078125 C-41.03894894 50.59062443 -38.16449985 50.49137538 -35.01953125 50.5078125 C-30.65376912 51.34738214 -28.74009395 52.51322808 -26.14453125 56.0078125 C-24.01953125 59.16190055 -24.01953125 59.16190055 -24.01953125 61.5078125 C-20.64855742 63.00602309 -18.81511006 63.5078125 -15.01953125 63.5078125 C-14.52453125 62.0228125 -14.52453125 62.0228125 -14.01953125 60.5078125 C-13.35953125 60.5078125 -12.69953125 60.5078125 -12.01953125 60.5078125 C-12.34953125 56.8778125 -12.67953125 53.2478125 -13.01953125 49.5078125 C-10.70953125 49.5078125 -8.39953125 49.5078125 -6.01953125 49.5078125 C-6.01953125 51.4878125 -6.01953125 53.4678125 -6.01953125 55.5078125 C-6.67953125 55.5078125 -7.33953125 55.5078125 -8.01953125 55.5078125 C-7.35953125 56.1678125 -6.69953125 56.8278125 -6.01953125 57.5078125 C-5.48328125 57.0128125 -4.94703125 56.5178125 -4.39453125 56.0078125 C-1.4259468 54.13291706 0.53359302 54.27279825 3.98046875 54.5078125 C3.98046875 51.8678125 3.98046875 49.2278125 3.98046875 46.5078125 C5.46546875 46.0128125 5.46546875 46.0128125 6.98046875 45.5078125 C7.71370671 43.49272892 7.71370671 43.49272892 7.98046875 41.5078125 C4.51546875 42.0028125 4.51546875 42.0028125 0.98046875 42.5078125 C1.36303067 39.9142677 1.77111956 38.71667256 3.65234375 36.83984375 C10.56725723 31.78363822 10.56725723 31.78363822 14.98046875 31.5078125 C15.64148213 41.75351996 12.49497757 49.62182814 5.98046875 57.5078125 C5.32046875 57.5078125 4.66046875 57.5078125 3.98046875 57.5078125 C3.48546875 58.9928125 3.48546875 58.9928125 2.98046875 60.5078125 C-7.59426895 67.70909872 -17.37085439 70.22505941 -30.01953125 68.5078125 C-39.43577194 66.28504233 -47.18486818 60.58986549 -52.703125 52.7109375 C-58.59921194 42.84330238 -60.20009039 32.75412095 -58.01953125 21.5078125 C-54.29612203 9.8324712 -48.50711796 2.76245758 -38.01953125 -3.4921875 C-25.81954627 -9.76899137 -11.07801241 -7.38534161 0 0 Z " fill="#F9F8F6" transform="translate(96.01953125,28.4921875)"/>
<path d="M0 0 C9.8950262 7.66343417 17.52187285 16.94666948 20.15234375 29.44140625 C20.70250741 34.26784197 20.86466747 37.35066056 18.15234375 41.50390625 C17.49234375 42.14328125 16.83234375 42.78265625 16.15234375 43.44140625 C13.2376849 42.13483504 11.17960538 40.92333077 9.15234375 38.44140625 C8.16015625 35.5859375 8.16015625 35.5859375 7.27734375 32.25390625 C4.41971685 22.53797478 -0.45953045 13.94807956 -9.6015625 8.9296875 C-19.98989795 4.10208554 -30.54106046 2.29750473 -41.72265625 6.06640625 C-51.95181734 10.37737429 -58.30973776 17.10965517 -62.66015625 27.31640625 C-64.34249247 32.20507738 -64.57420935 37.31191953 -64.84765625 42.44140625 C-67.84765625 42.44140625 -67.84765625 42.44140625 -69.41015625 40.94140625 C-69.88453125 40.44640625 -70.35890625 39.95140625 -70.84765625 39.44140625 C-73.09128198 39.21295135 -73.09128198 39.21295135 -74.97265625 41.44140625 C-75.59140625 42.10140625 -76.21015625 42.76140625 -76.84765625 43.44140625 C-77.84765625 42.44140625 -77.84765625 42.44140625 -77.90234375 39.95703125 C-77.04612668 24.39621667 -71.26875158 13.15031427 -59.91015625 2.62890625 C-42.49090183 -11.90999901 -18.8216166 -12.38804583 0 0 Z " fill="#E37025" transform="translate(102.84765625,18.55859375)"/>
<path d="M0 0 C-0.7425 0.70125 -1.485 1.4025 -2.25 2.125 C-4.97817223 4.97718006 -6.91302954 7.6763063 -9 11 C-7.68 10.67 -6.36 10.34 -5 10 C-5 11.32 -5 12.64 -5 14 C-7.31 14 -9.62 14 -12 14 C-11.67 15.98 -11.34 17.96 -11 20 C-9.35 20 -7.7 20 -6 20 C-6 21.32 -6 22.64 -6 24 C-7.65 24 -9.3 24 -11 24 C-10.34 24.94875 -9.68 25.8975 -9 26.875 C-7 30 -7 30 -7 32 C-6.01 32 -5.02 32 -4 32 C-4.99 30.68 -5.98 29.36 -7 28 C-6.34 26.68 -5.68 25.36 -5 24 C-4.34 24 -3.68 24 -3 24 C-2.5359375 25.4540625 -2.5359375 25.4540625 -2.0625 26.9375 C-1.30476658 29.84065792 -1.30476658 29.84065792 0 31 C2.31 31 4.62 31 7 31 C7.33 26.38 7.66 21.76 8 17 C9.98 17 11.96 17 14 17 C12.80100302 20.0831351 11.52299523 23.06279492 10 26 C12.54604597 29.52381687 12.54604597 29.52381687 16 32 C15.319375 31.278125 14.63875 30.55625 13.9375 29.8125 C12 27 12 27 11.875 24.625 C13.49931424 20.83493345 15.96756629 17.79112598 19 15 C19.66 15 20.32 15 21 15 C21 15.99 21 16.98 21 18 C21.99 18.33 22.98 18.66 24 19 C24.33333333 20.33333333 24.66666667 21.66666667 25 23 C25.99 23.33 26.98 23.66 28 24 C27.34 24.7425 26.68 25.485 26 26.25 C23.60788553 28.97242945 23.60788553 28.97242945 24 33 C26.31 33 28.62 33 31 33 C30.505 33.99 30.505 33.99 30 35 C26.37 35 22.74 35 19 35 C19 35.99 19 36.98 19 38 C17.68 38 16.36 38 15 38 C15 37.01 15 36.02 15 35 C12.525 35.495 12.525 35.495 10 36 C10.02320313 36.89203125 10.04640625 37.7840625 10.0703125 38.703125 C10.08835938 39.87359375 10.10640625 41.0440625 10.125 42.25 C10.14820313 43.41015625 10.17140625 44.5703125 10.1953125 45.765625 C10.0103949 48.82786046 9.60823023 50.44202751 8 53 C4.0873016 51.6957672 1.62689759 50.21065261 -1 47 C-1 46.01 -1 45.02 -1 44 C-1.66 44 -2.32 44 -3 44 C-3 43.01 -3 42.02 -3 41 C-8.70985978 40.25983299 -14.24186425 39.89530662 -20 40 C-24 33.375 -24 33.375 -24 30 C-24.639375 29.855625 -25.27875 29.71125 -25.9375 29.5625 C-28 29 -28 29 -29 28 C-29.04092937 25.66702567 -29.04241723 23.33294775 -29 21 C-30.32 20.67 -31.64 20.34 -33 20 C-32.70876501 14.02968261 -29.97185616 11.105466 -26 7 C-24.68 7.33 -23.36 7.66 -22 8 C-22 8.66 -22 9.32 -22 10 C-18.87565267 9.6271355 -15.9373333 9.15337491 -13 8 C-11.44485113 5.08617485 -11.44485113 5.08617485 -11 2 C-7.49890112 -1.50109888 -4.63591413 -1.15897853 0 0 Z " fill="#D3AE84" transform="translate(72,39)"/>
<path d="M0 0 C3.40039427 1.45731183 5.5952617 3.18563694 8 6 C8.87109375 8.734375 8.87109375 8.734375 9.4375 11.75 C11.27986045 19.92609692 14.77687882 25.38401259 21 31 C21.9075 31.86625 22.815 32.7325 23.75 33.625 C33.38678293 41.2812912 47.00097153 39.74593334 58.5625 38.5 C60.2640625 38.2525 60.2640625 38.2525 62 38 C57.81538462 42.92307692 57.81538462 42.92307692 53.6875 43.3125 C52.800625 43.209375 51.91375 43.10625 51 43 C51.495 45.475 51.495 45.475 52 48 C53.4835001 47.57742724 54.96176424 47.13643678 56.4375 46.6875 C57.26121094 46.44386719 58.08492187 46.20023438 58.93359375 45.94921875 C59.61550781 45.63597656 60.29742187 45.32273438 61 45 C61.33 44.01 61.66 43.02 62 42 C63.485 42.99 63.485 42.99 65 44 C65.33 43.01 65.66 42.02 66 41 C67.485 41.99 67.485 41.99 69 43 C69.33 42.01 69.66 41.02 70 40 C72.0625 39.3125 72.0625 39.3125 74 39 C74.68707555 36.50935112 75 34.62113708 75 32 C75.33 32 75.66 32 76 32 C76.99 31.67 77.98 31.34 79 31 C80.485 31.495 80.485 31.495 82 32 C81.67 30.35 81.34 28.7 81 27 C81.99 26.67 82.98 26.34 84 26 C84.495 24.515 84.495 24.515 85 23 C85.66 23 86.32 23 87 23 C87.66 19.7 88.32 16.4 89 13 C87.35 13 85.7 13 84 13 C84 13.99 84 14.98 84 16 C83.34 16 82.68 16 82 16 C81.63694268 10.55414013 81.63694268 10.55414013 83.1875 8.1875 C85 7 85 7 87.5625 6.5625 C90.17317795 6.26012621 90.17317795 6.26012621 91.3125 3.9375 C91.539375 3.298125 91.76625 2.65875 92 2 C92.66 2 93.32 2 94 2 C92.3454039 18.52419 92.3454039 18.52419 88 26 C87.566875 26.74636719 87.13375 27.49273437 86.6875 28.26171875 C81.21921781 37.01394214 75.10955526 42.78216213 65.9375 47.4375 C65.26477051 47.77982666 64.59204102 48.12215332 63.89892578 48.47485352 C53.44941284 53.49261303 40.37778367 53.52264668 29.3125 50.5 C16.38125225 45.92018309 6.22836371 37.47072946 0.08837891 25.17431641 C-2.78922819 18.70012943 -5.16008449 12.0894052 -4 5 C-2 2 -2 2 0 0 Z " fill="#332373" transform="translate(30,57)"/>
<path d="M0 0 C0.495 0.495 0.495 0.495 1 1 C2.55587743 1.29643736 4.12235187 1.53780894 5.69140625 1.75390625 C6.63564453 1.88603516 7.57988281 2.01816406 8.55273438 2.15429688 C10.04256836 2.35635742 10.04256836 2.35635742 11.5625 2.5625 C12.55958984 2.70107422 13.55667969 2.83964844 14.58398438 2.98242188 C17.05549716 3.32535906 19.52748545 3.66437454 22 4 C21.25 10.75 21.25 10.75 19 13 C13.2879625 13.87965378 8.95855857 12.97513514 4 10 C2.88625 9.443125 1.7725 8.88625 0.625 8.3125 C-0.24125 7.879375 -1.1075 7.44625 -2 7 C-1.9175 8.2375 -1.835 9.475 -1.75 10.75 C-1.77630903 13.71765842 -1.91953503 14.86006093 -3.4375 17.5 C-7.29060933 19.75547863 -10.6378233 19.61910175 -15 19 C-16.34663289 18.53701227 -17.68051567 18.03548005 -19 17.5 C-28.27413791 14.07720745 -39.71232906 15.02178116 -48.8515625 18.328125 C-53.29588287 19.71798519 -57.59302382 19.46899206 -62 18 C-63.70533217 14.67908998 -64 12.81507216 -64 9 C-68.13036094 9.26733901 -68.13036094 9.26733901 -71.35546875 11.51171875 C-74.27253431 14.15162843 -77.70356423 13.5210419 -81.45703125 13.421875 C-84 13 -84 13 -86.1875 10.75 C-87 8 -87 8 -87 4 C-86.25234375 3.95101562 -85.5046875 3.90203125 -84.734375 3.8515625 C-83.74953125 3.77679688 -82.7646875 3.70203125 -81.75 3.625 C-80.28820312 3.52058594 -80.28820312 3.52058594 -78.796875 3.4140625 C-76.05980337 3.16482044 -76.05980337 3.16482044 -74.07421875 1.99609375 C-69.22662814 -0.33184524 -63.18944951 0.16062033 -58 1 C-55.22848895 3.14137945 -54.50858248 4.75074543 -53 8 C-55.64 8 -58.28 8 -61 8 C-61 8.66 -61 9.32 -61 10 C-56.10220696 10.28810547 -52.06616879 9.85674491 -47.3125 8.625 C-40.45734579 6.90118929 -33.64871304 6.31445686 -26.59887695 5.91064453 C-21.13394815 5.51295101 -16.90492045 4.40130487 -11.99902344 1.93530273 C-7.98741346 0.05835136 -4.41340057 -0.19615114 0 0 Z " fill="#F5E10F" transform="translate(107,102)"/>
<path d="M0 0 C0.99 0.33 1.98 0.66 3 1 C2.01 2.98 1.02 4.96 0 7 C4.46236469 8.80619523 7.31034294 9.11658501 12 8 C12.33 9.65 12.66 11.3 13 13 C13.99 13 14.98 13 16 13 C16.12375 13.804375 16.2475 14.60875 16.375 15.4375 C16.58125 16.283125 16.7875 17.12875 17 18 C17.66 18.33 18.32 18.66 19 19 C18.67 19.66 18.34 20.32 18 21 C17.34 20.67 16.68 20.34 16 20 C16 20.99 16 21.98 16 23 C16.99 23.33 17.98 23.66 19 24 C19.25 26.25 19.25 26.25 19 29 C18.319375 29.66 17.63875 30.32 16.9375 31 C16.298125 31.66 15.65875 32.32 15 33 C15.17080295 36.41605892 16.35215531 39.03387957 18 42 C14.63279613 40.60667426 13.0140476 39.0210714 11 36 C12.49836105 32.88801935 14.19933758 29.9465385 16 27 C14.02 27 12.04 27 10 27 C10.05220703 28.24716797 10.05220703 28.24716797 10.10546875 29.51953125 C10.13253906 30.60621094 10.15960938 31.69289063 10.1875 32.8125 C10.23970703 34.43091797 10.23970703 34.43091797 10.29296875 36.08203125 C10 39 10 39 8.64453125 40.86328125 C6.29402559 42.48797756 4.79270468 42.4189057 2 42 C0.1875 40.8125 0.1875 40.8125 -1 39 C-1.1875 36.3125 -1.1875 36.3125 -1 34 C-1.99 34.66 -2.98 35.32 -4 36 C-3.34 37.98 -2.68 39.96 -2 42 C-2.99 42 -3.98 42 -5 42 C-9 36.74285714 -9 36.74285714 -9 34 C-7.35 34 -5.7 34 -4 34 C-4 32.68 -4 31.36 -4 30 C-5.65 30 -7.3 30 -9 30 C-9.33 28.02 -9.66 26.04 -10 24 C-7.69 24 -5.38 24 -3 24 C-3 22.68 -3 21.36 -3 20 C-4.32 20.33 -5.64 20.66 -7 21 C-5.52307692 16.32307692 -5.52307692 16.32307692 -2.875 14.6875 C-2.25625 14.460625 -1.6375 14.23375 -1 14 C-1 12.68 -1 11.36 -1 10 C-2.32 9.67 -3.64 9.34 -5 9 C-4.54625 8.62875 -4.0925 8.2575 -3.625 7.875 C-1.52970606 5.45735315 -0.87986715 3.04569398 0 0 Z " fill="#B08152" transform="translate(70,29)"/>
<path d="M0 0 C0.66101338 10.24570746 -2.48549118 18.11401564 -9 26 C-9.66 26 -10.32 26 -11 26 C-11.495 27.485 -11.495 27.485 -12 29 C-22.5747377 36.20128622 -32.35132314 38.71724691 -45 37 C-52.07040899 35.33097998 -57.48658632 31.62017906 -63 27 C-62.34 26.67 -61.68 26.34 -61 26 C-61.33 25.34 -61.66 24.68 -62 24 C-62.039992 22.00039988 -62.04346799 19.99952758 -62 18 C-60 20 -60 20 -59.5 22.5625 C-59.335 23.366875 -59.17 24.17125 -59 25 C-58.34 25.33 -57.68 25.66 -57 26 C-57 26.66 -57 27.32 -57 28 C-56.236875 27.67 -55.47375 27.34 -54.6875 27 C-52 26 -52 26 -49 26 C-49 25.34 -49 24.68 -49 24 C-47 22 -47 22 -44 21 C-43.16094435 22.12073862 -42.32892169 23.24674547 -41.5 24.375 C-41.0359375 25.00148438 -40.571875 25.62796875 -40.09375 26.2734375 C-39 28 -39 28 -39 30 C-35.62902617 31.49821059 -33.79557881 32 -30 32 C-29.505 30.515 -29.505 30.515 -29 29 C-28.34 29 -27.68 29 -27 29 C-27.495 23.555 -27.495 23.555 -28 18 C-25.69 18 -23.38 18 -21 18 C-21 19.98 -21 21.96 -21 24 C-21.66 24 -22.32 24 -23 24 C-22.34 24.66 -21.68 25.32 -21 26 C-20.46375 25.505 -19.9275 25.01 -19.375 24.5 C-16.40641555 22.62510456 -14.44687573 22.76498575 -11 23 C-11 20.36 -11 17.72 -11 15 C-10.01 14.67 -9.02 14.34 -8 14 C-7.26676204 11.98491642 -7.26676204 11.98491642 -7 10 C-9.31 10.33 -11.62 10.66 -14 11 C-13.61932203 8.38070828 -13.21295682 7.20808367 -11.29296875 5.33203125 C-10.59816406 4.83058594 -9.90335938 4.32914062 -9.1875 3.8125 C-8.50042969 3.30332031 -7.81335938 2.79414062 -7.10546875 2.26953125 C-4.82897978 0.8968802 -2.69465538 0 0 0 Z " fill="#F0F0F3" transform="translate(111,60)"/>
<path d="M0 0 C-0.7425 0.70125 -1.485 1.4025 -2.25 2.125 C-4.97817223 4.97718006 -6.91302954 7.6763063 -9 11 C-7.68 10.67 -6.36 10.34 -5 10 C-5 11.32 -5 12.64 -5 14 C-7.31 14 -9.62 14 -12 14 C-11.67 15.98 -11.34 17.96 -11 20 C-9.35 20 -7.7 20 -6 20 C-6 21.32 -6 22.64 -6 24 C-7.65 24 -9.3 24 -11 24 C-11.33 24.66 -11.66 25.32 -12 26 C-12.66 25.01 -13.32 24.02 -14 23 C-17.34974997 27.57799162 -20 32.10785106 -20 38 C-16.7 38 -13.4 38 -10 38 C-12 40 -12 40 -13.9453125 40.1953125 C-15.96354167 40.13020833 -17.98177083 40.06510417 -20 40 C-24 33.375 -24 33.375 -24 30 C-24.639375 29.855625 -25.27875 29.71125 -25.9375 29.5625 C-28 29 -28 29 -29 28 C-29.04092937 25.66702567 -29.04241723 23.33294775 -29 21 C-30.32 20.67 -31.64 20.34 -33 20 C-32.70876501 14.02968261 -29.97185616 11.105466 -26 7 C-24.68 7.33 -23.36 7.66 -22 8 C-22 8.66 -22 9.32 -22 10 C-18.87565267 9.6271355 -15.9373333 9.15337491 -13 8 C-11.44485113 5.08617485 -11.44485113 5.08617485 -11 2 C-7.49890112 -1.50109888 -4.63591413 -1.15897853 0 0 Z " fill="#C0A47E" transform="translate(72,39)"/>
<path d="M0 0 C0.66 0 1.32 0 2 0 C0.3454039 16.52419 0.3454039 16.52419 -4 24 C-4.433125 24.74636719 -4.86625 25.49273437 -5.3125 26.26171875 C-10.78078219 35.01394214 -16.89044474 40.78216213 -26.0625 45.4375 C-26.73522949 45.77982666 -27.40795898 46.12215332 -28.10107422 46.47485352 C-33.92489392 49.2713979 -39.47172368 50.16197348 -45.9375 50.0625 C-46.70964844 50.05347656 -47.48179688 50.04445312 -48.27734375 50.03515625 C-48.84582031 50.02355469 -49.41429688 50.01195312 -50 50 C-50.33 49.34 -50.66 48.68 -51 48 C-46.545 47.505 -46.545 47.505 -42 47 C-42.33 45.02 -42.66 43.04 -43 41 C-45.475 41.495 -45.475 41.495 -48 42 C-48.33 43.32 -48.66 44.64 -49 46 C-49.33 44.68 -49.66 43.36 -50 42 C-51.98 42 -53.96 42 -56 42 C-56 41.34 -56 40.68 -56 40 C-56.825 39.9175 -57.65 39.835 -58.5 39.75 C-62.76753921 38.83552731 -66.19236894 37.07776822 -70 35 C-70 34.34 -70 33.68 -70 33 C-70.66 33 -71.32 33 -72 33 C-72 32.34 -72 31.68 -72 31 C-68.94536608 31.66798373 -66.27524386 32.6939656 -63.4375 34 C-58.07439757 36.45997279 -53.76093855 37.16043078 -47.875 37.125 C-47.11324463 37.12306641 -46.35148926 37.12113281 -45.56665039 37.11914062 C-40.31294703 37.07880079 -35.20464051 36.75703862 -30 36 C-34.18461538 40.92307692 -34.18461538 40.92307692 -38.3125 41.3125 C-39.199375 41.209375 -40.08625 41.10625 -41 41 C-40.67 42.65 -40.34 44.3 -40 46 C-38.5164999 45.57742724 -37.03823576 45.13643678 -35.5625 44.6875 C-34.73878906 44.44386719 -33.91507813 44.20023438 -33.06640625 43.94921875 C-32.38449219 43.63597656 -31.70257813 43.32273438 -31 43 C-30.67 42.01 -30.34 41.02 -30 40 C-29.01 40.66 -28.02 41.32 -27 42 C-26.67 41.01 -26.34 40.02 -26 39 C-25.01 39.66 -24.02 40.32 -23 41 C-22.67 40.01 -22.34 39.02 -22 38 C-19.9375 37.3125 -19.9375 37.3125 -18 37 C-17.31292445 34.50935112 -17 32.62113708 -17 30 C-16.67 30 -16.34 30 -16 30 C-15.01 29.67 -14.02 29.34 -13 29 C-12.01 29.33 -11.02 29.66 -10 30 C-10.33 28.35 -10.66 26.7 -11 25 C-10.01 24.67 -9.02 24.34 -8 24 C-7.505 22.515 -7.505 22.515 -7 21 C-6.34 21 -5.68 21 -5 21 C-4.34 17.7 -3.68 14.4 -3 11 C-4.65 11 -6.3 11 -8 11 C-8 11.99 -8 12.98 -8 14 C-8.66 14 -9.32 14 -10 14 C-10.36305732 8.55414013 -10.36305732 8.55414013 -8.8125 6.1875 C-7 5 -7 5 -4.4375 4.5625 C-1.82682205 4.26012621 -1.82682205 4.26012621 -0.6875 1.9375 C-0.460625 1.298125 -0.23375 0.65875 0 0 Z " fill="#352379" transform="translate(122,59)"/>
<path d="M0 0 C9.1197598 0.47998736 15.94808572 6.47162002 21.875 12.875 C29.12789981 20.98308875 33.52552205 29.81945992 33.3359375 40.91015625 C32.83024016 44.0560641 31.24086615 45.82916092 29 48 C25.4050635 46.38847674 22.76116406 44.80104179 21.18457031 41.07055664 C20.98444336 40.35762451 20.78431641 39.64469238 20.578125 38.91015625 C20.35769531 38.12576172 20.13726562 37.34136719 19.91015625 36.53320312 C19.69230469 35.71787109 19.47445312 34.90253906 19.25 34.0625 C19.01667969 33.25103516 18.78335938 32.43957031 18.54296875 31.60351562 C16.7272233 24.97658837 16.7272233 24.97658837 18 21 C17.34 20.67 16.68 20.34 16 20 C17.32 19.34 18.64 18.68 20 18 C15.80196415 12.28737867 11.36380479 9.06876809 5 6 C5 5.01 5 4.02 5 3 C2.525 2.01 2.525 2.01 0 1 C0 0.67 0 0.34 0 0 Z " fill="#E36814" transform="translate(90,14)"/>
<path d="M0 0 C0.33 0.33 0.66 0.66 1 1 C2.55587743 1.29643736 4.12235187 1.53780894 5.69140625 1.75390625 C6.63564453 1.88603516 7.57988281 2.01816406 8.55273438 2.15429688 C10.04256836 2.35635742 10.04256836 2.35635742 11.5625 2.5625 C13.05813477 2.77036133 13.05813477 2.77036133 14.58398438 2.98242188 C17.05549716 3.32535906 19.52748545 3.66437454 22 4 C21.25 10.75 21.25 10.75 19 13 C13.2879625 13.87965378 8.95855857 12.97513514 4 10 C2.88625 9.443125 1.7725 8.88625 0.625 8.3125 C-0.24125 7.879375 -1.1075 7.44625 -2 7 C-1.95875 8.258125 -1.9175 9.51625 -1.875 10.8125 C-1.7609626 14.29064073 -1.94074319 14.91111478 -4 18 C-4.66 18 -5.32 18 -6 18 C-6 16.35 -6 14.7 -6 13 C-6.59167969 13.01160156 -7.18335937 13.02320312 -7.79296875 13.03515625 C-18.63941769 13.15901456 -18.63941769 13.15901456 -21.6875 10.5625 C-22.120625 10.046875 -22.55375 9.53125 -23 9 C-23.66 8.34 -24.32 7.68 -25 7 C-23.16424128 6.30726086 -21.32773984 5.61644783 -19.48828125 4.93359375 C-17.73005339 4.27391328 -15.97794595 3.59780948 -14.23046875 2.91015625 C-4.96160085 -0.65284222 -4.96160085 -0.65284222 0 0 Z " fill="#E5D32B" transform="translate(107,102)"/>
<path d="M0 0 C2.475 2.475 2.475 2.475 5 5 C4.0409375 5.556875 4.0409375 5.556875 3.0625 6.125 C0.36141928 8.58052793 0.31592995 10.44578805 0 14 C0.66 14 1.32 14 2 14 C2 13.01 2 12.02 2 11 C3.65 11 5.3 11 7 11 C6.34 14.3 5.68 17.6 5 21 C4.34 21 3.68 21 3 21 C2.814375 21.9590625 2.814375 21.9590625 2.625 22.9375 C2.41875 23.618125 2.2125 24.29875 2 25 C1.01 25.495 1.01 25.495 0 26 C0 27.32 0 28.64 0 30 C-1.65 30 -3.3 30 -5 30 C-5 30.99 -5 31.98 -5 33 C-5.33 33 -5.66 33 -6 33 C-6.99 33.495 -6.99 33.495 -8 34 C-8 34.99 -8 35.98 -8 37 C-8.639375 37.28875 -9.27875 37.5775 -9.9375 37.875 C-12.15206079 38.82823451 -12.15206079 38.82823451 -13 41 C-14.485 40.505 -14.485 40.505 -16 40 C-16.33 40.66 -16.66 41.32 -17 42 C-17.99 42 -18.98 42 -20 42 C-20.33 42.66 -20.66 43.32 -21 44 C-24.17045938 45.24061454 -26.58238295 46 -30 46 C-30.33 44.35 -30.66 42.7 -31 41 C-29.88625 40.71125 -28.7725 40.4225 -27.625 40.125 C-23.99708908 39.30758671 -23.99708908 39.30758671 -22 37 C-22.66 36.34 -23.32 35.68 -24 35 C-22.93072266 34.50693359 -22.93072266 34.50693359 -21.83984375 34.00390625 C-11.95543609 29.09496086 -6.5644815 22.92789579 -2.77734375 12.57421875 C-1.52885331 8.4397705 -0.68890405 4.26032767 0 0 Z " fill="#2D1C70" transform="translate(112,59)"/>
<path d="M0 0 C2.77151105 2.14137945 3.49141752 3.75074543 5 7 C2.36 7 -0.28 7 -3 7 C-3 7.66 -3 8.32 -3 9 C0.96 9 4.92 9 9 9 C5.91111478 11.05925681 5.29064073 11.2390374 1.8125 11.125 C-0.0746875 11.063125 -0.0746875 11.063125 -2 11 C-1.67 12.32 -1.34 13.64 -1 15 C1.64 15.66 4.28 16.32 7 17 C7 17.33 7 17.66 7 18 C5.741875 18.020625 4.48375 18.04125 3.1875 18.0625 C2.47980469 18.07410156 1.77210937 18.08570312 1.04296875 18.09765625 C-1 18 -1 18 -4 17 C-5.70533217 13.67908998 -6 11.81507216 -6 8 C-10.13036094 8.26733901 -10.13036094 8.26733901 -13.35546875 10.51171875 C-16.27253431 13.15162843 -19.70356423 12.5210419 -23.45703125 12.421875 C-26 12 -26 12 -28.1875 9.75 C-29 7 -29 7 -29 3 C-28.25234375 2.95101562 -27.5046875 2.90203125 -26.734375 2.8515625 C-25.74953125 2.77679688 -24.7646875 2.70203125 -23.75 2.625 C-22.28820312 2.52058594 -22.28820312 2.52058594 -20.796875 2.4140625 C-18.05980337 2.16482044 -18.05980337 2.16482044 -16.07421875 0.99609375 C-11.22662814 -1.33184524 -5.18944951 -0.83937967 0 0 Z " fill="#EBE553" transform="translate(49,103)"/>
<path d="M0 0 C2.8125 -0.3125 2.8125 -0.3125 6 0 C8.25057517 2.79381746 9.34967443 5.48824193 10 9 C10 6.69 10 4.38 10 2 C12.66821352 2.07847687 14.46046686 2.55015907 16.52734375 4.2734375 C21.55154514 9.7195184 24.73795348 16.20032544 25.25 23.625 C25.1675 24.40875 25.085 25.1925 25 26 C23.35 26 21.7 26 20 26 C19.67 25.01 19.34 24.02 19 23 C18.484375 22.484375 17.96875 21.96875 17.4375 21.4375 C16.963125 20.963125 16.48875 20.48875 16 20 C16 19.34 16 18.68 16 18 C15.34 18 14.68 18 14 18 C13.34 17.01 12.68 16.02 12 15 C11.38125 15.165 10.7625 15.33 10.125 15.5 C8 16 8 16 6 16 C3.60268669 12.80358226 1.61520275 9.99881788 1 6 C-0.32 5.67 -1.64 5.34 -3 5 C-3 4.34 -3 3.68 -3 3 C-2.34 3 -1.68 3 -1 3 C-0.67 2.01 -0.34 1.02 0 0 Z " fill="#F8F7F3" transform="translate(86,30)"/>
<path d="M0 0 C1.9375 0.8125 1.9375 0.8125 4 2 C4.33 2.99 4.66 3.98 5 5 C4.01 5 3.02 5 2 5 C2 5.66 2 6.32 2 7 C3.32 6.67 4.64 6.34 6 6 C4.92200605 8.16100182 3.83833 10.31880719 2.74609375 12.47265625 C2.09833984 13.75462891 2.09833984 13.75462891 1.4375 15.0625 C0.78587891 16.34833984 0.78587891 16.34833984 0.12109375 17.66015625 C-1.66512071 21.38817876 -2.22601301 24.60158651 -2.5625 28.6875 C-2.64628906 29.68136719 -2.73007812 30.67523438 -2.81640625 31.69921875 C-2.87699219 32.45847656 -2.93757813 33.21773437 -3 34 C-6 34 -6 34 -7.5625 32.5 C-8.036875 32.005 -8.51125 31.51 -9 31 C-11.24362573 30.7715451 -11.24362573 30.7715451 -13.125 33 C-13.74375 33.66 -14.3625 34.32 -15 35 C-16 34 -16 34 -16.0625 30.4375 C-16.041875 29.303125 -16.02125 28.16875 -16 27 C-15.34 28.32 -14.68 29.64 -14 31 C-13.54625 30.34 -13.0925 29.68 -12.625 29 C-12.08875 28.34 -11.5525 27.68 -11 27 C-10.34 27 -9.68 27 -9 27 C-9 27.66 -9 28.32 -9 29 C-8.34 29 -7.68 29 -7 29 C-5.375 30.5 -5.375 30.5 -4 32 C-4.33 30.02 -4.66 28.04 -5 26 C-5.78375 25.87625 -6.5675 25.7525 -7.375 25.625 C-10 25 -10 25 -12 23 C-11.72065282 16.01632042 -8.79106638 10.68659957 -5 5 C-4.34 5 -3.68 5 -3 5 C-2.690625 4.360625 -2.38125 3.72125 -2.0625 3.0625 C-1 1 -1 1 0 0 Z " fill="#E16E22" transform="translate(41,27)"/>
<path d="M0 0 C0 0.66 0 1.32 0 2 C-0.99 2.33 -1.98 2.66 -3 3 C-3.45375 3.474375 -3.9075 3.94875 -4.375 4.4375 C-6.38576214 6.37092514 -8.39052205 7.0831564 -11 8 C-11 8.66 -11 9.32 -11 10 C-10.34 10 -9.68 10 -9 10 C-8.67 10.66 -8.34 11.32 -8 12 C-6.68 12 -5.36 12 -4 12 C-4.125 13.8125 -4.125 13.8125 -5 16 C-10.03571429 19 -10.03571429 19 -13 19 C-13 18.34 -13 17.68 -13 17 C-12.01 17 -11.02 17 -10 17 C-10.99 15.68 -11.98 14.36 -13 13 C-16.12197478 14.3089572 -16.12197478 14.3089572 -18 17 C-18.66 17 -19.32 17 -20 17 C-20.37125 17.9590625 -20.37125 17.9590625 -20.75 18.9375 C-21.46523391 20.68982308 -22.21465871 22.43090161 -23.05859375 24.125 C-25.35093967 28.82073974 -26.61368533 31.75552267 -25 37 C-24.195625 36.979375 -23.39125 36.95875 -22.5625 36.9375 C-20 37 -20 37 -19 38 C-18.95919217 39.99958364 -18.95745644 42.00045254 -19 44 C-19.99 43.67 -20.98 43.34 -22 43 C-22 42.34 -22 41.68 -22 41 C-22.66 41 -23.32 41 -24 41 C-24 40.34 -24 39.68 -24 39 C-24.66 39 -25.32 39 -26 39 C-26.433125 39.928125 -26.433125 39.928125 -26.875 40.875 C-28 43 -28 43 -30 45 C-30.94034424 33.40242104 -28.31917262 23.90883418 -21.1875 14.625 C-8.53628049 0 -8.53628049 0 0 0 Z " fill="#E3752D" transform="translate(56,15)"/>
<path d="M0 0 C0.99 0.66 1.98 1.32 3 2 C3 2.66 3 3.32 3 4 C3.99 4.33 4.98 4.66 6 5 C6.28875 5.825 6.5775 6.65 6.875 7.5 C7.24625 8.325 7.6175 9.15 8 10 C10.38901957 10.76129575 10.38901957 10.76129575 13 11 C15.3125 12.0625 15.3125 12.0625 17 13 C15.84826645 15.46800047 14.95216435 17.04783565 13 19 C10.27130593 18.96712417 7.7033382 18.43602229 5 18 C5 17.34 5 16.68 5 16 C1.7 16 -1.6 16 -5 16 C-6.21940034 11.12239864 -5.3649428 10.07295382 -3.0625 5.75 C-2.49660156 4.67234375 -1.93070313 3.5946875 -1.34765625 2.484375 C-0.90292969 1.66453125 -0.45820312 0.8446875 0 0 Z " fill="#DEB288" transform="translate(57,61)"/>
<path d="M0 0 C1.98 0 3.96 0 6 0 C6 0.66 6 1.32 6 2 C6.91523437 2.06058594 7.83046875 2.12117187 8.7734375 2.18359375 C9.96195313 2.26738281 11.15046875 2.35117188 12.375 2.4375 C13.55835937 2.51871094 14.74171875 2.59992187 15.9609375 2.68359375 C19 3 19 3 21 4 C21 4.99 21 5.98 21 7 C21.70125 7.2475 22.4025 7.495 23.125 7.75 C28.13138528 9.92668925 32.41539897 12.86392189 36 17 C36 17.66 36 18.32 36 19 C34.35 19.66 32.7 20.32 31 21 C30.67 20.01 30.34 19.02 30 18 C30.66 17.01 31.32 16.02 32 15 C30.02 15.99 30.02 15.99 28 17 C28 16.34 28 15.68 28 15 C26.948125 14.8453125 26.948125 14.8453125 25.875 14.6875 C21.62897801 13.67214692 18.10117285 12.10117285 15 9 C10.07612998 7.91915048 5.01073362 7.52334329 0 7 C0 4.69 0 2.38 0 0 Z " fill="#F2C09B" transform="translate(74,13)"/>
<path d="M0 0 C0.99 0.33 1.98 0.66 3 1 C3.33 2.65 3.66 4.3 4 6 C3.01 6.33 2.02 6.66 1 7 C1.83333333 9.16666667 1.83333333 9.16666667 4 10 C2.02 10.99 2.02 10.99 0 12 C0.2165625 12.62648438 0.433125 13.25296875 0.65625 13.8984375 C0.9346875 14.71570313 1.213125 15.53296875 1.5 16.375 C1.7784375 17.18710938 2.056875 17.99921875 2.34375 18.8359375 C3 21 3 21 3 23 C3.66 23 4.32 23 5 23 C5 23.66 5 24.32 5 25 C5.99 24.67 6.98 24.34 8 24 C8 24.66 8 25.32 8 26 C7.34 26 6.68 26 6 26 C6.33 27.65 6.66 29.3 7 31 C7.66 31 8.32 31 9 31 C12.34097516 33.73352513 13.52354792 35.71193127 14 40 C4.54925437 34.83162349 0.05004768 26.27531834 -3.15234375 16.27734375 C-4.23056122 12.10856746 -4.69682565 9.25837897 -4 5 C-2 2 -2 2 0 0 Z " fill="#2F1F77" transform="translate(30,57)"/>
<path d="M0 0 C0.12890625 2.375 0.12890625 2.375 0 5 C-0.680625 5.66 -1.36125 6.32 -2.0625 7 C-2.701875 7.66 -3.34125 8.32 -4 9 C-3.82919705 12.41605892 -2.64784469 15.03387957 -1 18 C-4.36720387 16.60667426 -5.9859524 15.0210714 -8 12 C-6.50163895 8.88801935 -4.80066242 5.9465385 -3 3 C-4.98 3 -6.96 3 -9 3 C-8.94779297 4.24716797 -8.94779297 4.24716797 -8.89453125 5.51953125 C-8.86746094 6.60621094 -8.84039062 7.69289063 -8.8125 8.8125 C-8.76029297 10.43091797 -8.76029297 10.43091797 -8.70703125 12.08203125 C-9 15 -9 15 -10.3515625 16.8671875 C-12.66937291 18.4599956 -14.25223052 18.35227814 -17 18 C-19 16 -19 16 -19.1953125 13.1796875 C-19.17210938 12.08914062 -19.14890625 10.99859375 -19.125 9.875 C-19.10695313 8.77929688 -19.08890625 7.68359375 -19.0703125 6.5546875 C-19.04710938 5.71164063 -19.02390625 4.86859375 -19 4 C-18.67 4 -18.34 4 -18 4 C-17.67 7.63 -17.34 11.26 -17 15 C-15.35 15 -13.7 15 -12 15 C-11.67 11.04 -11.34 7.08 -11 3 C-11.66 3 -12.32 3 -13 3 C-13 6.96 -13 10.92 -13 15 C-13.66 15 -14.32 15 -15 15 C-15 10.71 -15 6.42 -15 2 C-19.29 2 -23.58 2 -28 2 C-28 1.67 -28 1.34 -28 1 C-18.64087671 0.00736571 -9.39605802 -0.10731538 0 0 Z " fill="#55271E" transform="translate(89,53)"/>
<path d="M0 0 C9.34218142 0.49169376 16.07831083 6.6665077 22.0625 13.25 C26.36076424 18.03737957 28.14303786 20.42025863 28 27 C27.34 27 26.68 27 26 27 C25.34 26.01 24.68 25.02 24 24 C22.68 24 21.36 24 20 24 C20 25.32 20 26.64 20 28 C19.34 28 18.68 28 18 28 C16.875 23.25 16.875 23.25 18 21 C17.34 20.67 16.68 20.34 16 20 C17.32 19.34 18.64 18.68 20 18 C15.80196415 12.28737867 11.36380479 9.06876809 5 6 C5 5.01 5 4.02 5 3 C2.525 2.01 2.525 2.01 0 1 C0 0.67 0 0.34 0 0 Z " fill="#E26717" transform="translate(90,14)"/>
<path d="M0 0 C4.29 0 8.58 0 13 0 C14.44207941 2.88415883 14.09394887 5.41721528 14.0625 8.625 C14.05347656 9.81351563 14.04445313 11.00203125 14.03515625 12.2265625 C14.02355469 13.14179687 14.01195313 14.05703125 14 15 C14.66 15 15.32 15 16 15 C16 11.04 16 7.08 16 3 C16.66 3 17.32 3 18 3 C18.02686553 4.97909398 18.04633375 6.95828971 18.0625 8.9375 C18.07410156 10.03964844 18.08570312 11.14179687 18.09765625 12.27734375 C18 15 18 15 17 16 C13.93518979 16.1613058 11.94450722 15.98150241 9 15 C9 13.35 9 11.7 9 10 C8.01 10.66 7.02 11.32 6 12 C6.66 13.98 7.32 15.96 8 18 C7.01 18 6.02 18 5 18 C1 12.74285714 1 12.74285714 1 10 C2.65 10 4.3 10 6 10 C6 8.68 6 7.36 6 6 C4.35 6 2.7 6 1 6 C0.67 4.02 0.34 2.04 0 0 Z " fill="#AA765A" transform="translate(60,53)"/>
<path d="M0 0 C0.66 0 1.32 0 2 0 C0.63538584 13.62818612 -2.20439095 26.05173976 -12.875 35.5625 C-13.57625 36.036875 -14.2775 36.51125 -15 37 C-15.66 36.34 -16.32 35.68 -17 35 C-16.34 35 -15.68 35 -15 35 C-15.33 33.02 -15.66 31.04 -16 29 C-14.02 29.33 -12.04 29.66 -10 30 C-10.33 28.35 -10.66 26.7 -11 25 C-10.01 24.67 -9.02 24.34 -8 24 C-7.67 23.01 -7.34 22.02 -7 21 C-6.34 21 -5.68 21 -5 21 C-4.34 17.7 -3.68 14.4 -3 11 C-4.65 11 -6.3 11 -8 11 C-8 11.99 -8 12.98 -8 14 C-8.66 14 -9.32 14 -10 14 C-10.36305732 8.55414013 -10.36305732 8.55414013 -8.8125 6.1875 C-7 5 -7 5 -4.4375 4.5625 C-1.82682205 4.26012621 -1.82682205 4.26012621 -0.6875 1.9375 C-0.460625 1.298125 -0.23375 0.65875 0 0 Z " fill="#2A1A6E" transform="translate(122,59)"/>
<path d="M0 0 C12.02498643 -0.46184158 21.27900136 0.48606483 31 8 C31.33 8.66 31.66 9.32 32 10 C31.01 10 30.02 10 29 10 C29.20625 11.11375 29.4125 12.2275 29.625 13.375 C29.74875 14.57125 29.8725 15.7675 30 17 C29.34 17.66 28.68 18.32 28 19 C27.86722656 18.36191406 27.73445313 17.72382812 27.59765625 17.06640625 C27.42105469 16.24011719 27.24445313 15.41382813 27.0625 14.5625 C26.88847656 13.73878906 26.71445313 12.91507813 26.53515625 12.06640625 C26.19247006 10.02338796 26.19247006 10.02338796 25 9 C22.08391002 8.66638081 22.08391002 8.66638081 19 9 C17.2488427 10.4166747 17.2488427 10.4166747 16 12 C15.34 12 14.68 12 14 12 C13.67 10.68 13.34 9.36 13 8 C11.68 7.67 10.36 7.34 9 7 C9 6.34 9 5.68 9 5 C8.34 4.67 7.68 4.34 7 4 C7.99 4 8.98 4 10 4 C10 3.01 10 2.02 10 1 C6.7 1 3.4 1 0 1 C0 0.67 0 0.34 0 0 Z " fill="#F5EEE3" transform="translate(67,22)"/>
<path d="M0 0 C0.5775 0.20625 1.155 0.4125 1.75 0.625 C-1.25 2.625 -1.25 2.625 -3.25 3.625 C-2.26 4.285 -1.27 4.945 -0.25 5.625 C-0.25 4.965 -0.25 4.305 -0.25 3.625 C0.41 3.625 1.07 3.625 1.75 3.625 C1.75 7.625 1.75 7.625 -0.0625 9.875 C-4.7046073 12.42360793 -9.06570525 12.58323458 -14.25 11.625 C-17.30032323 8.48752467 -17.25 7.02647041 -17.25 2.625 C-16.50234375 2.57601562 -15.7546875 2.52703125 -14.984375 2.4765625 C-13.99953125 2.40179688 -13.0146875 2.32703125 -12 2.25 C-10.53820312 2.14558594 -10.53820312 2.14558594 -9.046875 2.0390625 C-5.67994835 1.54060688 -3.31365236 -0.55227539 0 0 Z " fill="#F0E637" transform="translate(37.25,103.375)"/>
<path d="M0 0 C0 0.66 0 1.32 0 2 C1.65 2.33 3.3 2.66 5 3 C5 4.32 5 5.64 5 7 C6.093125 7.185625 7.18625 7.37125 8.3125 7.5625 C12 9 12 9 13.875 12.4375 C14.24625 13.613125 14.6175 14.78875 15 16 C15.33 16.99 15.66 17.98 16 19 C18.31 18.34 20.62 17.68 23 17 C23.33 18.32 23.66 19.64 24 21 C24.66 21 25.32 21 26 21 C26.495 22.98 26.495 22.98 27 25 C25.35 24.67 23.7 24.34 22 24 C22.33 22.68 22.66 21.36 23 20 C21.02463255 20.34786708 21.02463255 20.34786708 19 21 C18.67 21.66 18.34 22.32 18 23 C17.01 22.67 16.02 22.34 15 22 C14.27095914 20.35965807 13.61344757 18.68698082 13 17 C12.46375 16.13375 11.9275 15.2675 11.375 14.375 C10 12 10 12 10 9 C4.63909407 8.46326107 4.63909407 8.46326107 0 10.5 C-0.33 10.995 -0.66 11.49 -1 12 C-2.65 11.01 -4.3 10.02 -6 9 C-5.835 8.236875 -5.67 7.47375 -5.5 6.6875 C-4.90854604 3.96403764 -4.90854604 3.96403764 -5 1 C-2 0 -2 0 0 0 Z " fill="#B9997A" transform="translate(76,27)"/>
<path d="M0 0 C0.99 0.99 1.98 1.98 3 3 C2 5 2 5 1 6 C0.67 6.66 0.34 7.32 0 8 C-0.33 8 -0.66 8 -1 8 C-1.99 8.495 -1.99 8.495 -3 9 C-3 9.99 -3 10.98 -3 12 C-3.639375 12.28875 -4.27875 12.5775 -4.9375 12.875 C-7.15206079 13.82823451 -7.15206079 13.82823451 -8 16 C-8.99 15.67 -9.98 15.34 -11 15 C-11.33 15.66 -11.66 16.32 -12 17 C-12.99 17 -13.98 17 -15 17 C-15.33 17.66 -15.66 18.32 -16 19 C-19.17045938 20.24061454 -21.58238295 21 -25 21 C-25.33 19.35 -25.66 17.7 -26 16 C-24.948125 15.71125 -23.89625 15.4225 -22.8125 15.125 C-17.00450754 13.44064748 -17.00450754 13.44064748 -11.875 10.375 C-10 9 -10 9 -7 9 C-6.67 8.34 -6.34 7.68 -6 7 C-4.09146229 4.5373707 -2.2038918 2.2038918 0 0 Z " fill="#ADA2C9" transform="translate(107,84)"/>
<path d="M0 0 C2.16015625 0.3125 2.16015625 0.3125 4.0625 1.0625 C5.9375 4.5 5.9375 4.5 7.0625 8.0625 C7.7225 8.7225 8.3825 9.3825 9.0625 10.0625 C9.2275 10.743125 9.3925 11.42375 9.5625 12.125 C9.7275 12.764375 9.8925 13.40375 10.0625 14.0625 C10.7225 14.3925 11.3825 14.7225 12.0625 15.0625 C12.3925 14.0725 12.7225 13.0825 13.0625 12.0625 C14.3825 12.0625 15.7025 12.0625 17.0625 12.0625 C16.7325 13.3825 16.4025 14.7025 16.0625 16.0625 C17.7125 16.3925 19.3625 16.7225 21.0625 17.0625 C21.3925 18.7125 21.7225 20.3625 22.0625 22.0625 C21.4025 22.3925 20.7425 22.7225 20.0625 23.0625 C20.0625 22.4025 20.0625 21.7425 20.0625 21.0625 C19.0725 20.7325 18.0825 20.4025 17.0625 20.0625 C18.0525 19.4025 19.0425 18.7425 20.0625 18.0625 C18.4125 18.0625 16.7625 18.0625 15.0625 18.0625 C14.7325 18.7225 14.4025 19.3825 14.0625 20.0625 C13.4025 19.0725 12.7425 18.0825 12.0625 17.0625 C11.4025 17.3925 10.7425 17.7225 10.0625 18.0625 C10.0625 17.4025 10.0625 16.7425 10.0625 16.0625 C9.4025 16.0625 8.7425 16.0625 8.0625 16.0625 C8.0625 16.7225 8.0625 17.3825 8.0625 18.0625 C6.0825 18.0625 4.1025 18.0625 2.0625 18.0625 C2.7225 17.7325 3.3825 17.4025 4.0625 17.0625 C4.0625 16.0725 4.0625 15.0825 4.0625 14.0625 C4.3925 13.7325 4.7225 13.4025 5.0625 13.0625 C4.711875 12.44375 4.36125 11.825 4 11.1875 C3.690625 10.48625 3.38125 9.785 3.0625 9.0625 C3.3925 8.4025 3.7225 7.7425 4.0625 7.0625 C3.0725 7.0625 2.0825 7.0625 1.0625 7.0625 C1.0625 6.4025 1.0625 5.7425 1.0625 5.0625 C-0.8629644 3.9134288 -0.8629644 3.9134288 -2.9375 4.0625 C-3.9275 3.4025 -4.9175 2.7425 -5.9375 2.0625 C-3.9375 0.0625 -3.9375 0.0625 0 0 Z " fill="#E2AE83" transform="translate(81.9375,34.9375)"/>
<path d="M0 0 C2.50406624 0.99091391 4.99453032 1.99762489 7.46484375 3.0703125 C12.12659806 5.05873851 15.82544449 6.54469005 21 6 C21 7.32 21 8.64 21 10 C21.33 9.01 21.66 8.02 22 7 C23.65 6.67 25.3 6.34 27 6 C27.33 7.98 27.66 9.96 28 12 C21.32956122 12.19715583 15.34143537 12.36249553 9 10 C8.35933594 9.78214844 7.71867187 9.56429687 7.05859375 9.33984375 C5.125 8.625 5.125 8.625 2 7 C1.0625 4.8125 1.0625 4.8125 1 3 C0.67 3.99 0.34 4.98 0 6 C-1.24546405 3.50907189 -0.7767578 2.58919267 0 0 Z " fill="#A79FC5" transform="translate(52,94)"/>
<path d="M0 0 C2.875 1.375 2.875 1.375 5.875 3.375 C6.0625 7 6.0625 7 5.875 10.375 C3.40683586 11.60908207 1.62838799 11.57697579 -1.125 11.625 C-2.011875 11.65078125 -2.89875 11.6765625 -3.8125 11.703125 C-4.575625 11.59484375 -5.33875 11.4865625 -6.125 11.375 C-8.2860211 8.13346834 -8.76747553 7.13807099 -8.125 3.375 C-5.33789772 0.17802974 -4.25169022 -0.85033804 0 0 Z " fill="#EA842A" transform="translate(76.125,41.625)"/>
<path d="M0 0 C2.375 1.25 2.375 1.25 5 4 C6.04794669 7.96007995 6.57128307 11.93038853 7 16 C6.34 16 5.68 16 5 16 C5.33 17.65 5.66 19.3 6 21 C4.02 21.99 4.02 21.99 2 23 C2 22.34 2 21.68 2 21 C1.34 21 0.68 21 0 21 C-3 14.5 -3 14.5 -3 10 C-2.34 9.34 -1.68 8.68 -1 8 C-1.33 7.01 -1.66 6.02 -2 5 C-1.34 4.67 -0.68 4.34 0 4 C0 2.68 0 1.36 0 0 Z " fill="#312074" transform="translate(33,59)"/>
<path d="M0 0 C1.32 0 2.64 0 4 0 C4 2.31 4 4.62 4 7 C3.15695313 7.03738281 2.31390625 7.07476563 1.4453125 7.11328125 C-0.19824219 7.21189453 -0.19824219 7.21189453 -1.875 7.3125 C-3.51082031 7.39951172 -3.51082031 7.39951172 -5.1796875 7.48828125 C-6.57574219 7.74158203 -6.57574219 7.74158203 -8 8 C-8.99 9.485 -8.99 9.485 -10 11 C-12.625 11.1875 -12.625 11.1875 -15 11 C-15.33 12.32 -15.66 13.64 -16 15 C-16.99 14.67 -17.98 14.34 -19 14 C-19 13.34 -19 12.68 -19 12 C-19.66 12 -20.32 12 -21 12 C-21 11.34 -21 10.68 -21 10 C-19.56705502 9.15885829 -18.12845595 8.32734313 -16.6875 7.5 C-15.88699219 7.0359375 -15.08648437 6.571875 -14.26171875 6.09375 C-12 5 -12 5 -9 5 C-8.67 4.01 -8.34 3.02 -8 2 C-5.36 2 -2.72 2 0 2 C0 1.34 0 0.68 0 0 Z " fill="#ECAC7F" transform="translate(66,13)"/>
<path d="M0 0 C0.40368295 6.45892714 -0.4084738 11.06108578 -3 17 C-3.66 17 -4.32 17 -5 17 C-5.66 14.69 -6.32 12.38 -7 10 C-9.31 10.33 -11.62 10.66 -14 11 C-13.61932203 8.38070828 -13.21295682 7.20808367 -11.29296875 5.33203125 C-10.59816406 4.83058594 -9.90335937 4.32914062 -9.1875 3.8125 C-8.15689453 3.04873047 -8.15689453 3.04873047 -7.10546875 2.26953125 C-4.82897978 0.8968802 -2.69465538 0 0 0 Z " fill="#F7F7F9" transform="translate(111,60)"/>
<path d="M0 0 C0.61875 0.268125 1.2375 0.53625 1.875 0.8125 C2.865 1.1425 3.855 1.4725 4.875 1.8125 C5.0986337 3.22683206 5.30326476 4.64417618 5.5 6.0625 C5.61601563 6.85140625 5.73203125 7.6403125 5.8515625 8.453125 C5.87819395 11.13402459 5.24092084 12.53944089 3.875 14.8125 C-0.0376984 13.5082672 -2.49810241 12.02315261 -5.125 8.8125 C-5.125 7.8225 -5.125 6.8325 -5.125 5.8125 C-5.785 5.8125 -6.445 5.8125 -7.125 5.8125 C-7.125 5.1525 -7.125 4.4925 -7.125 3.8125 C-2.93701849 -0.25914869 -2.93701849 -0.25914869 0 0 Z " fill="#DFB488" transform="translate(76.125,77.1875)"/>
<path d="M0 0 C0.721875 0.268125 1.44375 0.53625 2.1875 0.8125 C1.445 1.51375 0.7025 2.215 -0.0625 2.9375 C-2.79067223 5.78968006 -4.72552954 8.4888063 -6.8125 11.8125 C-5.4925 11.4825 -4.1725 11.1525 -2.8125 10.8125 C-2.8125 12.1325 -2.8125 13.4525 -2.8125 14.8125 C-3.92625 14.915625 -5.04 15.01875 -6.1875 15.125 C-7.38375 15.351875 -8.58 15.57875 -9.8125 15.8125 C-10.4725 16.8025 -11.1325 17.7925 -11.8125 18.8125 C-12.4725 18.8125 -13.1325 18.8125 -13.8125 18.8125 C-15.1325 16.5025 -16.4525 14.1925 -17.8125 11.8125 C-15.894375 11.4721875 -15.894375 11.4721875 -13.9375 11.125 C-11.732674 10.63050708 -11.732674 10.63050708 -9.8125 9.8125 C-8.53662505 7.4984613 -8.53662505 7.4984613 -7.8125 4.8125 C-3.74097318 -0.24939821 -3.74097318 -0.24939821 0 0 Z " fill="#E09873" transform="translate(69.8125,38.1875)"/>
<path d="M0 0 C6.27 0 12.54 0 19 0 C19.33 0.99 19.66 1.98 20 3 C26.93 3.495 26.93 3.495 34 4 C34 5.65 34 7.3 34 9 C33.505 8.01 33.505 8.01 33 7 C31.73542969 7.01740234 31.73542969 7.01740234 30.4453125 7.03515625 C29.34960938 7.04417969 28.25390625 7.05320312 27.125 7.0625 C25.48917969 7.07990234 25.48917969 7.07990234 23.8203125 7.09765625 C21 7 21 7 19 6 C19 5.34 19 4.68 19 4 C12.73 4 6.46 4 0 4 C0 2.68 0 1.36 0 0 Z " fill="#DD8C12" transform="translate(67,111)"/>
<path d="M0 0 C0.99 0.33 1.98 0.66 3 1 C2.34 2.98 1.68 4.96 1 7 C0.34 7 -0.32 7 -1 7 C-1.28875 8.0725 -1.5775 9.145 -1.875 10.25 C-2.72820109 13.09400364 -3.5636503 15.43508983 -5 18 C-5.66 18 -6.32 18 -7 18 C-6.67 18.99 -6.34 19.98 -6 21 C-6.99 21 -7.98 21 -9 21 C-8.01 21.66 -7.02 22.32 -6 23 C-9.75 24.125 -9.75 24.125 -12 23 C-11.41529782 15.98357379 -8.88080417 10.82120626 -5 5 C-4.34 5 -3.68 5 -3 5 C-2.690625 4.360625 -2.38125 3.72125 -2.0625 3.0625 C-1 1 -1 1 0 0 Z " fill="#F2B98E" transform="translate(41,27)"/>
<path d="M0 0 C5.61 0.66 11.22 1.32 17 2 C16.67 3.32 16.34 4.64 16 6 C15.01 6 14.02 6 13 6 C12.67 6.99 12.34 7.98 12 9 C10.58249437 8.88490339 9.16598831 8.75746342 7.75 8.625 C6.56664063 8.52058594 6.56664063 8.52058594 5.359375 8.4140625 C2.87914019 7.9787895 1.14017625 7.31630309 -1 6 C-1.33 5.34 -1.66 4.68 -2 4 C-2.99 4.495 -2.99 4.495 -4 5 C-4 4.34 -4 3.68 -4 3 C-5.65 3.33 -7.3 3.66 -9 4 C-9 3.34 -9 2.68 -9 2 C-4.48281619 0.63115642 -1.41225737 1.52924754 3 3 C2.01 2.01 1.02 1.02 0 0 Z " fill="#EACE1A" transform="translate(112,104)"/>
<path d="M0 0 C3.57265318 0.34025268 5.71326734 0.79995396 8.6875 2.875 C12.59950244 5.38458647 16.2129301 6.25802715 20.70703125 7.2890625 C21.46371094 7.52367188 22.22039062 7.75828125 23 8 C23.33 8.66 23.66 9.32 24 10 C16.67753847 11.97572514 10.49843627 13.61730978 3 12 C3 11.34 3 10.68 3 10 C6.465 9.505 6.465 9.505 10 9 C9.34 8.38125 8.68 7.7625 8 7.125 C6 5 6 5 6 3 C1.545 3.495 1.545 3.495 -3 4 C-2.01 2.68 -1.02 1.36 0 0 Z " fill="#F9F6EE" transform="translate(43,100)"/>
<path d="M0 0 C-0.33 1.32 -0.66 2.64 -1 4 C-1.66 4 -2.32 4 -3 4 C-3 4.99 -3 5.98 -3 7 C-1.02 7 0.96 7 3 7 C3.33 7.66 3.66 8.32 4 9 C-1.95720872 11.97860436 -9.19021183 9.60869748 -15.12890625 7.65625 C-15.74636719 7.4396875 -16.36382812 7.223125 -17 7 C-16 5 -16 5 -13.85546875 4.21875 C-12.97503906 3.9815625 -12.09460938 3.744375 -11.1875 3.5 C-7.54127352 2.50900196 -3.68634458 0 0 0 Z " fill="#EDEAE5" transform="translate(99,103)"/>
<path d="M0 0 C0.33 0.99 0.66 1.98 1 3 C1.763125 2.835 2.52625 2.67 3.3125 2.5 C9.47218301 1.66478874 15.97856428 1.21901197 22 3 C22 3.66 22 4.32 22 5 C28.93 5.495 28.93 5.495 36 6 C36.495 7.485 36.495 7.485 37 9 C35.700625 9.061875 34.40125 9.12375 33.0625 9.1875 C32.33160156 9.22230469 31.60070312 9.25710937 30.84765625 9.29296875 C28.18334864 9.01886303 26.30529938 8.44418732 23.8125 7.53125 C18.83971036 5.78698174 14.17425536 5.45469274 8.9375 5.3125 C7.6390918 5.26125977 7.6390918 5.26125977 6.31445312 5.20898438 C4.21005613 5.12759886 2.1050543 5.06210231 0 5 C0 3.35 0 1.7 0 0 Z " fill="#F9F40B" transform="translate(64,112)"/>
<path d="M0 0 C1.95052208 2.19433734 2.93270961 3.65513676 3.5 6.5625 C3.335 7.366875 3.17 8.17125 3 9 C1.36209288 10.04644066 -0.31008021 11.0398183 -2 12 C-4.21168225 14.94236782 -4.21168225 14.94236782 -6 18 C-6.66 18.99 -7.32 19.98 -8 21 C-8.49379168 14.33381229 -7.36683611 8.85039731 -4 3 C-1.859375 1.20703125 -1.859375 1.20703125 0 0 Z " fill="#F9F7F2" transform="translate(46,37)"/>
<path d="M0 0 C0 0.66 0 1.32 0 2 C-0.99 2.33 -1.98 2.66 -3 3 C-3.45375 3.474375 -3.9075 3.94875 -4.375 4.4375 C-6.38576214 6.37092514 -8.39052205 7.0831564 -11 8 C-11 8.66 -11 9.32 -11 10 C-10.34 10 -9.68 10 -9 10 C-8.67 10.66 -8.34 11.32 -8 12 C-6.68 12 -5.36 12 -4 12 C-4.125 13.8125 -4.125 13.8125 -5 16 C-10.03571429 19 -10.03571429 19 -13 19 C-13 18.34 -13 17.68 -13 17 C-12.01 17 -11.02 17 -10 17 C-10.66 16.01 -11.32 15.02 -12 14 C-12 13.01 -12 12.02 -12 11 C-12.99 11 -13.98 11 -15 11 C-14.64700771 8.19431993 -14.23064554 7.19618655 -12.0390625 5.33203125 C-11.24242187 4.83058594 -10.44578125 4.32914063 -9.625 3.8125 C-8.83351563 3.30332031 -8.04203125 2.79414063 -7.2265625 2.26953125 C-4.79747065 0.88452274 -2.82544486 0 0 0 Z " fill="#E26818" transform="translate(56,15)"/>
<path d="M0 0 C0.99 0 1.98 0 3 0 C7 5.25714286 7 5.25714286 7 8 C7.66 8 8.32 8 9 8 C9.28875 8.639375 9.5775 9.27875 9.875 9.9375 C10.82823451 12.15206079 10.82823451 12.15206079 13 13 C12.01 14.485 12.01 14.485 11 16 C7.04322598 14.32598022 4.15535787 11.86850715 1 9 C1 8.34 1 7.68 1 7 C0.34 7 -0.32 7 -1 7 C-1.33 5.35 -1.66 3.7 -2 2 C-1.34 2 -0.68 2 0 2 C0 1.34 0 0.68 0 0 Z " fill="#8A7FAD" transform="translate(38,81)"/>
<path d="M0 0 C0 0.99 0 1.98 0 3 C1.32 3.33 2.64 3.66 4 4 C1.36 4 -1.28 4 -4 4 C-3.7525 4.7734375 -3.7525 4.7734375 -3.5 5.5625 C-2.84951 8.73363876 -2.9379266 11.77218334 -3 15 C-3.66 15 -4.32 15 -5 15 C-5.33 16.32 -5.66 17.64 -6 19 C-9.90186194 18.72777707 -11.67844094 18.27669035 -14.6875 15.6875 C-20 9.51351351 -20 9.51351351 -20 7 C-21.175625 7.0928125 -21.175625 7.0928125 -22.375 7.1875 C-23.24125 7.125625 -24.1075 7.06375 -25 7 C-25.66 6.01 -26.32 5.02 -27 4 C-22.545 4.99 -22.545 4.99 -18 6 C-18 6.99 -18 7.98 -18 9 C-17.34 9 -16.68 9 -16 9 C-15.6596875 10.423125 -15.6596875 10.423125 -15.3125 11.875 C-14.31793578 15.17129561 -14.31793578 15.17129561 -11.5 16.3125 C-10.675 16.539375 -9.85 16.76625 -9 17 C-8.34 17.33 -7.68 17.66 -7 18 C-6.90912109 17.03900391 -6.90912109 17.03900391 -6.81640625 16.05859375 C-6.32790588 11.01576687 -5.76220714 6.0087898 -5 1 C-2 0 -2 0 0 0 Z " fill="#8B7A67" transform="translate(87,74)"/>
<path d="M0 0 C0.66 0 1.32 0 2 0 C2 0.66 2 1.32 2 2 C2.99 2.33 3.98 2.66 5 3 C4.67 4.32 4.34 5.64 4 7 C3.34 6.01 2.68 5.02 2 4 C-1.34974997 8.57799162 -4 13.10785106 -4 19 C-0.7 19 2.6 19 6 19 C4 21 4 21 2.0546875 21.1953125 C0.03645833 21.13020833 -1.98177083 21.06510417 -4 21 C-8 14.375 -8 14.375 -8 11 C-9.32 10.67 -10.64 10.34 -12 10 C-11 8 -11 8 -9 6 C-7.68 7.32 -6.36 8.64 -5 10 C-3.35 6.7 -1.7 3.4 0 0 Z " fill="#A29377" transform="translate(56,58)"/>
<path d="M0 0 C0.66 0.33 1.32 0.66 2 1 C1.67 1.99 1.34 2.98 1 4 C1.7734375 4.19335938 2.546875 4.38671875 3.34375 4.5859375 C4.3853125 4.84632812 5.426875 5.10671875 6.5 5.375 C7.58796875 5.64699219 8.6759375 5.91898437 9.796875 6.19921875 C13.7734375 7.19335938 13.7734375 7.19335938 17.75 8.1875 C18.8225 8.455625 19.895 8.72375 21 9 C20.01 10.485 20.01 10.485 19 12 C11.45271082 11.71303083 4.70926326 10.65834314 -2 7 C-2.33 6.34 -2.66 5.68 -3 5 C-2.01 5 -1.02 5 0 5 C0 3.35 0 1.7 0 0 Z " fill="#433480" transform="translate(53,97)"/>
<path d="M0 0 C1.32 0.66 2.64 1.32 4 2 C4 2.66 4 3.32 4 4 C4.66 4 5.32 4 6 4 C6.33 2.68 6.66 1.36 7 0 C8.24025174 3.72075523 7.60677844 6.15706991 7 10 C7 11.32 7 12.64 7 14 C5.02 14 3.04 14 1 14 C-1.38297872 5.21276596 -1.38297872 5.21276596 -1 1 C-0.67 0.67 -0.34 0.34 0 0 Z " fill="#EDAD7E" transform="translate(112,37)"/>
<path d="M0 0 C2.66130884 3.99196326 2.66130884 3.99196326 3 7 C2.07421875 8.921875 2.07421875 8.921875 0.6875 10.75 C0.01267578 11.67039062 0.01267578 11.67039062 -0.67578125 12.609375 C-1.11277344 13.06828125 -1.54976562 13.5271875 -2 14 C-2.66 14 -3.32 14 -4 14 C-4.33 14.99 -4.66 15.98 -5 17 C-5.33 15.68 -5.66 14.36 -6 13 C-7.1446875 13.495 -7.1446875 13.495 -8.3125 14 C-11 15 -11 15 -14 15 C-12.375 13 -12.375 13 -10 11 C-6.75 10.75 -6.75 10.75 -4 11 C-4 8.36 -4 5.72 -4 3 C-3.01 2.67 -2.02 2.34 -1 2 C-0.67 1.34 -0.34 0.68 0 0 Z " fill="#E9ECEC" transform="translate(104,72)"/>
<path d="M0 0 C0.99 0.33 1.98 0.66 3 1 C2.01 2.98 1.02 4.96 0 7 C0.804375 7.2475 1.60875 7.495 2.4375 7.75 C5 9 5 9 5.8125 11.125 C5.874375 11.74375 5.93625 12.3625 6 13 C4.824375 13.185625 4.824375 13.185625 3.625 13.375 C0.85942178 13.79117993 0.85942178 13.79117993 -1 16 C-1.02375926 17.9931567 -1.02375926 17.9931567 -0.625 20.125 C-0.41875 21.40375 -0.2125 22.6825 0 24 C-0.99 24 -1.98 24 -3 24 C-3 22.68 -3 21.36 -3 20 C-4.32 20.33 -5.64 20.66 -7 21 C-5.52307692 16.32307692 -5.52307692 16.32307692 -2.875 14.6875 C-2.25625 14.460625 -1.6375 14.23375 -1 14 C-1 12.68 -1 11.36 -1 10 C-2.32 9.67 -3.64 9.34 -5 9 C-4.54625 8.62875 -4.0925 8.2575 -3.625 7.875 C-1.52970606 5.45735315 -0.87986715 3.04569398 0 0 Z " fill="#AA8868" transform="translate(70,29)"/>
<path d="M0 0 C0.99 0.66 1.98 1.32 3 2 C3.5 4.875 3.5 4.875 3 8 C-1.22549023 12.48958337 -7.34736795 15.81052628 -13.5 16.25 C-14.325 16.1675 -15.15 16.085 -16 16 C-15 14 -15 14 -13 12 C-12.67 11.34 -12.34 10.68 -12 10 C-11.01 10.66 -10.02 11.32 -9 12 C-8.67 11.01 -8.34 10.02 -8 9 C-7.01 9.66 -6.02 10.32 -5 11 C-4.67 10.01 -4.34 9.02 -4 8 C-1.9375 7.3125 -1.9375 7.3125 0 7 C0.93423645 3.98968256 1.04449911 3.13349732 0 0 Z " fill="#362470" transform="translate(104,89)"/>
<path d="M0 0 C1.65 0 3.3 0 5 0 C4.34 3.3 3.68 6.6 3 10 C2.34 10 1.68 10 1 10 C0.67 11.32 0.34 12.64 0 14 C-2.475 13.01 -2.475 13.01 -5 12 C-3.68938409 7.76570244 -2.05643741 3.92592596 0 0 Z " fill="#ACA3C6" transform="translate(114,70)"/>
<path d="M0 0 C0.33 0.66 0.66 1.32 1 2 C2.11375 2.226875 3.2275 2.45375 4.375 2.6875 C8 4 8 4 9.875 7.4375 C10.24625 8.613125 10.6175 9.78875 11 11 C11.33 11.99 11.66 12.98 12 14 C14.31 13.34 16.62 12.68 19 12 C19.33 13.32 19.66 14.64 20 16 C20.66 16 21.32 16 22 16 C22.33 17.32 22.66 18.64 23 20 C21.35 19.67 19.7 19.34 18 19 C18.33 17.68 18.66 16.36 19 15 C17.02463255 15.34786708 17.02463255 15.34786708 15 16 C14.67 16.66 14.34 17.32 14 18 C13.01 17.67 12.02 17.34 11 17 C10.27095914 15.35965807 9.61344757 13.68698082 9 12 C8.46375 11.13375 7.9275 10.2675 7.375 9.375 C6 7 6 7 6 4 C3.03 3.505 3.03 3.505 0 3 C0 2.01 0 1.02 0 0 Z " fill="#937D69" transform="translate(80,32)"/>
<path d="M0 0 C0.33 1.32 0.66 2.64 1 4 C2.299375 4.144375 3.59875 4.28875 4.9375 4.4375 C8.875 4.875 8.875 4.875 10 6 C10.04080783 7.99958364 10.04254356 10.00045254 10 12 C9.01 11.67 8.02 11.34 7 11 C7 10.34 7 9.68 7 9 C6.34 9 5.68 9 5 9 C5 8.34 5 7.68 5 7 C4.34 7 3.68 7 3 7 C2.71125 7.61875 2.4225 8.2375 2.125 8.875 C1 11 1 11 -1 13 C-1.02686553 11.02090602 -1.04633375 9.04171029 -1.0625 7.0625 C-1.07410156 5.96035156 -1.08570312 4.85820313 -1.09765625 3.72265625 C-1 1 -1 1 0 0 Z " fill="#E56811" transform="translate(27,47)"/>
<path d="M0 0 C6.669737 1.14995465 9.64823373 2.77788048 14 8 C14 8.66 14 9.32 14 10 C12.35 10.66 10.7 11.32 9 12 C8.67 11.01 8.34 10.02 8 9 C8.66 8.01 9.32 7.02 10 6 C8.02 6.99 8.02 6.99 6 8 C6 7.34 6 6.68 6 6 C4.35 5.67 2.7 5.34 1 5 C0.67 3.35 0.34 1.7 0 0 Z " fill="#E9AC7E" transform="translate(96,22)"/>
<path d="M0 0 C2.15857027 2.1748409 3.42387884 4.32537016 5 7 C2.03 6.34 -0.94 5.68 -4 5 C-3.67 4.01 -3.34 3.02 -3 2 C-4.65 2.33 -6.3 2.66 -8 3 C-8 4.32 -8 5.64 -8 7 C-8.66 7 -9.32 7 -10 7 C-10 6.01 -10 5.02 -10 4 C-10.66 4 -11.32 4 -12 4 C-12 4.66 -12 5.32 -12 6 C-13.65 5.67 -15.3 5.34 -17 5 C-12.05272339 0.81384286 -6.45109463 -1.05563367 0 0 Z " fill="#F2E40D" transform="translate(49,103)"/>
<path d="M0 0 C0.99 0 1.98 0 3 0 C3.66 0.99 4.32 1.98 5 3 C4.67 3.99 4.34 4.98 4 6 C3.67 5.67 3.34 5.34 3 5 C2.67 6.65 2.34 8.3 2 10 C-3.75 11.125 -3.75 11.125 -6 10 C-6 7 -6 7 -3.5625 4.4375 C-2.716875 3.633125 -1.87125 2.82875 -1 2 C-0.67 1.34 -0.34 0.68 0 0 Z " fill="#E2B58A" transform="translate(46,48)"/>
<path d="M0 0 C2.9921875 1.09375 2.9921875 1.09375 5.875 2.5 C7.32519531 3.19609375 7.32519531 3.19609375 8.8046875 3.90625 C9.52914062 4.2671875 10.25359375 4.628125 11 5 C11 5.33 11 5.66 11 6 C6.65081384 6.26358704 3.15564204 5.20891405 -1 4 C-2.32 4 -3.64 4 -5 4 C-5 4.66 -5 5.32 -5 6 C-6.98 6.33 -8.96 6.66 -11 7 C-11 6.34 -11 5.68 -11 5 C-10.34 4.67 -9.68 4.34 -9 4 C-8.67 3.01 -8.34 2.02 -8 1 C-5.18657232 -0.40671384 -3.12902031 -0.21111462 0 0 Z " fill="#EDDE24" transform="translate(107,102)"/>
<path d="M0 0 C2.34432812 0.90748185 3.69905892 1.49216193 5 3.6875 C5 7.36232258 2.89384008 9.98802555 1 13 C0.3197633 14.32646156 -0.35492261 15.65608877 -1 17 C-1.103125 16.05125 -1.20625 15.1025 -1.3125 14.125 C-1.68539295 10.70892499 -1.68539295 10.70892499 -5 9 C-4.67 7.68 -4.34 6.36 -4 5 C-2.02 5.495 -2.02 5.495 0 6 C0 4.02 0 2.04 0 0 Z " fill="#E2B487" transform="translate(51,55)"/>
<path d="M0 0 C0.66 0.33 1.32 0.66 2 1 C0.99088542 2.7578125 -0.01822917 4.515625 -1.02734375 6.2734375 C-1.71719051 7.49798475 -2.37144538 8.74289077 -3 10 C-5.50390625 10.4140625 -5.50390625 10.4140625 -8.5625 10.625 C-9.57441406 10.69976562 -10.58632813 10.77453125 -11.62890625 10.8515625 C-12.41136719 10.90054688 -13.19382812 10.94953125 -14 11 C-14 10.34 -14 9.68 -14 9 C-14.99 9 -15.98 9 -17 9 C-17.2475 9.78375 -17.495 10.5675 -17.75 11.375 C-19.15389099 14.32317108 -20.00675737 14.9024777 -23 16 C-21.47291037 12.56404834 -19.40072955 9.88087546 -17 7 C-15.68 7.33 -14.36 7.66 -13 8 C-13 8.66 -13 9.32 -13 10 C-9.87565267 9.6271355 -6.9373333 9.15337491 -4 8 C-2.44485113 5.08617485 -2.44485113 5.08617485 -2 2 C-1.34 1.34 -0.68 0.68 0 0 Z " fill="#9F8872" transform="translate(63,39)"/>
<path d="M0 0 C2.64 0 5.28 0 8 0 C8.33 1.65 8.66 3.3 9 5 C8.34 5 7.68 5 7 5 C7 5.66 7 6.32 7 7 C4.69 7.66 2.38 8.32 0 9 C0.33 7.68 0.66 6.36 1 5 C0.34 4.67 -0.32 4.34 -1 4 C-0.67 2.68 -0.34 1.36 0 0 Z " fill="#BBAE96" transform="translate(91,74)"/>
<path d="M0 0 C0.66 0.33 1.32 0.66 2 1 C2.625 3.5625 2.625 3.5625 3 6 C1.6696875 6.37125 1.6696875 6.37125 0.3125 6.75 C-3.08269921 7.83140107 -3.08269921 7.83140107 -5.6875 10.1875 C-6.450625 10.785625 -7.21375 11.38375 -8 12 C-8.99 11.67 -9.98 11.34 -11 11 C-10.67 10.67 -10.34 10.34 -10 10 C-10.66 9.34 -11.32 8.68 -12 8 C-11.21753906 7.59007813 -10.43507813 7.18015625 -9.62890625 6.7578125 C-8.61699219 6.21898438 -7.60507813 5.68015625 -6.5625 5.125 C-5.55316406 4.59132813 -4.54382813 4.05765625 -3.50390625 3.5078125 C-0.89859558 2.24345886 -0.89859558 2.24345886 0 0 Z " fill="#3D2F7A" transform="translate(100,86)"/>
<path d="M0 0 C0 1.65 0 3.3 0 5 C-1.175625 4.979375 -2.35125 4.95875 -3.5625 4.9375 C-7.47413467 4.93052739 -11.14497944 5.35749657 -15 6 C-15.33 4.68 -15.66 3.36 -16 2 C-14.08404518 1.66259915 -12.16720278 1.33023588 -10.25 1 C-9.18265625 0.814375 -8.1153125 0.62875 -7.015625 0.4375 C-4 0 -4 0 0 0 Z " fill="#D87C17" transform="translate(63,113)"/>
<path d="M0 0 C1.65 0 3.3 0 5 0 C5.625 2.375 5.625 2.375 6 5 C5.34 5.66 4.68 6.32 4 7 C4.99 7 5.98 7 7 7 C7 7.66 7 8.32 7 9 C7.66 9 8.32 9 9 9 C8.34 10.32 7.68 11.64 7 13 C6.34 13 5.68 13 5 13 C5 12.34 5 11.68 5 11 C4.34 11 3.68 11 3 11 C0 4.5 0 4.5 0 0 Z " fill="#AFA5C7" transform="translate(30,69)"/>
<path d="M0 0 C0.99 0.33 1.98 0.66 3 1 C2.34 2.98 1.68 4.96 1 7 C0.34 7 -0.32 7 -1 7 C-1.33 8.32 -1.66 9.64 -2 11 C-2.66 11 -3.32 11 -4 11 C-4 11.66 -4 12.32 -4 13 C-4.66 13 -5.32 13 -6 13 C-6.625 10.6875 -6.625 10.6875 -7 8 C-6.34 7.01 -5.68 6.02 -5 5 C-4.34 5 -3.68 5 -3 5 C-2.690625 4.360625 -2.38125 3.72125 -2.0625 3.0625 C-1 1 -1 1 0 0 Z " fill="#EFC19C" transform="translate(41,27)"/>
<path d="M0 0 C0.99 0.99 1.98 1.98 3 3 C2.67 3.99 2.34 4.98 2 6 C0.35 6 -1.3 6 -3 6 C-3.33 7.32 -3.66 8.64 -4 10 C-4.99 9.67 -5.98 9.34 -7 9 C-7 8.34 -7 7.68 -7 7 C-7.66 7 -8.32 7 -9 7 C-9 6.34 -9 5.68 -9 5 C-6.03 3.35 -3.06 1.7 0 0 Z " fill="#EFB488" transform="translate(54,18)"/>
<path d="M0 0 C-1.32 0.33 -2.64 0.66 -4 1 C-4 1.66 -4 2.32 -4 3 C-6.76264289 3.59732819 -9.16032769 4 -12 4 C-12.33 4.66 -12.66 5.32 -13 6 C-15.5625 6.625 -15.5625 6.625 -18 7 C-17.67 6.34 -17.34 5.68 -17 5 C-16.01 5 -15.02 5 -14 5 C-14 4.34 -14 3.68 -14 3 C-15.32 3.33 -16.64 3.66 -18 4 C-16.54777763 1.09555527 -14.2779774 0.59437587 -11.34375 -0.46875 C-7.46653154 -1.34758618 -3.86221045 -0.74204506 0 0 Z " fill="#E67C34" transform="translate(70,12)"/>
<path d="M0 0 C0.33 0.66 0.66 1.32 1 2 C-4.61 2 -10.22 2 -16 2 C-16 3.32 -16 4.64 -16 6 C-16.66 6 -17.32 6 -18 6 C-18.66 5.01 -19.32 4.02 -20 3 C-22.05925139 2.27617533 -22.05925139 2.27617533 -24 2 C-17.35844525 0.00753357 -6.39111861 -3.19555931 0 0 Z " fill="#DDCE48" transform="translate(83,109)"/>
<path d="M0 0 C1.11375 0.2475 1.11375 0.2475 2.25 0.5 C7.50409401 1.20054587 12.70751749 1.07707499 18 1 C18.125 6.75 18.125 6.75 17 9 C16.34 9 15.68 9 15 9 C15 7.35 15 5.7 15 4 C14.11248047 4.01740234 14.11248047 4.01740234 13.20703125 4.03515625 C8.99768215 4.08322386 5.1077667 4.06006883 1 3 C0.67 2.01 0.34 1.02 0 0 Z " fill="#F4E327" transform="translate(86,111)"/>
<path d="M0 0 C2.98114942 0.65275732 5.55453618 1.63934651 8.3125 2.9375 C12.16311024 4.69067519 15.90444672 5.95432682 20 7 C20 7.33 20 7.66 20 8 C12.57544389 9.78739314 8.45478287 7.82260707 2 4 C2 3.34 2 2.68 2 2 C1.34 2 0.68 2 0 2 C0 1.34 0 0.68 0 0 Z " fill="#29186C" transform="translate(50,90)"/>
<path d="M0 0 C0.2475 0.5775 0.495 1.155 0.75 1.75 C2.16683317 4.3002997 3.87627537 6.01785701 6 8 C8.99332739 7.0022242 9.94766315 6.2477975 12 4 C12.33 4.66 12.66 5.32 13 6 C12.34 6 11.68 6 11 6 C10.731875 6.804375 10.46375 7.60875 10.1875 8.4375 C9.795625 9.283125 9.40375 10.12875 9 11 C8.01 11.33 7.02 11.66 6 12 C4.68 10.35 3.36 8.7 2 7 C1.67 8.98 1.34 10.96 1 13 C0.67 13 0.34 13 0 13 C-0.33 11.35 -0.66 9.7 -1 8 C-1.99 7.67 -2.98 7.34 -4 7 C-3.01 6.01 -2.02 5.02 -1 4 C-1.99 3.67 -2.98 3.34 -4 3 C-2.68 3 -1.36 3 0 3 C0 2.01 0 1.02 0 0 Z " fill="#CDB2B0" transform="translate(111,53)"/>
<path d="M0 0 C0 0.99 0 1.98 0 3 C-1.65 3.33 -3.3 3.66 -5 4 C-5.33 5.32 -5.66 6.64 -6 8 C-6.33 6.68 -6.66 5.36 -7 4 C-8.98 4 -10.96 4 -13 4 C-13.33 3.01 -13.66 2.02 -14 1 C-9.32798795 -0.20568053 -4.78503708 -0.09382426 0 0 Z " fill="#352773" transform="translate(79,97)"/>
<path d="M0 0 C1.99954746 -0.04254356 4.00041636 -0.04080783 6 0 C7 1 7 1 7.1875 3.3125 C7 6 7 6 5.875 8.0625 C5.58625 8.701875 5.2975 9.34125 5 10 C5.78309467 12.23470405 5.78309467 12.23470405 7 14 C6.01 14 5.02 14 4 14 C0 8.74285714 0 8.74285714 0 6 C1.65 6 3.3 6 5 6 C5 4.68 5 3.36 5 2 C3.35 2 1.7 2 0 2 C0 1.34 0 0.68 0 0 Z " fill="#553C26" transform="translate(61,57)"/>
<path d="M0 0 C2.02045442 0.60183749 4.02111039 1.27306096 6 2 C6.33 2.66 6.66 3.32 7 4 C5.02 4.33 3.04 4.66 1 5 C0.67 6.65 0.34 8.3 0 10 C-2.475 9.01 -2.475 9.01 -5 8 C-4 6 -3 4 -2 2 C-1.34 2 -0.68 2 0 2 C0 1.34 0 0.68 0 0 Z " fill="#DBB289" transform="translate(82,68)"/>
<path d="M0 0 C1.485 0.99 1.485 0.99 3 2 C3 2.99 3 3.98 3 5 C3.66 5 4.32 5 5 5 C8.34097516 7.73352513 9.52354792 9.71193127 10 14 C5.46199554 11.73099777 1.53833664 8.43731781 -1 4 C-0.6640625 1.77734375 -0.6640625 1.77734375 0 0 Z " fill="#29176C" transform="translate(34,83)"/>
<path d="M0 0 C0.99 0 1.98 0 3 0 C4.0076952 1.7664657 5.00591714 3.53833823 6 5.3125 C6.8353125 6.79169922 6.8353125 6.79169922 7.6875 8.30078125 C9 11 9 11 9 14 C8.34 14 7.68 14 7 14 C3 8.58823529 3 8.58823529 3 6 C2.01 5.67 1.02 5.34 0 5 C0.33 4.34 0.66 3.68 1 3 C0.34 2.67 -0.32 2.34 -1 2 C-0.67 1.34 -0.34 0.68 0 0 Z " fill="#2C1D6D" transform="translate(38,75)"/>
<path d="M0 0 C1.65 0 3.3 0 5 0 C4.67 1.32 4.34 2.64 4 4 C5.65 4.33 7.3 4.66 9 5 C9.33 6.65 9.66 8.3 10 10 C9.01 10.495 9.01 10.495 8 11 C8 10.34 8 9.68 8 9 C7.01 8.67 6.02 8.34 5 8 C5.99 7.34 6.98 6.68 8 6 C6.35 6 4.7 6 3 6 C2.67 6.66 2.34 7.32 2 8 C0.4375 5.6875 0.4375 5.6875 -1 3 C-0.67 2.01 -0.34 1.02 0 0 Z " fill="#E1B58A" transform="translate(94,47)"/>
<path d="M0 0 C-1.32 2.31 -2.64 4.62 -4 7 C-4.66 7 -5.32 7 -6 7 C-7.98 3.535 -7.98 3.535 -10 0 C-6.30581799 -1.231394 -3.7943739 -0.64432764 0 0 Z " fill="#E0B58A" transform="translate(62,50)"/>
<path d="M0 0 C2.12438339 -0.08078641 4.2496323 -0.13909141 6.375 -0.1875 C7.55835937 -0.22230469 8.74171875 -0.25710937 9.9609375 -0.29296875 C11.46527344 -0.14794922 11.46527344 -0.14794922 13 0 C13.66 0.99 14.32 1.98 15 3 C14.01 3 13.02 3 12 3 C12.20625 4.11375 12.4125 5.2275 12.625 6.375 C12.74875 7.57125 12.8725 8.7675 13 10 C12.34 10.66 11.68 11.32 11 12 C10.86722656 11.36191406 10.73445313 10.72382812 10.59765625 10.06640625 C10.33275391 8.82697266 10.33275391 8.82697266 10.0625 7.5625 C9.88847656 6.73878906 9.71445313 5.91507813 9.53515625 5.06640625 C9.19247006 3.02338796 9.19247006 3.02338796 8 2 C4.63370749 1.85363946 2.21580438 1.92806521 -1 3 C-0.67 2.01 -0.34 1.02 0 0 Z " fill="#E1E8E4" transform="translate(84,29)"/>
<path d="M0 0 C2.9719385 1.12451727 5.33440687 2.22293791 8 4 C8 5.32 8 6.64 8 8 C8.66 8 9.32 8 10 8 C9.67 8.66 9.34 9.32 9 10 C5.5625 8.75 5.5625 8.75 2 7 C1.0625 4.8125 1.0625 4.8125 1 3 C0.67 3.99 0.34 4.98 0 6 C-1.24546405 3.50907189 -0.7767578 2.58919267 0 0 Z " fill="#837AA6" transform="translate(52,94)"/>
<path d="M0 0 C0.66 0.66 1.32 1.32 2 2 C1.625 5.125 1.625 5.125 1 8 C-0.0725 8.28875 -1.145 8.5775 -2.25 8.875 C-5.09400364 9.72820109 -7.43508983 10.5636503 -10 12 C-10.33 11.01 -10.66 10.02 -11 9 C-10.34 9 -9.68 9 -9 9 C-9 7.35 -9 5.7 -9 4 C-8.34 4 -7.68 4 -7 4 C-7 4.99 -7 5.98 -7 7 C-6.67 6.67 -6.34 6.34 -6 6 C-4.33382885 5.95936168 -2.66611905 5.957279 -1 6 C-0.67 4.02 -0.34 2.04 0 0 Z " fill="#6A6A5D" transform="translate(99,75)"/>
<path d="M0 0 C0.72445312 0.08765625 1.44890625 0.1753125 2.1953125 0.265625 C5.78732907 0.74279325 7.94131789 1.2108786 11 3.25 C10.01 3.91 9.02 4.57 8 5.25 C5.984375 4.75390625 5.984375 4.75390625 3.75 3.8125 C-0.57137688 2.19374319 -3.43353793 2.42803683 -8 3.25 C-8.99 2.59 -9.98 1.93 -11 1.25 C-7.10427821 -1.34714786 -4.39999573 -0.62633391 0 0 Z " fill="#E6EBE3" transform="translate(58,31.75)"/>
<path d="M0 0 C-4.18461538 4.92307692 -4.18461538 4.92307692 -8.3125 5.3125 C-9.199375 5.209375 -10.08625 5.10625 -11 5 C-11 5.99 -11 6.98 -11 8 C-11.66 8 -12.32 8 -13 8 C-13 6.02 -13 4.04 -13 2 C-8.46298506 0.54815522 -4.81938524 -0.23509196 0 0 Z " fill="#2E1B71" transform="translate(92,95)"/>
<path d="M0 0 C0.66 1.98 1.32 3.96 2 6 C1.443125 6.103125 0.88625 6.20625 0.3125 6.3125 C-3.41353192 7.42023922 -6.26276067 9.26276067 -9 12 C-8.72731607 7.50071511 -5.14466583 0 0 0 Z " fill="#D0AD83" transform="translate(93,54)"/>
<path d="M0 0 C1.32 0 2.64 0 4 0 C3.125 4.875 3.125 4.875 2 6 C0.5444063 6.09858603 -0.91607919 6.12972143 -2.375 6.125 C-3.16648437 6.12757812 -3.95796875 6.13015625 -4.7734375 6.1328125 C-7 6 -7 6 -10 5 C-10.33 4.01 -10.66 3.02 -11 2 C-7.37 2.33 -3.74 2.66 0 3 C0 2.01 0 1.02 0 0 Z " fill="#EFEB39" transform="translate(124,109)"/>
<path d="M0 0 C0.66 1.32 1.32 2.64 2 4 C2.99 3.67 3.98 3.34 5 3 C5.28875 3.639375 5.5775 4.27875 5.875 4.9375 C6.82823451 7.15206079 6.82823451 7.15206079 9 8 C8.01 9.485 8.01 9.485 7 11 C2.7257442 9.4169423 0.73468206 6.49431596 -2 3 C-1.34 2.01 -0.68 1.02 0 0 Z " fill="#BBB2D4" transform="translate(42,86)"/>
<path d="M0 0 C0.33 0 0.66 0 1 0 C1 2.64 1 5.28 1 8 C-2 8 -2 8 -3.5625 6.5 C-4.036875 6.005 -4.51125 5.51 -5 5 C-7.24362573 4.7715451 -7.24362573 4.7715451 -9.125 7 C-9.74375 7.66 -10.3625 8.32 -11 9 C-12 8 -12 8 -12.0625 4.4375 C-12.041875 3.303125 -12.02125 2.16875 -12 1 C-11.34 2.32 -10.68 3.64 -10 5 C-9.54625 4.34 -9.0925 3.68 -8.625 3 C-8.08875 2.34 -7.5525 1.68 -7 1 C-6.34 1 -5.68 1 -5 1 C-5 1.66 -5 2.32 -5 3 C-4.34 3 -3.68 3 -3 3 C-1.375 4.5 -1.375 4.5 0 6 C0 4.02 0 2.04 0 0 Z " fill="#DBA997" transform="translate(37,53)"/>
<path d="M0 0 C1.1446875 0.3403125 1.1446875 0.3403125 2.3125 0.6875 C2.3125 2.3375 2.3125 3.9875 2.3125 5.6875 C0.3325 5.6875 -1.6475 5.6875 -3.6875 5.6875 C-3.6875 6.6775 -3.6875 7.6675 -3.6875 8.6875 C-4.3475 8.6875 -5.0075 8.6875 -5.6875 8.6875 C-6.04825949 3.27610759 -6.04825949 3.27610759 -4.5 0.75 C-2.6875 -0.3125 -2.6875 -0.3125 0 0 Z " fill="#27156B" transform="translate(117.6875,64.3125)"/>
<path d="M0 0 C0.5775 0.20625 1.155 0.4125 1.75 0.625 C-2.8227865 3.67352433 -5.42833079 4.88265879 -11 4.75 C-11.98484375 4.73195313 -12.9696875 4.71390625 -13.984375 4.6953125 C-15.10585938 4.66050781 -15.10585938 4.66050781 -16.25 4.625 C-16.58 5.285 -16.91 5.945 -17.25 6.625 C-17.25 5.305 -17.25 3.985 -17.25 2.625 C-16.50234375 2.57601562 -15.7546875 2.52703125 -14.984375 2.4765625 C-13.99953125 2.40179688 -13.0146875 2.32703125 -12 2.25 C-10.53820312 2.14558594 -10.53820312 2.14558594 -9.046875 2.0390625 C-5.67994835 1.54060688 -3.31365236 -0.55227539 0 0 Z " fill="#C3AA74" transform="translate(37.25,103.375)"/>
<path d="M0 0 C0.598125 0.185625 1.19625 0.37125 1.8125 0.5625 C4.16408762 1.22093687 4.16408762 1.22093687 7 0 C6.773125 0.598125 6.54625 1.19625 6.3125 1.8125 C6.209375 2.534375 6.10625 3.25625 6 4 C6.474375 4.433125 6.94875 4.86625 7.4375 5.3125 C9 7 9 7 9.1875 10.6875 C9.125625 11.780625 9.06375 12.87375 9 14 C6.61327331 11.03716687 4.2646629 8.05729491 2 5 C2.66 5 3.32 5 4 5 C4 4.34 4 3.68 4 3 C3.34 3 2.68 3 2 3 C2 2.34 2 1.68 2 1 C1.34 0.67 0.68 0.34 0 0 Z " fill="#E6823F" transform="translate(99,28)"/>
<path d="M0 0 C2 3.75 2 3.75 2 6 C2.66 6 3.32 6 4 6 C4 6.66 4 7.32 4 8 C4.99 7.67 5.98 7.34 7 7 C7 7.66 7 8.32 7 9 C5.02 9.66 3.04 10.32 1 11 C-0.32 8.03 -1.64 5.06 -3 2 C-2.01 2 -1.02 2 0 2 C0 1.34 0 0.68 0 0 Z " fill="#312172" transform="translate(31,74)"/>
<path d="M0 0 C1.98 0.495 1.98 0.495 4 1 C3.67 3.97 3.34 6.94 3 10 C1.68 10 0.36 10 -1 10 C-0.67 6.7 -0.34 3.4 0 0 Z " fill="#B5895F" transform="translate(74,43)"/>
<path d="M0 0 C5.61 0.66 11.22 1.32 17 2 C16.67 3.32 16.34 4.64 16 6 C16 5.34 16 4.68 16 4 C15.34773438 4.03480469 14.69546875 4.06960937 14.0234375 4.10546875 C8.51434628 4.27610432 4.80761576 4.0363889 0 1 C0 0.67 0 0.34 0 0 Z " fill="#C2A977" transform="translate(112,104)"/>
<path d="M0 0 C0.99 0.99 1.98 1.98 3 3 C2 5 2 5 1 6 C0.67 6.66 0.34 7.32 0 8 C-0.33 8 -0.66 8 -1 8 C-3.16666667 8.83333333 -3.16666667 8.83333333 -4 11 C-4.99 10.34 -5.98 9.68 -7 9 C-5.27404519 5.54809037 -2.71685562 2.71685562 0 0 Z " fill="#B3A9CF" transform="translate(107,84)"/>
<path d="M0 0 C1.98 0.495 1.98 0.495 4 1 C3.67 4.63 3.34 8.26 3 12 C-0.91309271 8.08690729 -0.65319567 6.37546719 -1 1 C-0.67 0.67 -0.34 0.34 0 0 Z " fill="#F9FCFA" transform="translate(104,43)"/>
<path d="M0 0 C5.61 0.33 11.22 0.66 17 1 C17.33 1.99 17.66 2.98 18 4 C11.28299653 4.31985731 6.24273068 3.4793824 0 1 C0 0.67 0 0.34 0 0 Z " fill="#F1E91A" transform="translate(83,117)"/>
<path d="M0 0 C1.65 1.65 3.3 3.3 5 5 C4.01 5.495 4.01 5.495 3 6 C0.82717431 7.76826954 0.82717431 7.76826954 0.734375 9.98046875 C0.74859385 11.98888143 0.86857975 13.99584122 1 16 C-0.32 15.34 -1.64 14.68 -3 14 C-2.01 9.38 -1.02 4.76 0 0 Z " fill="#392B7C" transform="translate(112,59)"/>
<path d="M0 0 C0.66 0.33 1.32 0.66 2 1 C1.484375 1.495 0.96875 1.99 0.4375 2.5 C-1.7171081 6.24714452 -0.76845154 8.80844613 0 13 C-0.99 13 -1.98 13 -3 13 C-3 11.68 -3 10.36 -3 9 C-4.32 9.33 -5.64 9.66 -7 10 C-5.50867052 5.27745665 -5.50867052 5.27745665 -2.9375 3.875 C-2.298125 3.58625 -1.65875 3.2975 -1 3 C-0.67 2.01 -0.34 1.02 0 0 Z " fill="#BE8058" transform="translate(70,40)"/>
<path d="M0 0 C0.99 0.33 1.98 0.66 3 1 C3.33 2.65 3.66 4.3 4 6 C3.01 6.33 2.02 6.66 1 7 C1.83333333 9.16666667 1.83333333 9.16666667 4 10 C3.34 10.66 2.68 11.32 2 12 C1.01 12 0.02 12 -1 12 C-1.33 10.02 -1.66 8.04 -2 6 C-0.68 5.34 0.64 4.68 2 4 C2 3.34 2 2.68 2 2 C1.34 2 0.68 2 0 2 C0 1.34 0 0.68 0 0 Z " fill="#27136A" transform="translate(30,57)"/>
<path d="M0 0 C1.98 0 3.96 0 6 0 C5.04516151 2.45529899 4.08052812 4.84341754 2.875 7.1875 C1.85508364 8.96474133 1.85508364 8.96474133 2 11 C1.34 11 0.68 11 0 11 C0 7.37 0 3.74 0 0 Z " fill="#D69D77" transform="translate(80,56)"/>
<path d="M0 0 C-0.33 0.99 -0.66 1.98 -1 3 C-1.66 3 -2.32 3 -3 3 C-3.33 3.99 -3.66 4.98 -4 6 C-4.33 4.68 -4.66 3.36 -5 2 C-6.1446875 2.495 -6.1446875 2.495 -7.3125 3 C-10 4 -10 4 -13 4 C-10.72674319 1.28957842 -9.40421209 0.10723994 -5.9375 -0.8125 C-3 -1 -3 -1 0 0 Z " fill="#D5D9DB" transform="translate(103,83)"/>
<path d="M0 0 C1.2065625 0.0309375 1.2065625 0.0309375 2.4375 0.0625 C2.4375 0.7225 2.4375 1.3825 2.4375 2.0625 C4.4175 2.7225 6.3975 3.3825 8.4375 4.0625 C8.4375 4.3925 8.4375 4.7225 8.4375 5.0625 C5.7975 5.3925 3.1575 5.7225 0.4375 6.0625 C0.4375 5.4025 0.4375 4.7425 0.4375 4.0625 C-0.5525 4.3925 -1.5425 4.7225 -2.5625 5.0625 C-3.125 3.125 -3.125 3.125 -3.5625 1.0625 C-2.5625 0.0625 -2.5625 0.0625 0 0 Z " fill="#CAAD35" transform="translate(43.5625,104.9375)"/>
<path d="M0 0 C2.31 0 4.62 0 7 0 C7 1.98 7 3.96 7 6 C6.34 6 5.68 6 5 6 C4.67 6.66 4.34 7.32 4 8 C3.67 6.68 3.34 5.36 3 4 C2.01 4 1.02 4 0 4 C0 2.68 0 1.36 0 0 Z " fill="#DBDFDB" transform="translate(83,78)"/>
<path d="M0 0 C0.33 0 0.66 0 1 0 C1.66 3.96 2.32 7.92 3 12 C2.34 12 1.68 12 1 12 C0.67 12.66 0.34 13.32 0 14 C-1.32 13.67 -2.64 13.34 -4 13 C-3.525625 12.525625 -3.05125 12.05125 -2.5625 11.5625 C-0.31923904 7.88355203 -0.26260422 4.2378888 0 0 Z " fill="#504186" transform="translate(37,63)"/>
<path d="M0 0 C2.64 0.33 5.28 0.66 8 1 C8.33 2.98 8.66 4.96 9 7 C6.69 6.01 4.38 5.02 2 4 C2 3.01 2 2.02 2 1 C1.34 0.67 0.68 0.34 0 0 Z " fill="#B9B1D2" transform="translate(58,98)"/>
<path d="M0 0 C1.65 1.65 3.3 3.3 5 5 C4.67 5.99 4.34 6.98 4 8 C4 7.34 4 6.68 4 6 C3.34 6 2.68 6 2 6 C2 6.66 2 7.32 2 8 C0.02 8 -1.96 8 -4 8 C-3.34 7.67 -2.68 7.34 -2 7 C-2 6.01 -2 5.02 -2 4 C-1.67 3.67 -1.34 3.34 -1 3 C-0.67 2.01 -0.34 1.02 0 0 Z " fill="#D3AE82" transform="translate(88,45)"/>
<path d="M0 0 C2 2 2 2 2.5 4.5625 C2.665 5.366875 2.83 6.17125 3 7 C3.66 7.33 4.32 7.66 5 8 C5 8.66 5 9.32 5 10 C5.99 10.33 6.98 10.66 8 11 C5.75 11.75 5.75 11.75 3 12 C0.6875 10.0625 0.6875 10.0625 -1 8 C-0.34 8 0.32 8 1 8 C0.67 7.34 0.34 6.68 0 6 C-0.039992 4.00039988 -0.04346799 1.99952758 0 0 Z " fill="#E0E7E8" transform="translate(49,78)"/>
<path d="M0 0 C0.66 0 1.32 0 2 0 C2 0.66 2 1.32 2 2 C2.99 2.33 3.98 2.66 5 3 C6.38671875 4.62890625 6.38671875 4.62890625 7.6875 6.5625 C8.34298828 7.52349609 8.34298828 7.52349609 9.01171875 8.50390625 C9.50091797 9.24447266 9.50091797 9.24447266 10 10 C9.67 10.66 9.34 11.32 9 12 C8 11 7 10 6 9 C5.443125 8.505 4.88625 8.01 4.3125 7.5 C3 6 3 6 3 3 C1.02 3.99 1.02 3.99 -1 5 C-0.67 3.35 -0.34 1.7 0 0 Z " fill="#AE9E6F" transform="translate(90,51)"/>
<path d="M0 0 C2.71435596 0.93305986 3.78043163 1.62673377 5.25 4.125 C5.4975 4.74375 5.745 5.3625 6 6 C4.35 6.66 2.7 7.32 1 8 C0.67 7.01 0.34 6.02 0 5 C0.66 4.01 1.32 3.02 2 2 C0.02 2.99 0.02 2.99 -2 4 C-2 3.01 -2 2.02 -2 1 C-1.34 0.67 -0.68 0.34 0 0 Z " fill="#F2BE98" transform="translate(104,26)"/>
<path d="M0 0 C0.99 0.66 1.98 1.32 3 2 C2.67 2.66 2.34 3.32 2 4 C0.0625 3.625 0.0625 3.625 -2 3 C-2.33 2.34 -2.66 1.68 -3 1 C-3.99 1.495 -3.99 1.495 -5 2 C-5 1.34 -5 0.68 -5 0 C-6.65 0.33 -8.3 0.66 -10 1 C-10 0.34 -10 -0.32 -10 -1 C-6.01727361 -2.32757546 -3.9189808 -1.3296542 0 0 Z " fill="#C19728" transform="translate(113,107)"/>
<path d="M0 0 C2.1875 -0.4375 2.1875 -0.4375 5 0 C7.02282729 2.18137321 8.4108284 4.45732544 10 7 C5.545 6.01 5.545 6.01 1 5 C1.33 3.68 1.66 2.36 2 1 C1.34 0.67 0.68 0.34 0 0 Z " fill="#F3F011" transform="translate(44,103)"/>
<path d="M0 0 C0.66 0.99 1.32 1.98 2 3 C1.38125 3.28875 0.7625 3.5775 0.125 3.875 C-2.13325765 4.93720042 -2.13325765 4.93720042 -4 7 C-4.12375 6.195625 -4.2475 5.39125 -4.375 4.5625 C-4.684375 3.2940625 -4.684375 3.2940625 -5 2 C-5.66 1.67 -6.32 1.34 -7 1 C-4.46578263 -0.26710868 -2.80561762 -0.28056176 0 0 Z " fill="#9B93B9" transform="translate(102,93)"/>
<path d="M0 0 C0.66 0 1.32 0 2 0 C2 0.66 2 1.32 2 2 C2.99 2.33 3.98 2.66 5 3 C4.67 4.32 4.34 5.64 4 7 C3.34 6.01 2.68 5.02 2 4 C1.38125 4.99 0.7625 5.98 0.125 7 C-0.57625 7.99 -1.2775 8.98 -2 10 C-2.66 10 -3.32 10 -4 10 C-2.8905928 6.51329166 -1.73662334 3.22515763 0 0 Z " fill="#ACA371" transform="translate(56,58)"/>
<path d="M0 0 C3 1 3 1 4 3 C4.039992 4.99960012 4.04346799 7.00047242 4 9 C3.34 9 2.68 9 2 9 C-1.11450382 4.84732824 -1.11450382 4.84732824 -0.6875 1.6875 C-0.460625 1.130625 -0.23375 0.57375 0 0 Z " fill="#E47225" transform="translate(114,32)"/>
<path d="M0 0 C0.66 0 1.32 0 2 0 C2 1.32 2 2.64 2 4 C-2.625 6.125 -2.625 6.125 -6 5 C-5.67 3.68 -5.34 2.36 -5 1 C-3.35 1.33 -1.7 1.66 0 2 C0 1.34 0 0.68 0 0 Z " fill="#D6BD26" transform="translate(37,107)"/>
<path d="M0 0 C0.66 0.66 1.32 1.32 2 2 C1.625 4.625 1.625 4.625 1 7 C-0.65 7 -2.3 7 -4 7 C-3.43628586 3.73045798 -2.50037734 2.17424117 0 0 Z " fill="#E6E9E9" transform="translate(101,64)"/>
<path d="M0 0 C0.99 0 1.98 0 3 0 C2.67 2.97 2.34 5.94 2 9 C1.34 9 0.68 9 0 9 C-0.84454356 5.62182575 -1.10844919 3.32534757 0 0 Z " fill="#E17513" transform="translate(71,44)"/>
<path d="M0 0 C2 3 2 3 2 5 C2.99 5 3.98 5 5 5 C4.67 5.99 4.34 6.98 4 8 C1.03 6.35 -1.94 4.7 -5 3 C-5 2.34 -5 1.68 -5 1 C-3.35 0.67 -1.7 0.34 0 0 Z " fill="#DC8869" transform="translate(81,37)"/>
<path d="M0 0 C2.31 0 4.62 0 7 0 C7.33 1.32 7.66 2.64 8 4 C6.68 4.33 5.36 4.66 4 5 C3.67 3.68 3.34 2.36 3 1 C2.34 1 1.68 1 1 1 C0.67 1.99 0.34 2.98 0 4 C0 2.68 0 1.36 0 0 Z " fill="#DDC023" transform="translate(21,108)"/>
<path d="M0 0 C1.65 0 3.3 0 5 0 C4.34 3.3 3.68 6.6 3 10 C1.19669467 6.39338934 0.53400897 3.91606575 0 0 Z " fill="#9488B5" transform="translate(114,70)"/>
<path d="M0 0 C0.66 0.33 1.32 0.66 2 1 C1.67 1.99 1.34 2.98 1 4 C3.31 4.66 5.62 5.32 8 6 C8 6.33 8 6.66 8 7 C2.62694301 7.96891192 2.62694301 7.96891192 0 8 C-2 6.5625 -2 6.5625 -3 5 C-2.01 5 -1.02 5 0 5 C0 3.35 0 1.7 0 0 Z " fill="#493C83" transform="translate(53,97)"/>
<path d="M0 0 C0.33 1.65 0.66 3.3 1 5 C0.34 4.67 -0.32 4.34 -1 4 C-1.33 4.66 -1.66 5.32 -2 6 C-3.32 6 -4.64 6 -6 6 C-6.33 5.01 -6.66 4.02 -7 3 C-3.375 0 -3.375 0 0 0 Z " fill="#BCB2D7" transform="translate(97,95)"/>
<path d="M0 0 C0.99 0.66 1.98 1.32 3 2 C3.4375 4.9375 3.4375 4.9375 3 8 C1 9.875 1 9.875 -1 11 C-1 10.34 -1 9.68 -1 9 C-1.99 8.67 -2.98 8.34 -4 8 C-2.68 7.67 -1.36 7.34 0 7 C0.93423645 3.98968256 1.04449911 3.13349732 0 0 Z " fill="#483880" transform="translate(104,89)"/>
<path d="M0 0 C1.65 0 3.3 0 5 0 C4.375 2.4375 4.375 2.4375 3 5 C-0.125 5.8125 -0.125 5.8125 -3 6 C-3 5.34 -3 4.68 -3 4 C-2.34 3.67 -1.68 3.34 -1 3 C-0.67 2.01 -0.34 1.02 0 0 Z " fill="#F6F422" transform="translate(99,103)"/>
<path d="M0 0 C0 4.08041302 -1.64022646 5.51126802 -4.265625 8.48046875 C-6.69055102 10.60500979 -8.8300779 10.92452566 -12 11 C-9.72403696 8.66678003 -7.33714502 6.5100704 -4.875 4.375 C-2.38509932 2.24398756 -2.38509932 2.24398756 0 0 Z " fill="#D4CDDC" transform="translate(111,92)"/>
<path d="M0 0 C4.875 2.75 4.875 2.75 6 5 C5.34 5 4.68 5 4 5 C3.67 5.66 3.34 6.32 3 7 C1.02 5.68 -0.96 4.36 -3 3 C-2.01 2.01 -1.02 1.02 0 0 Z " fill="#E27128" transform="translate(102,19)"/>
<path d="M0 0 C-0.33 0.99 -0.66 1.98 -1 3 C-6.94 2.01 -6.94 2.01 -13 1 C-13 0.67 -13 0.34 -13 0 C-4.57142857 -1.28571429 -4.57142857 -1.28571429 0 0 Z " fill="#F9E8D7" transform="translate(93,10)"/>
<path d="M0 0 C0 0.99 0 1.98 0 3 C1.32 3.33 2.64 3.66 4 4 C1.36 4 -1.28 4 -4 4 C-4 4.66 -4 5.32 -4 6 C-4.66 6 -5.32 6 -6 6 C-5.67 4.35 -5.34 2.7 -5 1 C-2 0 -2 0 0 0 Z " fill="#706556" transform="translate(87,74)"/>
<path d="M0 0 C3.65316671 1.24976756 4.78065836 1.67098753 7 5 C5.906875 4.773125 4.81375 4.54625 3.6875 4.3125 C0.09468727 3.59853617 0.09468727 3.59853617 -1.9375 5.4375 C-2.288125 5.953125 -2.63875 6.46875 -3 7 C-3.66 6.67 -4.32 6.34 -5 6 C-3.35 4.02 -1.7 2.04 0 0 Z " fill="#AAA36F" transform="translate(74,74)"/>
<path d="M0 0 C0.33 0.66 0.66 1.32 1 2 C2.98 2 4.96 2 7 2 C7 3.32 7 4.64 7 6 C4.625 6.1875 4.625 6.1875 2 6 C0 3 0 3 0 0 Z " fill="#DCB189" transform="translate(59,57)"/>
<path d="M0 0 C0.99 0.33 1.98 0.66 3 1 C3.33 1.99 3.66 2.98 4 4 C4.99 4.33 5.98 4.66 7 5 C6.67 5.99 6.34 6.98 6 8 C3.03 7.505 3.03 7.505 0 7 C0 4.69 0 2.38 0 0 Z " fill="#7F6E57" transform="translate(103,52)"/>
<path d="M0 0 C0.99 0 1.98 0 3 0 C3 0.66 3 1.32 3 2 C4.32 1.67 5.64 1.34 7 1 C7 2.32 7 3.64 7 5 C5.02 5 3.04 5 1 5 C0.67 3.35 0.34 1.7 0 0 Z " fill="#D69A76" transform="translate(60,48)"/>
<path d="M0 0 C2.4375 0.375 2.4375 0.375 5 1 C5.33 1.66 5.66 2.32 6 3 C4.68 2.67 3.36 2.34 2 2 C2.33 3.32 2.66 4.64 3 6 C1.02 5.34 -0.96 4.68 -3 4 C-2.34 3.67 -1.68 3.34 -1 3 C-0.67 2.01 -0.34 1.02 0 0 Z " fill="#F1B68C" transform="translate(94,20)"/>
<path d="M0 0 C0 1.65 0 3.3 0 5 C-2.31 4.67 -4.62 4.34 -7 4 C-7 3.01 -7 2.02 -7 1 C-4 0 -4 0 0 0 Z " fill="#DD8E10" transform="translate(63,113)"/>
<path d="M0 0 C2.3431213 0.25561323 4.67843403 0.59270772 7 1 C7.33 1.66 7.66 2.32 8 3 C5.59454362 4.20272819 4.05003047 4.10071472 1.375 4.0625 C0.14910156 4.04896484 0.14910156 4.04896484 -1.1015625 4.03515625 C-2.04128906 4.01775391 -2.04128906 4.01775391 -3 4 C-2.01 2.68 -1.02 1.36 0 0 Z " fill="#ECECD7" transform="translate(95,109)"/>
<path d="M0 0 C1.8141927 0.28094582 3.62635001 0.57506433 5.4375 0.875 C6.95150391 1.11863281 6.95150391 1.11863281 8.49609375 1.3671875 C9.32238281 1.57601562 10.14867188 1.78484375 11 2 C11.33 2.66 11.66 3.32 12 4 C9.36 4.33 6.72 4.66 4 5 C4 4.34 4 3.68 4 3 C2.68 2.34 1.36 1.68 0 1 C0 0.67 0 0.34 0 0 Z " fill="#F0EEF3" transform="translate(55,106)"/>
<path d="M0 0 C6.625 -0.125 6.625 -0.125 10 1 C10 1.66 10 2.32 10 3 C3.375 3.125 3.375 3.125 0 2 C0 1.34 0 0.68 0 0 Z " fill="#352477" transform="translate(55,104)"/>
<path d="M0 0 C2.875 0.25 2.875 0.25 6 1 C7.375 3.0625 7.375 3.0625 8 5 C7.34 5 6.68 5 6 5 C6 4.34 6 3.68 6 3 C1.545 3.495 1.545 3.495 -3 4 C-2.01 2.68 -1.02 1.36 0 0 Z " fill="#E0DBAC" transform="translate(43,100)"/>
<path d="M0 0 C1.98 1.65 3.96 3.3 6 5 C5.01 5.495 5.01 5.495 4 6 C4 6.66 4 7.32 4 8 C4.66 8 5.32 8 6 8 C5.67 8.66 5.34 9.32 5 10 C3.0625 9.5 3.0625 9.5 1 8 C0.31209578 5.30341548 0.18053536 2.7982981 0 0 Z " fill="#423278" transform="translate(46,84)"/>
<path d="M0 0 C1.98 0 3.96 0 6 0 C5.01 0.495 5.01 0.495 4 1 C4.66 1.33 5.32 1.66 6 2 C5.67 2.99 5.34 3.98 5 5 C3.02 5 1.04 5 -1 5 C-0.67 3.35 -0.34 1.7 0 0 Z " fill="#BA8173" transform="translate(91,74)"/>
<path d="M0 0 C1.32 0.66 2.64 1.32 4 2 C4 3.98 4 5.96 4 8 C3.34 8 2.68 8 2 8 C2 7.01 2 6.02 2 5 C0.68 4.67 -0.64 4.34 -2 4 C-1.33333333 2.66666667 -0.66666667 1.33333333 0 0 Z " fill="#B89678" transform="translate(46,64)"/>
<path d="M0 0 C1.32 0.33 2.64 0.66 4 1 C3.34 2.65 2.68 4.3 2 6 C0.68 6 -0.64 6 -2 6 C-2.33 5.01 -2.66 4.02 -3 3 C-2.34 3 -1.68 3 -1 3 C-0.67 2.01 -0.34 1.02 0 0 Z " fill="#F3C6A4" transform="translate(58,15)"/>
<path d="M0 0 C1.32 0 2.64 0 4 0 C4 2.31 4 4.62 4 7 C3.67 5.68 3.34 4.36 3 3 C2.34 3 1.68 3 1 3 C1 3.66 1 4.32 1 5 C0.01 5 -0.98 5 -2 5 C-2 4.01 -2 3.02 -2 2 C-1.34 2 -0.68 2 0 2 C0 1.34 0 0.68 0 0 Z " fill="#F2C9AA" transform="translate(66,13)"/>
<path d="M0 0 C1.99954746 -0.04254356 4.00041636 -0.04080783 6 0 C7 1 7 1 7.0625 3.5625 C7.041875 4.366875 7.02125 5.17125 7 6 C6.01 6 5.02 6 4 6 C4.33 4.68 4.66 3.36 5 2 C3.35 2 1.7 2 0 2 C0 1.34 0 0.68 0 0 Z " fill="#54231A" transform="translate(61,57)"/>
<path d="M0 0 C2 1 2 1 3.1875 4.3125 C3.90649268 7.57562063 4.20286847 8.99282882 3 12 C2.67 10.02 2.34 8.04 2 6 C1.01 6.33 0.02 6.66 -1 7 C-0.67 4.69 -0.34 2.38 0 0 Z " fill="#E17834" transform="translate(119,40)"/>
<path d="M0 0 C0.99 0.33 1.98 0.66 3 1 C2.34 2.98 1.68 4.96 1 7 C-0.32 6.34 -1.64 5.68 -3 5 C-1.125 1.125 -1.125 1.125 0 0 Z " fill="#F3BC93" transform="translate(41,27)"/>
<path d="M0 0 C2.17854707 3.2678206 3.49760034 6.38058265 5 10 C4.01 10.495 4.01 10.495 3 11 C-0.875 5.25 -0.875 5.25 -2 3 C-1.34 3 -0.68 3 0 3 C0 2.01 0 1.02 0 0 Z " fill="#F3F4F2" transform="translate(47,69)"/>
<path d="M0 0 C2 1.3125 2 1.3125 4 3 C4 3.99 4 4.98 4 6 C2.02 6.33 0.04 6.66 -2 7 C-1.34 6.67 -0.68 6.34 0 6 C0 4.02 0 2.04 0 0 Z " fill="#E08463" transform="translate(82,46)"/>
<path d="M0 0 C1.65 0.33 3.3 0.66 5 1 C5.33 1.99 5.66 2.98 6 4 C3 4 0 4 -3 4 C-2.01 2.68 -1.02 1.36 0 0 Z " fill="#ECAB7C" transform="translate(84,17)"/>
<path d="M0 0 C-2.83430453 3.2542015 -4.68607774 4.5206753 -9 5 C-8.67 4.34 -8.34 3.68 -8 3 C-7.01 3 -6.02 3 -5 3 C-5 2.34 -5 1.68 -5 1 C-6.32 1.33 -7.64 1.66 -9 2 C-6.98558063 -2.02883874 -3.72407517 -0.90585612 0 0 Z " fill="#E78645" transform="translate(61,14)"/>
<path d="M0 0 C2.64 0.33 5.28 0.66 8 1 C7.67 1.99 7.34 2.98 7 4 C5.35 4 3.7 4 2 4 C2 3.34 2 2.68 2 2 C1.34 2 0.68 2 0 2 C0 1.34 0 0.68 0 0 Z " fill="#C49A2C" transform="translate(117,109)"/>
<path d="M0 0 C0.99 0 1.98 0 3 0 C2.39816251 2.02045442 1.72693904 4.02111039 1 6 C0.01 6.495 0.01 6.495 -1 7 C-1.625 5.1875 -1.625 5.1875 -2 3 C-1.34 2.01 -0.68 1.02 0 0 Z " fill="#2D1A6E" transform="translate(109,74)"/>
<path d="M0 0 C0.66 0 1.32 0 2 0 C2.33 2.31 2.66 4.62 3 7 C1.68 6.34 0.36 5.68 -1 5 C-1 1 -1 1 0 0 Z " fill="#D4B08B" transform="translate(67,63)"/>
<path d="M0 0 C0.33 0 0.66 0 1 0 C1 1.98 1 3.96 1 6 C1.99 6 2.98 6 4 6 C2.84826645 8.46800047 1.95216435 10.04783565 0 12 C0 8.04 0 4.08 0 0 Z " fill="#E37224" transform="translate(26,48)"/>
<path d="M0 0 C0.33 0 0.66 0 1 0 C2.42857143 8.57142857 2.42857143 8.57142857 0 12 C-0.66 9.36 -1.32 6.72 -2 4 C-1.34 4 -0.68 4 0 4 C0 2.68 0 1.36 0 0 Z " fill="#E27A33" transform="translate(110,38)"/>
<path d="M0 0 C0.99 0.33 1.98 0.66 3 1 C3 2.65 3 4.3 3 6 C1.68 6.33 0.36 6.66 -1 7 C-0.67 4.69 -0.34 2.38 0 0 Z " fill="#E0E2E4" transform="translate(46,40)"/>
<path d="M0 0 C0.33 0.99 0.66 1.98 1 3 C2.98 2.67 4.96 2.34 7 2 C7 2.99 7 3.98 7 5 C3.71303767 5.79953138 2.28976808 6.09658936 -1 5 C-0.67 3.35 -0.34 1.7 0 0 Z " fill="#E57831" transform="translate(60,18)"/>
<path d="M0 0 C2.97 0 5.94 0 9 0 C8.67 0.99 8.34 1.98 8 3 C5.36 2.67 2.72 2.34 0 2 C0 1.34 0 0.68 0 0 Z " fill="#F0EBE4" transform="translate(46,110)"/>
<path d="M0 0 C1.65 0 3.3 0 5 0 C5 0.99 5 1.98 5 3 C4.01 3 3.02 3 2 3 C2 3.99 2 4.98 2 6 C1.34 6 0.68 6 0 6 C0 4.02 0 2.04 0 0 Z " fill="#241268" transform="translate(79,97)"/>
<path d="M0 0 C2.475 0.99 2.475 0.99 5 2 C4.34 3.65 3.68 5.3 3 7 C2.34 5.68 1.68 4.36 1 3 C0.67 3.99 0.34 4.98 0 6 C-1.24546405 3.50907189 -0.7767578 2.58919267 0 0 Z " fill="#B6AFD4" transform="translate(52,94)"/>
<path d="M0 0 C1.65 0 3.3 0 5 0 C5.33 1.32 5.66 2.64 6 4 C4.02 4 2.04 4 0 4 C0 2.68 0 1.36 0 0 Z " fill="#AA9FC6" transform="translate(30,69)"/>
<path d="M0 0 C0.33 0.66 0.66 1.32 1 2 C3.31 2 5.62 2 8 2 C7.67 2.66 7.34 3.32 7 4 C4.36 4 1.72 4 -1 4 C-1.33 3.34 -1.66 2.68 -2 2 C-1.34 2 -0.68 2 0 2 C0 1.34 0 0.68 0 0 Z " fill="#D2A77D" transform="translate(95,70)"/>
<path d="M0 0 C2.72869407 0.03287583 5.2966618 0.56397771 8 1 C5.66785852 2.20628008 3.50357861 3.1654738 1 4 C0.01 3.34 -0.98 2.68 -2 2 C-1.34 1.34 -0.68 0.68 0 0 Z " fill="#DDA67F" transform="translate(78,35)"/>
<path d="M0 0 C1.65 0 3.3 0 5 0 C4.01 0.33 3.02 0.66 2 1 C2.33 2.65 2.66 4.3 3 6 C1.68 5.67 0.36 5.34 -1 5 C-0.67 3.35 -0.34 1.7 0 0 Z " fill="#E6B183" transform="translate(71,31)"/>
<path d="M0 0 C3.3 0.33 6.6 0.66 10 1 C10 1.66 10 2.32 10 3 C2.25 2.25 2.25 2.25 0 0 Z " fill="#F3D905" transform="translate(76,114)"/>
<path d="M0 0 C2.97 0 5.94 0 9 0 C9 2.64 9 5.28 9 8 C8.67 8 8.34 8 8 8 C7.34 6.02 6.68 4.04 6 2 C3.03 1.505 3.03 1.505 0 1 C0 0.67 0 0.34 0 0 Z " fill="#C9B85A" transform="translate(96,109)"/>
<path d="M0 0 C-1.1875 1.5 -1.1875 1.5 -3 3 C-5.6875 3.1875 -5.6875 3.1875 -8 3 C-8.33 2.34 -8.66 1.68 -9 1 C-5.8035914 -0.06546953 -3.34252724 -0.07427838 0 0 Z " fill="#210E69" transform="translate(80,106)"/>
<path d="M0 0 C0.66 0 1.32 0 2 0 C2.33 1.98 2.66 3.96 3 6 C1.02 6 -0.96 6 -3 6 C-2.01 5.67 -1.02 5.34 0 5 C-0.2784375 4.0409375 -0.2784375 4.0409375 -0.5625 3.0625 C-0.706875 2.381875 -0.85125 1.70125 -1 1 C-0.67 0.67 -0.34 0.34 0 0 Z " fill="#8B80AF" transform="translate(77,100)"/>
<path d="M0 0 C0.99 0.33 1.98 0.66 3 1 C3 2.98 3 4.96 3 7 C2.34 7 1.68 7 1 7 C-0.0625 4.625 -0.0625 4.625 -1 2 C-0.67 1.34 -0.34 0.68 0 0 Z " fill="#493984" transform="translate(109,82)"/>
<path d="M0 0 C2 1.8125 2 1.8125 4 4 C4 4.99 4 5.98 4 7 C3.01 7 2.02 7 1 7 C0.67 4.69 0.34 2.38 0 0 Z " fill="#271769" transform="translate(27,69)"/>
<path d="M0 0 C2.31 0.33 4.62 0.66 7 1 C6.67 1.66 6.34 2.32 6 3 C5.34 3 4.68 3 4 3 C3.67 3.66 3.34 4.32 3 5 C2.01 4.67 1.02 4.34 0 4 C0 2.68 0 1.36 0 0 Z " fill="#7E7056" transform="translate(91,45)"/>
<path d="M0 0 C2 0 4 0 6 0 C6 0.66 6 1.32 6 2 C4.37373596 3.38232443 2.7074998 4.71937515 1 6 C0 5 0 5 -0.0625 2.4375 C-0.041875 1.633125 -0.02125 0.82875 0 0 Z " fill="#BA9367" transform="translate(74,33)"/>
<path d="M0 0 C0.66 0.33 1.32 0.66 2 1 C2 1.66 2 2.32 2 3 C1.01 3 0.02 3 -1 3 C-1 3.99 -1 4.98 -1 6 C-1.66 6 -2.32 6 -3 6 C-3 6.66 -3 7.32 -3 8 C-3.66 7.67 -4.32 7.34 -5 7 C-4.67 5.68 -4.34 4.36 -4 3 C-3.67 3.33 -3.34 3.66 -3 4 C-2.01 2.68 -1.02 1.36 0 0 Z " fill="#E78F53" transform="translate(44,29)"/>
<path d="M0 0 C2.97 0.33 5.94 0.66 9 1 C8.67 1.66 8.34 2.32 8 3 C5.03 3 2.06 3 -1 3 C-0.67 2.01 -0.34 1.02 0 0 Z " fill="#D87E15" transform="translate(87,114)"/>
<path d="M0 0 C0.33 0 0.66 0 1 0 C1.125 5.75 1.125 5.75 0 8 C-0.66 8 -1.32 8 -2 8 C-2 6.02 -2 4.04 -2 2 C-1.34 2 -0.68 2 0 2 C0 1.34 0 0.68 0 0 Z " fill="#FAF208" transform="translate(103,112)"/>
<path d="M0 0 C0.66 1.32 1.32 2.64 2 4 C2.66 4 3.32 4 4 4 C3.67 4.99 3.34 5.98 3 7 C1.0625 6.1875 1.0625 6.1875 -1 5 C-1.33 4.01 -1.66 3.02 -2 2 C-1.34 1.34 -0.68 0.68 0 0 Z " fill="#CBC3DC" transform="translate(42,86)"/>
<path d="M0 0 C2.02045442 0.60183749 4.02111039 1.27306096 6 2 C6.33 2.66 6.66 3.32 7 4 C5.02 4.33 3.04 4.66 1 5 C0.67 3.35 0.34 1.7 0 0 Z " fill="#D7A77F" transform="translate(82,68)"/>
<path d="M0 0 C0.99 0.33 1.98 0.66 3 1 C2.67 2.32 2.34 3.64 2 5 C0.68 4.67 -0.64 4.34 -2 4 C-1.34 2.68 -0.68 1.36 0 0 Z " fill="#E3B186" transform="translate(62,43)"/>
<path d="M0 0 C1.98 0 3.96 0 6 0 C5.34 1.32 4.68 2.64 4 4 C2.68 4 1.36 4 0 4 C0 2.68 0 1.36 0 0 Z " fill="#E39514" transform="translate(67,111)"/>
<path d="M0 0 C1.32 0 2.64 0 4 0 C3.67 0.99 3.34 1.98 3 3 C0.4375 4.1875 0.4375 4.1875 -2 5 C-1.34 3.35 -0.68 1.7 0 0 Z " fill="#271570" transform="translate(99,98)"/>
<path d="M0 0 C0.99 0.33 1.98 0.66 3 1 C2.625 3.4375 2.625 3.4375 2 6 C1.01 6.495 1.01 6.495 0 7 C0 4.69 0 2.38 0 0 Z " fill="#F2F3F2" transform="translate(84,81)"/>
<path d="M0 0 C0.66 0 1.32 0 2 0 C2 0.66 2 1.32 2 2 C2.99 1.67 3.98 1.34 5 1 C5 1.66 5 2.32 5 3 C3.02 3.66 1.04 4.32 -1 5 C-1.33 4.01 -1.66 3.02 -2 2 C-1.34 2 -0.68 2 0 2 C0 1.34 0 0.68 0 0 Z " fill="#4D3E82" transform="translate(33,80)"/>
<path d="M0 0 C1.65 0 3.3 0 5 0 C4.01 1.485 4.01 1.485 3 3 C3.99 3 4.98 3 6 3 C6 3.66 6 4.32 6 5 C4.35 5 2.7 5 1 5 C0.67 3.35 0.34 1.7 0 0 Z " fill="#C7BEDE" transform="translate(31,73)"/>
<path d="M0 0 C0.66 0.33 1.32 0.66 2 1 C2.59355614 3.64860427 2.74209269 6.29197322 3 9 C2.34 7.68 1.68 6.36 1 5 C0.34 5 -0.32 5 -1 5 C-0.67 3.35 -0.34 1.7 0 0 Z " fill="#E9EAEA" transform="translate(101,43)"/>
<path d="M0 0 C1.98 0.495 1.98 0.495 4 1 C4.33 2.32 4.66 3.64 5 5 C4.34 4.34 3.68 3.68 3 3 C1.68 3 0.36 3 -1 3 C-0.67 2.01 -0.34 1.02 0 0 Z " fill="#E4B88E" transform="translate(86,43)"/>
<path d="M0 0 C0.66 0.33 1.32 0.66 2 1 C2 1.66 2 2.32 2 3 C3.32 2.67 4.64 2.34 6 2 C5.34 3.65 4.68 5.3 4 7 C3.67 6.01 3.34 5.02 3 4 C0.98491642 3.26676204 0.98491642 3.26676204 -1 3 C-0.67 2.01 -0.34 1.02 0 0 Z " fill="#EC9D68" transform="translate(33,37)"/>
<path d="M0 0 C2.125 0.9375 2.125 0.9375 4 2 C1.24075815 3.80411967 0.11027897 4.0127245 -3.25 3.625 C-4.1575 3.41875 -5.065 3.2125 -6 3 C-4 2 -2 1 0 0 Z " fill="#E07935" transform="translate(87,20)"/>
</svg>
