<?xml version="1.0" encoding="UTF-8"?>
<svg version="1.1" xmlns="http://www.w3.org/2000/svg" width="358" height="279">
<path d="M0 0 C118.14 0 236.28 0 358 0 C358 92.07 358 184.14 358 279 C239.86 279 121.72 279 0 279 C0 186.93 0 94.86 0 0 Z " fill="#FEFEFE" transform="translate(0,0)"/>
<path d="M0 0 C19.47 0 38.94 0 59 0 C59 28.05 59 56.1 59 85 C39.53 85 20.06 85 0 85 C0 56.95 0 28.9 0 0 Z " fill="#211E1F" transform="translate(152,41)"/>
<path d="M0 0 C81.18 0 162.36 0 246 0 C246.99 1.98 246.99 1.98 248 4 C202.46 4.495 202.46 4.495 156 5 C154.58221707 7.83556587 155.13742378 9.9908706 155.4375 13.125 C155.59025391 14.76855469 155.59025391 14.76855469 155.74609375 16.4453125 C155.82988281 17.28835937 155.91367188 18.13140625 156 19 C157.65 19.33 159.3 19.66 161 20 C161.33 16.04 161.66 12.08 162 8 C162.99 8 163.98 8 165 8 C165 7.34 165 6.68 165 6 C164.01 5.505 164.01 5.505 163 5 C171.38856185 4.93042618 179.77700273 4.87715148 188.16578197 4.84456348 C192.06122736 4.82892122 195.95647503 4.80770959 199.85180664 4.77368164 C203.61248525 4.74103632 207.37297394 4.72313615 211.13378334 4.71536827 C212.56709087 4.709834 214.00038826 4.69902679 215.43361473 4.68280983 C217.44416503 4.66096945 219.45490728 4.65977403 221.46557617 4.65942383 C222.60919113 4.65276199 223.75280609 4.64610016 224.93107605 4.63923645 C228.40377812 5.04746564 230.30651754 5.77382667 233 8 C233 9.32 233 10.64 233 12 C233.66 12 234.32 12 235 12 C235 12.66 235 13.32 235 14 C234.34 14 233.68 14 233 14 C233 16.31 233 18.62 233 21 C233.66 21 234.32 21 235 21 C235 21.66 235 22.32 235 23 C233.35 22.67 231.7 22.34 230 22 C230 19.36 230 16.72 230 14 C229.34 14 228.68 14 228 14 C228 16.97 228 19.94 228 23 C227.21625 22.95875 226.4325 22.9175 225.625 22.875 C222.83883881 22.71271266 222.83883881 22.71271266 221 25 C218.0625 24.1875 218.0625 24.1875 215 23 C214.67 22.01 214.34 21.02 214 20 C215.98 20.33 217.96 20.66 220 21 C220 20.01 220 19.02 220 18 C217.03 18 214.06 18 211 18 C210.67 19.65 210.34 21.3 210 23 C208.68 23 207.36 23 206 23 C205.67 21.35 205.34 19.7 205 18 C202.36 18 199.72 18 197 18 C197.33 18.66 197.66 19.32 198 20 C199.98 20 201.96 20 204 20 C204 20.66 204 21.32 204 22 C197.375 23.25 197.375 23.25 194 21 C194 22.32 194 23.64 194 25 C193.34 25 192.68 25 192 25 C191.67 24.34 191.34 23.68 191 23 C189.88625 23 188.7725 23 187.625 23 C184.75 23 181.875 23 179 23 C178.67 20.69 178.34 18.38 178 16 C177.67 18.31 177.34 20.62 177 23 C176.01 23 175.02 23 174 23 C174 20.03 174 17.06 174 14 C172.68 14 171.36 14 170 14 C170 16.97 170 19.94 170 23 C168.865625 22.814375 167.73125 22.62875 166.5625 22.4375 C165.386875 22.293125 164.21125 22.14875 163 22 C162.67 22.33 162.34 22.66 162 23 C158.625 23.3125 158.625 23.3125 155 23 C151.4907721 19.7350339 151.52616974 16.36526637 151.3125 11.75 C151.24675781 10.48671875 151.18101562 9.2234375 151.11328125 7.921875 C151.05720703 6.47554687 151.05720703 6.47554687 151 5 C147.12398933 8.52372686 147.12398933 8.52372686 145.90234375 13.3828125 C145.91394531 14.28773438 145.92554688 15.19265625 145.9375 16.125 C145.94652344 17.03507812 145.95554688 17.94515625 145.96484375 18.8828125 C145.97644531 19.58148438 145.98804688 20.28015625 146 21 C145.34 21 144.68 21 144 21 C144 21.66 144 22.32 144 23 C143.360625 23.12375 142.72125 23.2475 142.0625 23.375 C141.381875 23.58125 140.70125 23.7875 140 24 C139.67 24.66 139.34 25.32 139 26 C136.69 25.34 134.38 24.68 132 24 C131.67 24.66 131.34 25.32 131 26 C127.37 25.34 123.74 24.68 120 24 C120 24.99 120 25.98 120 27 C119.01 27 118.02 27 117 27 C117 25.02 117 23.04 117 21 C116.34 21 115.68 21 115 21 C115 21.66 115 22.32 115 23 C114.01 23 113.02 23 112 23 C112 20.03 112 17.06 112 14 C111.34 14 110.68 14 110 14 C110 16.97 110 19.94 110 23 C109.01 23 108.02 23 107 23 C107 20.03 107 17.06 107 14 C106.01 14.33 105.02 14.66 104 15 C103.67 17.64 103.34 20.28 103 23 C102.01 23 101.02 23 100 23 C99.505 19.04 99.505 19.04 99 15 C99 17.64 99 20.28 99 23 C95.7 23 92.4 23 89 23 C88.67 21.35 88.34 19.7 88 18 C91 16 91 16 95 16 C95 15.34 95 14.68 95 14 C93.02 14.33 91.04 14.66 89 15 C88.01 13.515 88.01 13.515 87 12 C86.67 15.63 86.34 19.26 86 23 C85.34 23 84.68 23 84 23 C83.67 19.7 83.34 16.4 83 13 C81.68 16.3 80.36 19.6 79 23 C78.34 23 77.68 23 77 23 C76.01 20.36 75.02 17.72 74 15 C73.67 17.64 73.34 20.28 73 23 C72.34 23 71.68 23 71 23 C71 18.05 71 13.1 71 8 C72.32 8.33 73.64 8.66 75 9 C76.046875 11.06640625 76.046875 11.06640625 76.75 13.5625 C76.99234375 14.38878906 77.2346875 15.21507812 77.484375 16.06640625 C77.65453125 16.70449219 77.8246875 17.34257812 78 18 C78.27714844 17.30132812 78.55429688 16.60265625 78.83984375 15.8828125 C79.20207031 14.97273437 79.56429687 14.06265625 79.9375 13.125 C80.47697266 11.76761719 80.47697266 11.76761719 81.02734375 10.3828125 C82 8 82 8 83 6 C80.36 5.67 77.72 5.34 75 5 C74.67 5.66 74.34 6.32 74 7 C73.08891479 6.51104248 73.08891479 6.51104248 72.15942383 6.01220703 C67.58265491 4.5459151 63.22508461 4.75440206 58.44921875 4.8046875 C57.43527542 4.8075174 56.42133209 4.81034729 55.37666321 4.81326294 C52.14682073 4.82443375 48.91725829 4.84953289 45.6875 4.875 C43.49414464 4.8850338 41.30078492 4.89415895 39.10742188 4.90234375 C33.73818614 4.92436293 28.36911308 4.95780977 23 5 C23 6.65 23 8.3 23 10 C24.65 10.66 26.3 11.32 28 12 C27.608125 12.70125 27.21625 13.4025 26.8125 14.125 C25.64653899 17.11533935 25.64653899 17.11533935 27.375 20.3125 C27.91125 21.199375 28.4475 22.08625 29 23 C27.125 22.6875 27.125 22.6875 25 22 C24.34 21.01 23.68 20.02 23 19 C22.67 20.32 22.34 21.64 22 23 C21.01 23 20.02 23 19 23 C19 22.34 19 21.68 19 21 C18.34 21 17.68 21 17 21 C17 21.66 17 22.32 17 23 C14.72975032 23.08097324 12.45867925 23.13917704 10.1875 23.1875 C8.29064453 23.23970703 8.29064453 23.23970703 6.35546875 23.29296875 C3 23 3 23 1.05078125 21.61328125 C0 20 0 20 0 18 C0.99 18 1.98 18 3 18 C3.33 18.66 3.66 19.32 4 20 C5.32 20 6.64 20 8 20 C8.33 19.01 8.66 18.02 9 17 C7.865625 16.855625 6.73125 16.71125 5.5625 16.5625 C2 16 2 16 1 15 C0.75 12.0625 0.75 12.0625 1 9 C3.90092502 7.06604999 4.89674737 6.69868059 8.1875 6.375 C9.445625 6.25125 10.70375 6.1275 12 6 C9.56612247 4.78306124 7.58161154 4.68040104 4.875 4.4375 C3.96492188 4.35371094 3.05484375 4.26992187 2.1171875 4.18359375 C1.41851562 4.12300781 0.71984375 4.06242188 0 4 C0 2.68 0 1.36 0 0 Z " fill="#F6E8D8" transform="translate(54,198)"/>
<path d="M0 0 C19.47 0 38.94 0 59 0 C59 27.72 59 55.44 59 84 C52.4 84 45.8 84 39 84 C39 83.01 39 82.02 39 81 C41.64 81 44.28 81 47 81 C47.495 79.515 47.495 79.515 48 78 C48.99 78.495 48.99 78.495 50 79 C49.67 79.33 49.34 79.66 49 80 C52.18762365 82.12508244 54.26512223 82.5020163 58 83 C58 82.34 58 81.68 58 81 C57.01 80.505 57.01 80.505 56 80 C56 75.71 56 71.42 56 67 C54.68 67 53.36 67 52 67 C51.505 68.485 51.505 68.485 51 70 C49.35 69.67 47.7 69.34 46 69 C47.32 67.02 48.64 65.04 50 63 C49.01 62.67 48.02 62.34 47 62 C47.020625 60.9275 47.04125 59.855 47.0625 58.75 C47.14588008 55.26287885 47.14588008 55.26287885 46.5 53 C45.75139172 50.0055669 45.94095972 47.07009479 46 44 C43.73658529 46.26341471 44.64487202 52.5148253 44.5703125 55.7421875 C44.52390625 56.87140625 44.52390625 56.87140625 44.4765625 58.0234375 C44.45674316 58.71356934 44.43692383 59.40370117 44.41650391 60.11474609 C43.87283763 62.5755849 43.01358442 63.51410544 41 65 C37.8125 64.6875 37.8125 64.6875 35 64 C35 64.66 35 65.32 35 66 C34.34 66 33.68 66 33 66 C32.67 65.34 32.34 64.68 32 64 C28.7 64 25.4 64 22 64 C21.67 63.34 21.34 62.68 21 62 C21.66 62 22.32 62 23 62 C23 56.06 23 50.12 23 44 C22.34 44 21.68 44 21 44 C21.02320313 44.97582031 21.04640625 45.95164063 21.0703125 46.95703125 C21.09738281 48.86548828 21.09738281 48.86548828 21.125 50.8125 C21.14820313 52.07707031 21.17140625 53.34164062 21.1953125 54.64453125 C21 58 21 58 19 61 C17.1875 62 17.1875 62 15 62 C11.52965366 59.2892797 10.12823688 57.8589985 9.46875 53.44140625 C9.4790625 52.16136719 9.489375 50.88132813 9.5 49.5625 C9.51137275 43.50240157 9.51137275 43.50240157 6.4375 38.5 C4 36 4 36 3.6875 32.125 C3.790625 31.09375 3.89375 30.0625 4 29 C4.33 29 4.66 29 5 29 C5.35807292 30.66015625 5.71614583 32.3203125 6.07421875 33.98046875 C6.95927063 36.2680768 6.95927063 36.2680768 9.53515625 38.2578125 C12.73744606 41.82042335 12.65743639 43.96212759 12.75 48.6875 C12.675134 53.49042725 12.675134 53.49042725 14 58 C15.32 58 16.64 58 18 58 C18.33 52.39 18.66 46.78 19 41 C20.65 41 22.3 41 24 41 C24.06058594 42.03640625 24.12117188 43.0728125 24.18359375 44.140625 C24.26803371 45.51042873 24.35267997 46.88021975 24.4375 48.25 C24.47681641 48.93191406 24.51613281 49.61382812 24.55664062 50.31640625 C24.76666472 53.64448041 25.01934002 56.80255402 26 60 C27.65 60.33 29.3 60.66 31 61 C31 54.73 31 48.46 31 42 C33.475 41.505 33.475 41.505 36 41 C36.495 50.405 36.495 50.405 37 60 C38.65 60.66 40.3 61.32 42 62 C41.98428955 61.40461426 41.9685791 60.80922852 41.95239258 60.19580078 C41.89014199 57.50562997 41.85104217 54.81561043 41.8125 52.125 C41.78736328 51.18785156 41.76222656 50.25070313 41.73632812 49.28515625 C41.72666016 48.38925781 41.71699219 47.49335937 41.70703125 46.5703125 C41.6913208 45.74289551 41.67561035 44.91547852 41.65942383 44.06298828 C41.82800903 43.04180908 41.82800903 43.04180908 42 42 C45 40 45 40 48.625 39.5 C50.295625 39.2525 50.295625 39.2525 52 39 C53.39935013 36.20129973 53.25265405 34.09501208 53 31 C51.88595435 29.23129365 51.88595435 29.23129365 50 28 C47.3931977 27.49520343 47.3931977 27.49520343 44.45703125 27.48828125 C42.84731445 27.43510742 42.84731445 27.43510742 41.20507812 27.38085938 C40.08552734 27.35830078 38.96597656 27.33574219 37.8125 27.3125 C36.68134766 27.27833984 35.55019531 27.24417969 34.38476562 27.20898438 C31.5899426 27.12643686 28.79543602 27.05730818 26 27 C25.34 24.69 24.68 22.38 24 20 C23.360625 19.896875 22.72125 19.79375 22.0625 19.6875 C21.381875 19.460625 20.70125 19.23375 20 19 C18.2786939 13.83608171 18.94646448 8.40708764 19 3 C12.73 2.67 6.46 2.34 0 2 C0 1.34 0 0.68 0 0 Z " fill="#2B2525" transform="translate(152,41)"/>
<path d="M0 0 C-0.33 0.33 -0.66 0.66 -1 1 C-0.90997602 3.02408755 -0.75358962 5.04544287 -0.5625 7.0625 C-0.46066406 8.16722656 -0.35882813 9.27195313 -0.25390625 10.41015625 C-0.12822266 11.69212891 -0.12822266 11.69212891 0 13 C2.475 13.495 2.475 13.495 5 14 C5.33 10.04 5.66 6.08 6 2 C6.99 2 7.98 2 9 2 C9 1.34 9 0.68 9 0 C8.34 -0.33 7.68 -0.66 7 -1 C15.38856185 -1.06957382 23.77700273 -1.12284852 32.16578197 -1.15543652 C36.06122736 -1.17107878 39.95647503 -1.19229041 43.85180664 -1.22631836 C47.61248525 -1.25896368 51.37297394 -1.27686385 55.13378334 -1.28463173 C56.56709087 -1.290166 58.00038826 -1.30097321 59.43361473 -1.31719017 C61.44416503 -1.33903055 63.45490728 -1.34022597 65.46557617 -1.34057617 C66.60919113 -1.34723801 67.75280609 -1.35389984 68.93107605 -1.36076355 C72.40377812 -0.95253436 74.30651754 -0.22617333 77 2 C77 3.32 77 4.64 77 6 C77.66 6 78.32 6 79 6 C79 6.66 79 7.32 79 8 C78.34 8 77.68 8 77 8 C77 10.31 77 12.62 77 15 C77.66 15 78.32 15 79 15 C79 15.66 79 16.32 79 17 C77.35 16.67 75.7 16.34 74 16 C74 13.36 74 10.72 74 8 C73.34 8 72.68 8 72 8 C72 10.97 72 13.94 72 17 C71.21625 16.95875 70.4325 16.9175 69.625 16.875 C66.83883881 16.71271266 66.83883881 16.71271266 65 19 C62.0625 18.1875 62.0625 18.1875 59 17 C58.505 15.515 58.505 15.515 58 14 C59.98 14.33 61.96 14.66 64 15 C64 14.01 64 13.02 64 12 C61.03 12 58.06 12 55 12 C54.67 13.65 54.34 15.3 54 17 C52.68 17 51.36 17 50 17 C49.67 15.35 49.34 13.7 49 12 C46.36 12 43.72 12 41 12 C41.495 12.99 41.495 12.99 42 14 C43.98 14 45.96 14 48 14 C48 14.66 48 15.32 48 16 C41.375 17.25 41.375 17.25 38 15 C38 16.32 38 17.64 38 19 C37.34 19 36.68 19 36 19 C35.505 18.01 35.505 18.01 35 17 C33.88625 17 32.7725 17 31.625 17 C28.75 17 25.875 17 23 17 C22.505 13.535 22.505 13.535 22 10 C21.67 12.31 21.34 14.62 21 17 C20.01 17 19.02 17 18 17 C18 14.03 18 11.06 18 8 C16.68 8 15.36 8 14 8 C14 10.97 14 13.94 14 17 C12.865625 16.814375 11.73125 16.62875 10.5625 16.4375 C9.386875 16.293125 8.21125 16.14875 7 16 C6.67 16.33 6.34 16.66 6 17 C2.625 17.3125 2.625 17.3125 -1 17 C-4.5092279 13.7350339 -4.47383026 10.36526637 -4.6875 5.75 C-4.75324219 4.48671875 -4.81898438 3.2234375 -4.88671875 1.921875 C-4.92410156 0.95765625 -4.96148437 -0.0065625 -5 -1 C-8.87601067 2.52372686 -8.87601067 2.52372686 -10.09765625 7.3828125 C-10.08605469 8.28773438 -10.07445312 9.19265625 -10.0625 10.125 C-10.04896484 11.49011719 -10.04896484 11.49011719 -10.03515625 12.8828125 C-10.02355469 13.58148438 -10.01195312 14.28015625 -10 15 C-10.66 15 -11.32 15 -12 15 C-12 15.66 -12 16.32 -12 17 C-12.99 17 -13.98 17 -15 17 C-15 11.39 -15 5.78 -15 0 C-15.66 -0.33 -16.32 -0.66 -17 -1 C-5.07692308 -3.38461538 -5.07692308 -3.38461538 0 0 Z " fill="#F0F0EE" transform="translate(210,204)"/>
<path d="M0 0 C0.84783051 -0.01283524 1.69566101 -0.02567047 2.56918335 -0.03889465 C3.48688507 -0.04628159 4.40458679 -0.05366852 5.35009766 -0.0612793 C6.76326767 -0.07338692 6.76326767 -0.07338692 8.20498657 -0.08573914 C10.20060381 -0.09958225 12.19624476 -0.11030338 14.19189453 -0.11816406 C17.24508411 -0.13539042 20.29719474 -0.17927585 23.35009766 -0.22338867 C25.28758968 -0.23351431 27.22509092 -0.24203081 29.16259766 -0.2487793 C30.53307755 -0.27504143 30.53307755 -0.27504143 31.9312439 -0.30183411 C38.24528389 -0.28020737 38.24528389 -0.28020737 41.47363281 2.01220703 C43.37504294 4.92007243 43.32445346 6.76720439 42.88916016 10.17700195 C40.88916016 13.17700195 40.88916016 13.17700195 31.88916016 15.17700195 C31.55916016 21.77700195 31.22916016 28.37700195 30.88916016 35.17700195 C25.88916016 34.17700195 25.88916016 34.17700195 24.88916016 33.17700195 C24.80264405 31.76130072 24.78211112 30.34140695 24.79150391 28.9230957 C24.79472656 28.0690918 24.79794922 27.21508789 24.80126953 26.33520508 C24.80964844 25.43737305 24.81802734 24.53954102 24.82666016 23.61450195 C24.83117187 22.71280273 24.83568359 21.81110352 24.84033203 20.88208008 C24.85215791 18.64698882 24.86863795 16.41202759 24.88916016 14.17700195 C23.56916016 14.50700195 22.24916016 14.83700195 20.88916016 15.17700195 C20.55916016 21.44700195 20.22916016 27.71700195 19.88916016 34.17700195 C18.23916016 34.17700195 16.58916016 34.17700195 14.88916016 34.17700195 C12.77881666 29.89815589 12.64787277 26.03836053 12.76416016 21.36450195 C12.77318359 20.67163086 12.78220703 19.97875977 12.79150391 19.26489258 C12.81489859 17.568778 12.85076375 15.87284325 12.88916016 14.17700195 C11.23916016 14.17700195 9.58916016 14.17700195 7.88916016 14.17700195 C7.88916016 19.78700195 7.88916016 25.39700195 7.88916016 31.17700195 C6.23916016 31.50700195 4.58916016 31.83700195 2.88916016 32.17700195 C-0.10784863 27.68148877 0.59386794 23.14420904 0.52587891 17.84106445 C-0.2447789 13.4062361 -1.70125696 11.99981941 -5.11083984 9.17700195 C-6.11083984 8.17700195 -6.11083984 8.17700195 -6.17333984 4.61450195 C-6.15271484 3.48012695 -6.13208984 2.34575195 -6.11083984 1.17700195 C-3.83518363 0.03917384 -2.52916964 0.03331308 0 0 Z " fill="#C0803F" transform="translate(163.11083984375,67.822998046875)"/>
<path d="M0 0 C0.66 0 1.32 0 2 0 C2 26.4 2 52.8 2 80 C-4.6 80 -11.2 80 -18 80 C-18 79.01 -18 78.02 -18 77 C-15.36 77 -12.72 77 -10 77 C-9.505 75.515 -9.505 75.515 -9 74 C-8.01 74.495 -8.01 74.495 -7 75 C-7.33 75.33 -7.66 75.66 -8 76 C-4.81237635 78.12508244 -2.73487777 78.5020163 1 79 C1 78.34 1 77.68 1 77 C0.01 76.505 0.01 76.505 -1 76 C-1 71.71 -1 67.42 -1 63 C-2.32 63 -3.64 63 -5 63 C-5.33 63.99 -5.66 64.98 -6 66 C-7.65 65.67 -9.3 65.34 -11 65 C-9.68 63.02 -8.36 61.04 -7 59 C-7.99 58.67 -8.98 58.34 -10 58 C-9.979375 56.9275 -9.95875 55.855 -9.9375 54.75 C-9.85411992 51.26287885 -9.85411992 51.26287885 -10.5 49 C-11.24860828 46.0055669 -11.05904028 43.07009479 -11 40 C-13.26341471 42.26341471 -12.35512798 48.5148253 -12.4296875 51.7421875 C-12.47609375 52.87140625 -12.47609375 52.87140625 -12.5234375 54.0234375 C-12.54325684 54.71356934 -12.56307617 55.40370117 -12.58349609 56.11474609 C-13.12716237 58.5755849 -13.98641558 59.51410544 -16 61 C-19.1875 60.6875 -19.1875 60.6875 -22 60 C-22 60.66 -22 61.32 -22 62 C-22.66 62 -23.32 62 -24 62 C-24.33 61.34 -24.66 60.68 -25 60 C-28.3 60 -31.6 60 -35 60 C-35.33 59.34 -35.66 58.68 -36 58 C-35.34 58 -34.68 58 -34 58 C-34 52.06 -34 46.12 -34 40 C-34.66 40 -35.32 40 -36 40 C-35.97679687 40.97582031 -35.95359375 41.95164063 -35.9296875 42.95703125 C-35.90261719 44.86548828 -35.90261719 44.86548828 -35.875 46.8125 C-35.85179687 48.07707031 -35.82859375 49.34164062 -35.8046875 50.64453125 C-36 54 -36 54 -38 57 C-39.8125 58 -39.8125 58 -42 58 C-45.47034634 55.2892797 -46.87176312 53.8589985 -47.53125 49.44140625 C-47.51578125 47.52134766 -47.51578125 47.52134766 -47.5 45.5625 C-47.48862725 39.50240157 -47.48862725 39.50240157 -50.5625 34.5 C-53 32 -53 32 -53.3125 28.125 C-53.209375 27.09375 -53.10625 26.0625 -53 25 C-52.67 25 -52.34 25 -52 25 C-51.64192708 26.66015625 -51.28385417 28.3203125 -50.92578125 29.98046875 C-50.04072937 32.2680768 -50.04072937 32.2680768 -47.46484375 34.2578125 C-44.26255394 37.82042335 -44.34256361 39.96212759 -44.25 44.6875 C-44.324866 49.49042725 -44.324866 49.49042725 -43 54 C-41.68 54 -40.36 54 -39 54 C-38.67 48.39 -38.34 42.78 -38 37 C-36.35 37 -34.7 37 -33 37 C-32.93941406 38.03640625 -32.87882812 39.0728125 -32.81640625 40.140625 C-32.73196629 41.51042873 -32.64732003 42.88021975 -32.5625 44.25 C-32.52318359 44.93191406 -32.48386719 45.61382812 -32.44335938 46.31640625 C-32.23333528 49.64448041 -31.98065998 52.80255402 -31 56 C-29.35 56.33 -27.7 56.66 -26 57 C-26 50.73 -26 44.46 -26 38 C-23.525 37.505 -23.525 37.505 -21 37 C-20.505 46.405 -20.505 46.405 -20 56 C-18.35 56.66 -16.7 57.32 -15 58 C-15.01571045 57.40461426 -15.0314209 56.80922852 -15.04760742 56.19580078 C-15.10985801 53.50562997 -15.14895783 50.81561043 -15.1875 48.125 C-15.21263672 47.18785156 -15.23777344 46.25070313 -15.26367188 45.28515625 C-15.27333984 44.38925781 -15.28300781 43.49335937 -15.29296875 42.5703125 C-15.3086792 41.74289551 -15.32438965 40.91547852 -15.34057617 40.06298828 C-15.17199097 39.04180908 -15.17199097 39.04180908 -15 38 C-12 36 -12 36 -8.375 35.5 C-6.704375 35.2525 -6.704375 35.2525 -5 35 C-3.60064987 32.20129973 -3.74734595 30.09501208 -4 27 C-5.43750191 25.31201173 -5.43750191 25.31201173 -7 24 C-7 23.01 -7 22.02 -7 21 C-5.68 21 -4.36 21 -3 21 C-2.855625 21.804375 -2.71125 22.60875 -2.5625 23.4375 C-2.25864751 25.92103706 -2.25864751 25.92103706 -1 27 C-1 29.33333333 -1 31.66666667 -1 34 C-0.67 34.33 -0.34 34.66 0 35 C0 23.45 0 11.9 0 0 Z " fill="#312214" transform="translate(209,45)"/>
<path d="M0 0 C0.66 0.33 1.32 0.66 2 1 C1.979375 1.969375 1.95875 2.93875 1.9375 3.9375 C1.92983177 7.69493476 2.31955195 11.35638446 2.78125 15.08203125 C3 17 3 17 3 19 C3.66 19.33 4.32 19.66 5 20 C4.34 21.65 3.68 23.3 3 25 C3.99 25.33 4.98 25.66 6 26 C6.33 25.34 6.66 24.68 7 24 C8.32 24 9.64 24 11 24 C11.06058594 24.90363281 11.12117188 25.80726562 11.18359375 26.73828125 C11.26738281 27.91777344 11.35117188 29.09726563 11.4375 30.3125 C11.51871094 31.48425781 11.59992188 32.65601563 11.68359375 33.86328125 C11.8867371 37.02590958 11.8867371 37.02590958 13 40 C7.06 40 1.12 40 -5 40 C-5 39.67 -5 39.34 -5 39 C-2.36 38.67 0.28 38.34 3 38 C3 37.34 3 36.68 3 36 C2.505 36.99 2.505 36.99 2 38 C-0.64 38 -3.28 38 -6 38 C-6 38.99 -6 39.98 -6 41 C0.6 41 7.2 41 14 41 C14 41.33 14 41.66 14 42 C-5.47 42 -24.94 42 -45 42 C-45 41.67 -45 41.34 -45 41 C-33.78 40.67 -22.56 40.34 -11 40 C-10.34 38.35 -9.68 36.7 -9 35 C-9.66 35 -10.32 35 -11 35 C-11 35.66 -11 36.32 -11 37 C-12.98 37 -14.96 37 -17 37 C-16.67 34.36 -16.34 31.72 -16 29 C-16.99 29 -17.98 29 -19 29 C-19 30.98 -19 32.96 -19 35 C-26.26 35 -33.52 35 -41 35 C-41 31.37 -41 27.74 -41 24 C-39.68 24 -38.36 24 -37 24 C-36.67 24.99 -36.34 25.98 -36 27 C-35.34 26.01 -34.68 25.02 -34 24 C-31.375 23.8125 -31.375 23.8125 -29 24 C-29 24.66 -29 25.32 -29 26 C-27.35 26 -25.7 26 -24 26 C-24 25.34 -24 24.68 -24 24 C-23.34 24 -22.68 24 -22 24 C-22 24.66 -22 25.32 -22 26 C-19.69 26 -17.38 26 -15 26 C-15.33 25.67 -15.66 25.34 -16 25 C-16 24.01 -16 23.02 -16 22 C-14.68 21.34 -13.36 20.68 -12 20 C-12 20.99 -12 21.98 -12 23 C-11.34 22.01 -10.68 21.02 -10 20 C-8.576875 20.2475 -8.576875 20.2475 -7.125 20.5 C-4.19831099 21.0526635 -4.19831099 21.0526635 -2 21 C-1.97494385 20.43490723 -1.9498877 19.86981445 -1.92407227 19.28759766 C-1.80820044 16.73316258 -1.68543463 14.1791045 -1.5625 11.625 C-1.52318359 10.73554687 -1.48386719 9.84609375 -1.44335938 8.9296875 C-1.38051758 7.65351562 -1.38051758 7.65351562 -1.31640625 6.3515625 C-1.27974854 5.56604004 -1.24309082 4.78051758 -1.20532227 3.97119141 C-1 2 -1 2 0 0 Z " fill="#1F2023" transform="translate(197,84)"/>
<path d="M0 0 C81.18 0 162.36 0 246 0 C246 0.99 246 1.98 246 3 C164.82 3 83.64 3 0 3 C0 2.01 0 1.02 0 0 Z " fill="#B28962" transform="translate(54,198)"/>
<path d="M0 0 C2.69540315 -0.26686213 5.15847464 -0.34818073 7.8515625 -0.29296875 C8.62559418 -0.28872391 9.39962585 -0.28447906 10.19711304 -0.28010559 C12.67342677 -0.26328998 15.14893158 -0.22563395 17.625 -0.1875 C19.30207159 -0.17245682 20.97915592 -0.15876778 22.65625 -0.14648438 C26.77114581 -0.11337721 30.88543569 -0.06157637 35 0 C35 0.99 35 1.98 35 3 C35.99 3 36.98 3 38 3 C38 8.28 38 13.56 38 19 C31 19 31 19 28 18 C28 15.03 28 12.06 28 9 C26.68 9.33 25.36 9.66 24 10 C23.67 12.64 23.34 15.28 23 18 C22.34 18 21.68 18 21 18 C21 15.03 21 12.06 21 9 C20.01 9.33 19.02 9.66 18 10 C17.67 12.64 17.34 15.28 17 18 C16.01 18 15.02 18 14 18 C14 14.37 14 10.74 14 7 C13.34 7 12.68 7 12 7 C12 10.63 12 14.26 12 18 C9.69 18 7.38 18 5 18 C4.34 16.35 3.68 14.7 3 13 C2.01 13.495 2.01 13.495 1 14 C0.34786708 16.02463255 0.34786708 16.02463255 0 18 C-0.66 18 -1.32 18 -2 18 C-2.05397335 15.5622037 -2.09365616 13.12560315 -2.125 10.6875 C-2.14175781 9.99720703 -2.15851563 9.30691406 -2.17578125 8.59570312 C-2.21217794 4.82864604 -2.14378864 3.21568296 0 0 Z " fill="#FBFAF8" transform="translate(86,203)"/>
<path d="M0 0 C1.98 0 3.96 0 6 0 C7.57079658 4.09181876 9.13726331 8.18526016 10.69970703 12.28027344 C11.2320421 13.67363368 11.76556577 15.0665404 12.30029297 16.45898438 C13.06789756 18.45845906 13.83123788 20.45951617 14.59375 22.4609375 C15.05458984 23.66540527 15.51542969 24.86987305 15.99023438 26.11083984 C17 29 17 29 17 31 C17.66 31 18.32 31 19 31 C19.12375 30.43796875 19.2475 29.8759375 19.375 29.296875 C21.86313584 19.15772147 26.02148697 9.62452227 30 0 C31.98 0 33.96 0 36 0 C36 12.54 36 25.08 36 38 C34.68 38 33.36 38 32 38 C31.505 24.14 31.505 24.14 31 10 C29.741875 13.135 28.48375 16.27 27.1875 19.5 C26.79715576 20.47130859 26.40681152 21.44261719 26.00463867 22.44335938 C23.9364286 27.60574613 21.93132018 32.78482626 20 38 C18.68 38 17.36 38 16 38 C10.555 24.14 10.555 24.14 5 10 C4.67 19.24 4.34 28.48 4 38 C2.68 38 1.36 38 0 38 C0 25.46 0 12.92 0 0 Z " fill="#474642" transform="translate(159,154)"/>
<path d="M0 0 C3.41659491 -0.05816623 6.83306205 -0.09365195 10.25 -0.125 C11.21808594 -0.14175781 12.18617188 -0.15851563 13.18359375 -0.17578125 C14.11816406 -0.18222656 15.05273438 -0.18867188 16.015625 -0.1953125 C16.87446289 -0.20578613 17.73330078 -0.21625977 18.61816406 -0.22705078 C21 0 21 0 25 2 C25 7.28 25 12.56 25 18 C24.01 18 23.02 18 22 18 C22 15.03 22 12.06 22 9 C21.34 9 20.68 9 20 9 C20 11.97 20 14.94 20 18 C19.01 18 18.02 18 17 18 C17 15.03 17 12.06 17 9 C16.01 9.33 15.02 9.66 14 10 C13.67 12.64 13.34 15.28 13 18 C12.01 18 11.02 18 10 18 C9.67 15.36 9.34 12.72 9 10 C9 12.64 9 15.28 9 18 C5.7 18 2.4 18 -1 18 C-1.495 15.525 -1.495 15.525 -2 13 C1 11 1 11 5 11 C5 10.34 5 9.68 5 9 C3.02 9.33 1.04 9.66 -1 10 C-1.66 9.01 -2.32 8.02 -3 7 C-3.33 10.63 -3.66 14.26 -4 18 C-4.66 18 -5.32 18 -6 18 C-6.33 14.7 -6.66 11.4 -7 8 C-8.32 11.3 -9.64 14.6 -11 18 C-11.66 18 -12.32 18 -13 18 C-13.99 15.36 -14.98 12.72 -16 10 C-16.33 12.64 -16.66 15.28 -17 18 C-17.66 18 -18.32 18 -19 18 C-19 13.05 -19 8.1 -19 3 C-17.68 3.33 -16.36 3.66 -15 4 C-13.53257498 6.89652178 -12.88549685 9.85648617 -12 13 C-10.68 9.7 -9.36 6.4 -8 3 C-5.69 3 -3.38 3 -1 3 C-0.67 2.01 -0.34 1.02 0 0 Z " fill="#F1F1EF" transform="translate(144,203)"/>
<path d="M0 0 C0.81210938 -0.01224609 1.62421875 -0.02449219 2.4609375 -0.03710938 C6.90324232 -0.04796191 10.17123309 0.25545252 14.25 2.1875 C15.466875 2.3525 16.68375 2.5175 17.9375 2.6875 C21.25 3.1875 21.25 3.1875 23.25 5.1875 C23 8.75 23 8.75 22.25 12.1875 C19.953463 13.3357685 18.66686833 13.30311175 16.1171875 13.28515625 C15.31152344 13.28193359 14.50585938 13.27871094 13.67578125 13.27539062 C12.83402344 13.26701172 11.99226563 13.25863281 11.125 13.25 C9.85076172 13.24323242 9.85076172 13.24323242 8.55078125 13.23632812 C6.45049091 13.22452874 4.3502367 13.20659306 2.25 13.1875 C2.25 11.8675 2.25 10.5475 2.25 9.1875 C0.93 9.1875 -0.39 9.1875 -1.75 9.1875 C-1.75 10.5075 -1.75 11.8275 -1.75 13.1875 C-3.4 13.5175 -5.05 13.8475 -6.75 14.1875 C-7.41 12.2075 -8.07 10.2275 -8.75 8.1875 C-9.08 8.5175 -9.41 8.8475 -9.75 9.1875 C-11.41617115 9.22813832 -13.08388095 9.230221 -14.75 9.1875 C-14.75 10.5075 -14.75 11.8275 -14.75 13.1875 C-18.08333333 13.1875 -21.41666667 13.1875 -24.75 13.1875 C-24.75 12.1975 -24.75 11.2075 -24.75 10.1875 C-23.1 10.5175 -21.45 10.8475 -19.75 11.1875 C-20.74 10.5275 -21.73 9.8675 -22.75 9.1875 C-23.74 8.5275 -24.73 7.8675 -25.75 7.1875 C-25.42 5.8675 -25.09 4.5475 -24.75 3.1875 C-20.96150002 2.63501042 -17.17909567 2.12009572 -13.375 1.6875 C-1.14710202 0.00089338 -1.14710202 0.00089338 0 0 Z " fill="#C0C0C0" transform="translate(162.75,126.8125)"/>
<path d="M0 0 C-0.33 0.33 -0.66 0.66 -1 1 C-0.90997602 3.02408755 -0.75358962 5.04544287 -0.5625 7.0625 C-0.46066406 8.16722656 -0.35882813 9.27195313 -0.25390625 10.41015625 C-0.12822266 11.69212891 -0.12822266 11.69212891 0 13 C2.475 13.495 2.475 13.495 5 14 C5.33 10.04 5.66 6.08 6 2 C6.99 2 7.98 2 9 2 C9 1.34 9 0.68 9 0 C8.34 -0.33 7.68 -0.66 7 -1 C9.75026417 -1.05404449 12.49946203 -1.09369306 15.25 -1.125 C16.02730469 -1.14175781 16.80460937 -1.15851563 17.60546875 -1.17578125 C24.72431144 -1.23662606 24.72431144 -1.23662606 28 1 C26.35 1.33 24.7 1.66 23 2 C23 2.99 23 3.98 23 5 C23.66 5.33 24.32 5.66 25 6 C24.34 6 23.68 6 23 6 C22.34 9.63 21.68 13.26 21 17 C20.01 17 19.02 17 18 17 C18 14.03 18 11.06 18 8 C16.68 8 15.36 8 14 8 C14 10.97 14 13.94 14 17 C12.865625 16.814375 11.73125 16.62875 10.5625 16.4375 C9.386875 16.293125 8.21125 16.14875 7 16 C6.67 16.33 6.34 16.66 6 17 C2.625 17.3125 2.625 17.3125 -1 17 C-4.5092279 13.7350339 -4.47383026 10.36526637 -4.6875 5.75 C-4.75324219 4.48671875 -4.81898438 3.2234375 -4.88671875 1.921875 C-4.92410156 0.95765625 -4.96148437 -0.0065625 -5 -1 C-8.87601067 2.52372686 -8.87601067 2.52372686 -10.09765625 7.3828125 C-10.08605469 8.28773438 -10.07445312 9.19265625 -10.0625 10.125 C-10.04896484 11.49011719 -10.04896484 11.49011719 -10.03515625 12.8828125 C-10.02355469 13.58148438 -10.01195312 14.28015625 -10 15 C-10.66 15 -11.32 15 -12 15 C-12 15.66 -12 16.32 -12 17 C-12.99 17 -13.98 17 -15 17 C-15 11.39 -15 5.78 -15 0 C-15.66 -0.33 -16.32 -0.66 -17 -1 C-5.07692308 -3.38461538 -5.07692308 -3.38461538 0 0 Z " fill="#F8F8F6" transform="translate(210,204)"/>
<path d="M0 0 C0.66 0 1.32 0 2 0 C2 26.4 2 52.8 2 80 C-4.6 80 -11.2 80 -18 80 C-18 79.01 -18 78.02 -18 77 C-15.36 77 -12.72 77 -10 77 C-9.67 76.01 -9.34 75.02 -9 74 C-8.34 74.33 -7.68 74.66 -7 75 C-7.495 75.495 -7.495 75.495 -8 76 C-4.81237635 78.12508244 -2.73487777 78.5020163 1 79 C1 78.34 1 77.68 1 77 C0.34 76.67 -0.32 76.34 -1 76 C-1 71.71 -1 67.42 -1 63 C-2.32 63 -3.64 63 -5 63 C-5.33 63.99 -5.66 64.98 -6 66 C-7.65 65.67 -9.3 65.34 -11 65 C-9.68 63.02 -8.36 61.04 -7 59 C-7.99 58.67 -8.98 58.34 -10 58 C-9.979375 56.9275 -9.95875 55.855 -9.9375 54.75 C-9.85411992 51.26287885 -9.85411992 51.26287885 -10.5 49 C-11.24860828 46.0055669 -11.05904028 43.07009479 -11 40 C-7.16324035 38.30731192 -4.3093986 37.7182331 0 37 C0 24.79 0 12.58 0 0 Z " fill="#1D1B1B" transform="translate(209,45)"/>
<path d="M0 0 C4.29 0 8.58 0 13 0 C13 1.98 13 3.96 13 6 C14.65 6.66 16.3 7.32 18 8 C17.608125 8.70125 17.21625 9.4025 16.8125 10.125 C15.64653899 13.11533935 15.64653899 13.11533935 17.375 16.3125 C17.91125 17.199375 18.4475 18.08625 19 19 C17.125 18.6875 17.125 18.6875 15 18 C14.34 17.01 13.68 16.02 13 15 C12.67 16.32 12.34 17.64 12 19 C11.01 19 10.02 19 9 19 C9 18.34 9 17.68 9 17 C8.34 17 7.68 17 7 17 C7 17.66 7 18.32 7 19 C4.72975032 19.08097324 2.45867925 19.13917704 0.1875 19.1875 C-1.70935547 19.23970703 -1.70935547 19.23970703 -3.64453125 19.29296875 C-7 19 -7 19 -8.94921875 17.61328125 C-10 16 -10 16 -10 14 C-9.01 14 -8.02 14 -7 14 C-6.67 14.66 -6.34 15.32 -6 16 C-4.68 16 -3.36 16 -2 16 C-1.67 15.01 -1.34 14.02 -1 13 C-2.134375 12.855625 -3.26875 12.71125 -4.4375 12.5625 C-8 12 -8 12 -9 11 C-9.25 8.0625 -9.25 8.0625 -9 5 C-6.09907498 3.06604999 -5.10325263 2.69868059 -1.8125 2.375 C-0.554375 2.25125 0.70375 2.1275 2 2 C1.34 1.34 0.68 0.68 0 0 Z " fill="#F9F8F2" transform="translate(64,202)"/>
<path d="M0 0 C1.22332031 -0.03738281 2.44664062 -0.07476562 3.70703125 -0.11328125 C7.78875424 0.38605411 9.37943091 1.35306659 12.1875 4.3125 C13 8.0625 13 8.0625 13.1875 11.3125 C12.1975 11.3125 11.2075 11.3125 10.1875 11.3125 C9.919375 10.52875 9.65125 9.745 9.375 8.9375 C8.33935568 6.03135077 8.33935568 6.03135077 5.1875 4.3125 C2.77599742 3.99587561 2.77599742 3.99587561 0.1875 4.0625 C-1.111875 4.05476562 -1.111875 4.05476562 -2.4375 4.046875 C-5.078295 4.15835448 -5.078295 4.15835448 -7.8125 6.3125 C-8.3125 9.8125 -8.3125 9.8125 -7.8125 13.3125 C-4.54913336 15.48807776 -2.31817223 15.93883878 1.5 16.6875 C6.63689201 17.81566915 10.20422593 18.88245844 14.1875 22.3125 C15.73774464 25.41298928 15.47742015 27.89144218 15.1875 31.3125 C12.99356052 34.83847416 11.02780793 36.80428218 7.1875 38.3125 C1.70268565 38.92192382 -4.64794296 39.62062032 -9.5 36.5625 C-12.60215303 33.54418894 -13.74042187 31.89821893 -13.9375 27.5625 C-13.875625 26.44875 -13.875625 26.44875 -13.8125 25.3125 C-12.4925 25.3125 -11.1725 25.3125 -9.8125 25.3125 C-9.565 26.42625 -9.3175 27.54 -9.0625 28.6875 C-8.22387504 32.28882235 -8.22387504 32.28882235 -6.046875 33.51953125 C-3.51680565 34.41744048 -1.49448812 34.61273481 1.1875 34.625 C2.033125 34.64175781 2.87875 34.65851563 3.75 34.67578125 C6.86827482 34.21103837 8.12611663 33.73176243 10.1875 31.3125 C10.52997583 28.55808374 10.37070769 26.10641724 10.1875 23.3125 C9.10210937 23.07015625 8.01671875 22.8278125 6.8984375 22.578125 C5.45297493 22.24022466 4.00767061 21.90164687 2.5625 21.5625 C1.84964844 21.40523437 1.13679687 21.24796875 0.40234375 21.0859375 C-4.75396199 19.85599301 -8.98029833 18.14470167 -12.8125 14.3125 C-13.40218059 7.23633292 -13.40218059 7.23633292 -10.9375 3.375 C-7.37850604 -0.07931766 -4.88562279 0.09720087 0 0 Z " fill="#3A3A38" transform="translate(130.8125,153.6875)"/>
<path d="M0 0 C1.32 0 2.64 0 4 0 C4.01458252 0.82201904 4.02916504 1.64403809 4.04418945 2.4909668 C4.11876333 6.22361323 4.21539512 9.95537459 4.3125 13.6875 C4.33505859 14.98107422 4.35761719 16.27464844 4.38085938 17.60742188 C4.41630859 18.85458984 4.45175781 20.10175781 4.48828125 21.38671875 C4.51446533 22.53358154 4.54064941 23.68044434 4.56762695 24.86206055 C5.04134563 28.30006512 5.94532696 30.22800202 8 33 C11.69153519 34.8457676 15.97021939 34.48175083 20 34 C23.09799981 31.80873184 23.80352112 30.58943664 25 27 C25.15029988 24.93637009 25.24844448 22.86876085 25.31640625 20.80078125 C25.35830078 19.59228516 25.40019531 18.38378906 25.44335938 17.13867188 C25.48267578 15.87603516 25.52199219 14.61339844 25.5625 13.3125 C25.60568359 12.03826172 25.64886719 10.76402344 25.69335938 9.45117188 C25.7995486 6.30089148 25.90159533 3.15053161 26 0 C26.99 0 27.98 0 29 0 C29.14930394 4.14414141 29.25765166 8.28682373 29.32958984 12.43286133 C29.35960197 13.84036556 29.40042758 15.24768527 29.45263672 16.65454102 C29.92961238 29.84619141 29.92961238 29.84619141 26.1640625 34.40234375 C21.94454353 38.45997686 17.31476771 38.34720631 11.73046875 38.2734375 C7.80737605 37.88056699 5.81127823 36.74099627 3 34 C-0.93869946 27.33882657 -0.34206118 20.62014544 -0.1875 13.0625 C-0.17396484 11.80630859 -0.16042969 10.55011719 -0.14648438 9.25585938 C-0.11128591 6.17012721 -0.06204305 3.08528976 0 0 Z " fill="#272725" transform="translate(209,154)"/>
<path d="M0 0 C1.32 0 2.64 0 4 0 C4.33 0.99 4.66 1.98 5 3 C5.66 2.01 6.32 1.02 7 0 C9.625 -0.1875 9.625 -0.1875 12 0 C12 0.66 12 1.32 12 2 C13.65 2 15.3 2 17 2 C17 1.34 17 0.68 17 0 C17.66 0 18.32 0 19 0 C19 0.66 19 1.32 19 2 C20.134375 1.979375 21.26875 1.95875 22.4375 1.9375 C26 2 26 2 27 3 C27.33 2.01 27.66 1.02 28 0 C28.99 0 29.98 0 31 0 C31.02696365 1.79158489 31.04637917 3.58328473 31.0625 5.375 C31.07410156 6.37273437 31.08570313 7.37046875 31.09765625 8.3984375 C31 11 31 11 30 13 C28.02 13 26.04 13 24 13 C24.33 10.36 24.66 7.72 25 5 C24.01 5 23.02 5 22 5 C22 6.98 22 8.96 22 11 C14.74 11 7.48 11 0 11 C0 7.37 0 3.74 0 0 Z " fill="#4E4D4D" transform="translate(156,108)"/>
<path d="M0 0 C4.63283632 0.50540033 7.82567634 2.48716802 11.4375 5.375 C13.51108419 8.48537628 13.73237123 9.37061252 13.75 12.9375 C13.77513672 14.11505859 13.77513672 14.11505859 13.80078125 15.31640625 C13.68089844 15.99574219 13.56101563 16.67507812 13.4375 17.375 C10.4375 19.375 10.4375 19.375 7.0625 19.3125 C1.62017419 17.90500195 -0.48608175 15.0613886 -3.4375 10.4375 C-4.73786305 6.8976228 -4.56626385 4.97182047 -3.5625 1.375 C-2.5625 0.375 -2.5625 0.375 0 0 Z " fill="#BC8236" transform="translate(176.5625,46.625)"/>
<path d="M0 0 C30.03 0 60.06 0 91 0 C91 0.33 91 0.66 91 1 C90.31292969 1.04898438 89.62585938 1.09796875 88.91796875 1.1484375 C87.56638672 1.26058594 87.56638672 1.26058594 86.1875 1.375 C85.29417969 1.44460937 84.40085937 1.51421875 83.48046875 1.5859375 C80.75601501 1.86645036 80.75601501 1.86645036 78 4 C77.01 3.34 76.02 2.68 75 2 C72.14825128 1.70874207 72.14825128 1.70874207 68.8762207 1.77294922 C66.98459953 1.77317581 66.98459953 1.77317581 65.05476379 1.77340698 C63.67843468 1.78362024 62.30210717 1.79405223 60.92578125 1.8046875 C59.51759542 1.80841828 58.109407 1.81126494 56.70121765 1.81326294 C52.9972719 1.82089436 49.29348332 1.84053852 45.58959961 1.8626709 C41.80910366 1.88313997 38.02858228 1.89226692 34.24804688 1.90234375 C26.83195964 1.92378496 19.41600186 1.95791487 12 2 C12 2.66 12 3.32 12 4 C11.01 4 10.02 4 9 4 C9 7.96 9 11.92 9 16 C7.35 16.33 5.7 16.66 4 17 C2 15 2 15 1.8046875 12.1796875 C1.82789063 11.08914062 1.85109375 9.99859375 1.875 8.875 C1.89304688 7.77929688 1.91109375 6.68359375 1.9296875 5.5546875 C1.95289063 4.71164063 1.97609375 3.86859375 2 3 C1.34 2.67 0.68 2.34 0 2 C0 1.34 0 0.68 0 0 Z " fill="#FDFCF3" transform="translate(207,202)"/>
<path d="M0 0 C-0.33 0.33 -0.66 0.66 -1 1 C-0.90997602 3.02408755 -0.75358962 5.04544287 -0.5625 7.0625 C-0.46066406 8.16722656 -0.35882813 9.27195313 -0.25390625 10.41015625 C-0.12822266 11.69212891 -0.12822266 11.69212891 0 13 C2.475 13.495 2.475 13.495 5 14 C5.33 10.04 5.66 6.08 6 2 C6.99 2 7.98 2 9 2 C9.08107583 3.93681161 9.13922475 5.8745934 9.1875 7.8125 C9.23970703 9.43091797 9.23970703 9.43091797 9.29296875 11.08203125 C9 14 9 14 7.70703125 15.859375 C4.8086906 17.79602367 2.35846182 17.41980773 -1 17 C-4.49681431 13.71511383 -4.47333487 10.37596678 -4.6875 5.75 C-4.75324219 4.48671875 -4.81898438 3.2234375 -4.88671875 1.921875 C-4.92410156 0.95765625 -4.96148437 -0.0065625 -5 -1 C-8.87601067 2.52372686 -8.87601067 2.52372686 -10.09765625 7.3828125 C-10.08605469 8.28773438 -10.07445312 9.19265625 -10.0625 10.125 C-10.04896484 11.49011719 -10.04896484 11.49011719 -10.03515625 12.8828125 C-10.02355469 13.58148438 -10.01195312 14.28015625 -10 15 C-10.66 15 -11.32 15 -12 15 C-12 15.66 -12 16.32 -12 17 C-12.99 17 -13.98 17 -15 17 C-15 11.39 -15 5.78 -15 0 C-15.66 -0.33 -16.32 -0.66 -17 -1 C-5.07692308 -3.38461538 -5.07692308 -3.38461538 0 0 Z " fill="#F6F6F3" transform="translate(210,204)"/>
<path d="M0 0 C0.99 0 1.98 0 3 0 C3 1.32 3 2.64 3 4 C3.66 4.33 4.32 4.66 5 5 C4.34 5 3.68 5 3 5 C3 8.63 3 12.26 3 16 C0.69 16 -1.62 16 -4 16 C-4.66 14.35 -5.32 12.7 -6 11 C-6.99 11.495 -6.99 11.495 -8 12 C-8.65213292 14.02463255 -8.65213292 14.02463255 -9 16 C-9.66 16 -10.32 16 -11 16 C-11 11.05 -11 6.1 -11 1 C-10.01 1 -9.02 1 -8 1 C-7.34 1.99 -6.68 2.98 -6 4 C-4.35 3.67 -2.7 3.34 -1 3 C-0.67 2.01 -0.34 1.02 0 0 Z " fill="#F3F2F0" transform="translate(95,205)"/>
<path d="M0 0 C1.32 0 2.64 0 4 0 C4.06058594 0.90363281 4.12117188 1.80726562 4.18359375 2.73828125 C4.30927734 4.50751953 4.30927734 4.50751953 4.4375 6.3125 C4.51871094 7.48425781 4.59992188 8.65601562 4.68359375 9.86328125 C4.8867371 13.02590958 4.8867371 13.02590958 6 16 C0.06 16 -5.88 16 -12 16 C-12 15.67 -12 15.34 -12 15 C-8.92382812 14.70703125 -8.92382812 14.70703125 -5.84765625 14.4140625 C-5.23792969 14.27742188 -4.62820312 14.14078125 -4 14 C-3.67 13.34 -3.34 12.68 -3 12 C-4.32 11.34 -5.64 10.68 -7 10 C-7.04254356 8.00045254 -7.04080783 5.99958364 -7 4 C-6 3 -6 3 -2.9375 2.9375 C-1.4834375 2.9684375 -1.4834375 2.9684375 0 3 C0 2.01 0 1.02 0 0 Z " fill="#222121" transform="translate(204,108)"/>
<path d="M0 0 C0.99 0 1.98 0 3 0 C3.14930394 4.14414141 3.25765166 8.28682373 3.32958984 12.43286133 C3.35960197 13.84036556 3.40042758 15.24768527 3.45263672 16.65454102 C3.92961238 29.84619141 3.92961238 29.84619141 0.1640625 34.40234375 C-2.98957645 37.43499034 -5.88283093 38.13306835 -10.1875 38.0625 C-11.445625 38.041875 -12.70375 38.02125 -14 38 C-14 37.34 -14 36.68 -14 36 C-12.7625 35.7525 -11.525 35.505 -10.25 35.25 C-6.47798184 34.3086645 -4.40423057 33.17358435 -2 30 C-0.92044788 26.76134365 -0.79558259 24.20844162 -0.68359375 20.80078125 C-0.64169922 19.59228516 -0.59980469 18.38378906 -0.55664062 17.13867188 C-0.51732422 15.87603516 -0.47800781 14.61339844 -0.4375 13.3125 C-0.39431641 12.03826172 -0.35113281 10.76402344 -0.30664062 9.45117188 C-0.2004514 6.30089148 -0.09840467 3.15053161 0 0 Z " fill="#292927" transform="translate(235,154)"/>
<path d="M0 0 C2.33294775 -0.04241723 4.66702567 -0.04092937 7 0 C8 1 8 1 8.1875 3.4375 C8 6 8 6 6 8 C5.01 8 4.02 8 3 8 C3 9.98 3 11.96 3 14 C9.6 14 16.2 14 23 14 C23 14.33 23 14.66 23 15 C3.53 15 -15.94 15 -36 15 C-36 14.67 -36 14.34 -36 14 C-24.78 13.67 -13.56 13.34 -2 13 C-1.34 8.71 -0.68 4.42 0 0 Z " fill="#2D2B2C" transform="translate(188,111)"/>
<path d="M0 0 C1.32 0 2.64 0 4 0 C4.144375 0.804375 4.28875 1.60875 4.4375 2.4375 C4.74135249 4.92103706 4.74135249 4.92103706 6 6 C6 8.33333333 6 10.66666667 6 13 C6.33 13.99 6.66 14.98 7 16 C4.60676196 18.39323804 3.26851362 18.44196109 0 19 C-0.99 19.33 -1.98 19.66 -3 20 C-3 19.34 -3 18.68 -3 18 C-3.66 18 -4.32 18 -5 18 C-5.01458252 18.55985596 -5.02916504 19.11971191 -5.04418945 19.6965332 C-5.11871352 22.23588137 -5.21535581 24.77392078 -5.3125 27.3125 C-5.34633789 28.63411133 -5.34633789 28.63411133 -5.38085938 29.98242188 C-5.41630859 30.82998047 -5.45175781 31.67753906 -5.48828125 32.55078125 C-5.51446533 33.33106689 -5.54064941 34.11135254 -5.56762695 34.9152832 C-6.10287402 37.49601426 -6.89081336 38.44982179 -9 40 C-11.6875 39.6875 -11.6875 39.6875 -14 39 C-14 38.34 -14 37.68 -14 37 C-12.02 37 -10.04 37 -8 37 C-8.01571045 36.40461426 -8.0314209 35.80922852 -8.04760742 35.19580078 C-8.10985801 32.50562997 -8.14895783 29.81561043 -8.1875 27.125 C-8.21263672 26.18785156 -8.23777344 25.25070313 -8.26367188 24.28515625 C-8.27817383 22.94130859 -8.27817383 22.94130859 -8.29296875 21.5703125 C-8.31653442 20.32918701 -8.31653442 20.32918701 -8.34057617 19.06298828 C-8.22818604 18.38220215 -8.1157959 17.70141602 -8 17 C-5 15 -5 15 -1.375 14.5 C-0.26125 14.335 0.8525 14.17 2 14 C3.39935013 11.20129973 3.25265405 9.09501208 3 6 C1.56249809 4.31201173 1.56249809 4.31201173 0 3 C0 2.01 0 1.02 0 0 Z " fill="#2C1F12" transform="translate(202,66)"/>
<path d="M0 0 C3.39576062 -0.05830787 6.7913915 -0.09369946 10.1875 -0.125 C11.14720703 -0.14175781 12.10691406 -0.15851563 13.09570312 -0.17578125 C14.02705078 -0.18222656 14.95839844 -0.18867188 15.91796875 -0.1953125 C16.77156982 -0.20578613 17.6251709 -0.21625977 18.50463867 -0.22705078 C21.30726815 0.02795806 23.44729419 0.84458578 26 2 C26.33 1.67 26.66 1.34 27 1 C28.68608966 0.92794489 30.37500659 0.91613932 32.0625 0.9375 C32.98160156 0.94652344 33.90070313 0.95554688 34.84765625 0.96484375 C35.55792969 0.97644531 36.26820313 0.98804688 37 1 C37.495 2.485 37.495 2.485 38 4 C36.68 4 35.36 4 34 4 C33.566875 5.8871875 33.566875 5.8871875 33.125 7.8125 C32.42696461 10.8539399 31.79553415 12.30669878 30 15 C29.74605469 14.28972656 29.49210937 13.57945312 29.23046875 12.84765625 C28.88628906 11.92855469 28.54210937 11.00945312 28.1875 10.0625 C27.85105469 9.14597656 27.51460937 8.22945312 27.16796875 7.28515625 C26.16590906 4.6659576 26.16590906 4.6659576 23 4 C23 8.95 23 13.9 23 19 C22.67 19 22.34 19 22 19 C22 14.05 22 9.1 22 4 C21.01 4 20.02 4 19 4 C19 3.01 19 2.02 19 1 C12.73 1 6.46 1 0 1 C0 0.67 0 0.34 0 0 Z " fill="#EFEEEB" transform="translate(102,202)"/>
<path d="M0 0 C2.475 0.99 2.475 0.99 5 2 C5 3.32 5 4.64 5 6 C5.66 6 6.32 6 7 6 C7 6.66 7 7.32 7 8 C6.34 8 5.68 8 5 8 C5 10.31 5 12.62 5 15 C5.66 15 6.32 15 7 15 C7 15.66 7 16.32 7 17 C5.35 16.67 3.7 16.34 2 16 C2 13.36 2 10.72 2 8 C1.34 8 0.68 8 0 8 C0 10.97 0 13.94 0 17 C-1.32 17 -2.64 17 -4 17 C-4.19448477 14.87562788 -4.38038289 12.75046809 -4.5625 10.625 C-4.66691406 9.44164062 -4.77132813 8.25828125 -4.87890625 7.0390625 C-5 4 -5 4 -4 2 C-2.68 2 -1.36 2 0 2 C0 1.34 0 0.68 0 0 Z " fill="#9C9B99" transform="translate(282,204)"/>
<path d="M0 0 C1.76537109 -0.00386719 1.76537109 -0.00386719 3.56640625 -0.0078125 C6.4375 0.125 6.4375 0.125 7.4375 1.125 C7.5625 3.625 7.5625 3.625 7.4375 6.125 C6.4375 7.125 6.4375 7.125 3.875 7.1875 C2.6684375 7.1565625 2.6684375 7.1565625 1.4375 7.125 C1.4375 8.445 1.4375 9.765 1.4375 11.125 C-1.89583333 11.125 -5.22916667 11.125 -8.5625 11.125 C-8.5625 10.135 -8.5625 9.145 -8.5625 8.125 C-6.9125 8.455 -5.2625 8.785 -3.5625 9.125 C-4.5525 8.465 -5.5425 7.805 -6.5625 7.125 C-7.5525 6.465 -8.5425 5.805 -9.5625 5.125 C-9.1875 3.1875 -9.1875 3.1875 -8.5625 1.125 C-5.69616205 -0.30816898 -3.19014499 -0.00700361 0 0 Z " fill="#898989" transform="translate(146.5625,128.875)"/>
<path d="M0 0 C8.30078125 -0.390625 8.30078125 -0.390625 11 0 C12.85546875 2.015625 12.85546875 2.015625 14 4 C14.66 3.01 15.32 2.02 16 1 C16.66 1.33 17.32 1.66 18 2 C17.525625 2.556875 17.05125 3.11375 16.5625 3.6875 C14.87604004 6.18346074 14.41046893 8.0446237 14 11 C13.67 11 13.34 11 13 11 C13 9.35 13 7.7 13 6 C12.01 6 11.02 6 10 6 C9.5875 6.825 9.175 7.65 8.75 8.5 C7.88375 9.7375 7.88375 9.7375 7 11 C3.3125 11.3125 3.3125 11.3125 0 11 C0 7.37 0 3.74 0 0 Z " fill="#7F7F7F" transform="translate(191,129)"/>
<path d="M0 0 C6.8359375 -0.29296875 6.8359375 -0.29296875 9 0 C11 3 11 3 10.6875 6.625 C10 10 10 10 9 11 C7.33382885 11.04063832 5.66611905 11.042721 4 11 C3.67 12.32 3.34 13.64 3 15 C2.01 15 1.02 15 0 15 C0 10.05 0 5.1 0 0 Z " fill="#494846" transform="translate(171,210)"/>
<path d="M0 0 C1.32 0.33 2.64 0.66 4 1 C5.46742502 3.89652178 6.11450315 6.85648617 7 10 C8.32 6.7 9.64 3.4 11 0 C12.32 0 13.64 0 15 0 C15 4.95 15 9.9 15 15 C14.34 15 13.68 15 13 15 C12.67 11.7 12.34 8.4 12 5 C10.68 8.3 9.36 11.6 8 15 C7.34 15 6.68 15 6 15 C5.01 12.36 4.02 9.72 3 7 C2.67 9.64 2.34 12.28 2 15 C1.34 15 0.68 15 0 15 C0 10.05 0 5.1 0 0 Z " fill="#242422" transform="translate(125,206)"/>
<path d="M0 0 C0.66 0 1.32 0 2 0 C2 2.64 2 5.28 2 8 C2.66 8 3.32 8 4 8 C4.66 6.68 5.32 5.36 6 4 C6.99 4.33 7.98 4.66 9 5 C8.608125 5.53625 8.21625 6.0725 7.8125 6.625 C6.64661496 9.17119399 6.64661496 9.17119399 8.375 12.25 C8.91125 13.1575 9.4475 14.065 10 15 C8.125 14.6875 8.125 14.6875 6 14 C5.34 13.01 4.68 12.02 4 11 C3.67 12.32 3.34 13.64 3 15 C2.01 15 1.02 15 0 15 C0 14.34 0 13.68 0 13 C-0.66 13 -1.32 13 -2 13 C-2 13.66 -2 14.32 -2 15 C-2.99 15 -3.98 15 -5 15 C-5 11.37 -5 7.74 -5 4 C-3.68 4 -2.36 4 -1 4 C-0.67 2.68 -0.34 1.36 0 0 Z " fill="#2B2A28" transform="translate(73,206)"/>
<path d="M0 0 C-0.33 0.33 -0.66 0.66 -1 1 C1.66992424 3.66992424 3.00240023 3.27199666 6.73486328 3.31884766 C7.93595734 3.33871735 9.13705139 3.35858704 10.37454224 3.37905884 C12.32769852 3.39638565 12.32769852 3.39638565 14.3203125 3.4140625 C15.66268107 3.4327677 17.00503781 3.45234062 18.34738159 3.4727478 C21.88186678 3.52414391 25.41639012 3.56372926 28.9510498 3.60089111 C32.55730688 3.64088414 36.16340422 3.69199783 39.76953125 3.7421875 C46.84623729 3.8390351 53.92304339 3.92341142 61 4 C61 4.33 61 4.66 61 5 C36.58 5 12.16 5 -13 5 C-12.34 3.35 -11.68 1.7 -11 0 C-9.54263913 -0.19491452 -8.08405407 -0.38069358 -6.625 -0.5625 C-5.81289062 -0.66691406 -5.00078125 -0.77132812 -4.1640625 -0.87890625 C-2 -1 -2 -1 0 0 Z " fill="#F6FAF9" transform="translate(231,192)"/>
<path d="M0 0 C1.32 0 2.64 0 4 0 C4.37125 1.670625 4.37125 1.670625 4.75 3.375 C5.58909162 6.97692685 5.58909162 6.97692685 7.76953125 8.2109375 C12.66568993 9.94302866 18.06600874 9.4341613 23.0625 8.3125 C25.26384183 7.11573808 25.26384183 7.11573808 25.8125 4.375 C25.9053125 3.199375 25.9053125 3.199375 26 2 C26.66 2.33 27.32 2.66 28 3 C28.3125 5.25 28.3125 5.25 28 8 C22.53028727 13.18183311 18.54581372 13.34185989 11.21484375 13.28515625 C6.8364532 12.89679354 5.12388958 12.03946013 2 9 C-0.12272015 6.00889434 -0.20086799 3.61562381 0 0 Z " fill="#282826" transform="translate(117,179)"/>
<path d="M0 0 C1.5631897 0.00785522 1.5631897 0.00785522 3.15795898 0.01586914 C4.28266602 0.0190918 5.40737305 0.02231445 6.56616211 0.02563477 C7.75016602 0.03401367 8.93416992 0.04239258 10.15405273 0.05102539 C11.34192383 0.05553711 12.52979492 0.06004883 13.75366211 0.06469727 C16.69967499 0.07652864 19.64558954 0.09301252 22.59155273 0.11352539 C22.92155273 0.77352539 23.25155273 1.43352539 23.59155273 2.11352539 C17.98155273 2.11352539 12.37155273 2.11352539 6.59155273 2.11352539 C6.59155273 2.77352539 6.59155273 3.43352539 6.59155273 4.11352539 C5.93155273 4.11352539 5.27155273 4.11352539 4.59155273 4.11352539 C4.59155273 8.40352539 4.59155273 12.69352539 4.59155273 17.11352539 C3.93155273 17.44352539 3.27155273 17.77352539 2.59155273 18.11352539 C0.96655273 15.86352539 0.96655273 15.86352539 -0.40844727 13.11352539 C0.40405273 10.80102539 0.40405273 10.80102539 1.59155273 9.11352539 C-0.88344727 8.12352539 -0.88344727 8.12352539 -3.40844727 7.11352539 C-3.45099083 5.11397793 -3.44925509 3.11310903 -3.40844727 1.11352539 C-2.40844727 0.11352539 -2.40844727 0.11352539 0 0 Z " fill="#F9F7EF" transform="translate(79.408447265625,201.886474609375)"/>
<path d="M0 0 C2.88671875 1.80078125 2.88671875 1.80078125 5 4 C5.8125 7.75 5.8125 7.75 6 11 C5.01 11 4.02 11 3 11 C2.731875 10.21625 2.46375 9.4325 2.1875 8.625 C1.15185568 5.71885077 1.15185568 5.71885077 -2 4 C-4.41150258 3.68337561 -4.41150258 3.68337561 -7 3.75 C-8.299375 3.74226562 -8.299375 3.74226562 -9.625 3.734375 C-12.265795 3.84585448 -12.265795 3.84585448 -15 6 C-15.73606499 9.56769552 -15.73606499 9.56769552 -16 13 C-16.99 13 -17.98 13 -19 13 C-19.38305588 8.47994058 -19.55062253 6.0165339 -17.375 2 C-11.99241725 -1.18967867 -6.09625751 -1.02309877 0 0 Z " fill="#2A2A29" transform="translate(138,154)"/>
<path d="M0 0 C1.9375 1.625 1.9375 1.625 3 4 C2.875 7.125 2.875 7.125 2 10 C-1 12 -1 12 -4.0625 11.8125 C-7 11 -7 11 -9 8 C-9.35384949 5.16920408 -9.3920891 3.63169911 -7.875 1.1875 C-5.09996189 -0.57002414 -3.21070255 -0.46822746 0 0 Z " fill="#606060" transform="translate(223,42)"/>
<path d="M0 0 C1.65 0 3.3 0 5 0 C5 11.88 5 23.76 5 36 C4.01 36 3.02 36 2 36 C1.97494385 34.9805127 1.9498877 33.96102539 1.92407227 32.91064453 C1.83002996 29.13479646 1.72980163 25.35913373 1.62768555 21.58349609 C1.58432462 19.94812347 1.54265039 18.31270523 1.50268555 16.67724609 C1.44501088 14.32896159 1.38130871 11.98090696 1.31640625 9.6328125 C1.29969376 8.89942657 1.28298126 8.16604065 1.26576233 7.41043091 C1.21362038 3.57797692 1.21362038 3.57797692 0 0 Z " fill="#171812" transform="translate(190,155)"/>
<path d="M0 0 C4.63283632 0.50540033 7.82567634 2.48716802 11.4375 5.375 C13.8669516 9.0191774 13.59929575 11.08741272 13.4375 15.375 C11.4575 16.365 11.4575 16.365 9.4375 17.375 C8.7775 14.075 8.1175 10.775 7.4375 7.375 C6.4475 7.375 5.4575 7.375 4.4375 7.375 C3.7775 7.375 3.1175 7.375 2.4375 7.375 C2.1075 5.725 1.7775 4.075 1.4375 2.375 C0.1175 2.375 -1.2025 2.375 -2.5625 2.375 C-2.10886829 3.95968677 -1.64938548 5.54269924 -1.1875 7.125 C-0.93226563 8.00671875 -0.67703125 8.8884375 -0.4140625 9.796875 C0.3584934 12.13580572 1.27375676 14.20942562 2.4375 16.375 C1.7775 16.375 1.1175 16.375 0.4375 16.375 C-4.60359108 8.52555022 -4.60359108 8.52555022 -4.4375 3.875 C-3.24758997 0.47525707 -3.24758997 0.47525707 0 0 Z " fill="#B37F38" transform="translate(176.5625,46.625)"/>
<path d="M0 0 C0 0.33 0 0.66 0 1 C-1.65 1.33 -3.3 1.66 -5 2 C-5.33 7.61 -5.66 13.22 -6 19 C-7.65 19.33 -9.3 19.66 -11 20 C-13 17 -13 17 -12.66015625 15.140625 C-12.44230469 14.43421875 -12.22445312 13.7278125 -12 13 C-11.7856066 11.25309081 -11.59892347 9.5025977 -11.4375 7.75 C-11.35371094 6.85796875 -11.26992187 5.9659375 -11.18359375 5.046875 C-11.12300781 4.37140625 -11.06242188 3.6959375 -11 3 C-10.01 3 -9.02 3 -8 3 C-8 2.34 -8 1.68 -8 1 C-4.93251126 -0.86240388 -3.40254489 -1.2151946 0 0 Z " fill="#B57F48" transform="translate(177,80)"/>
<path d="M0 0 C1.29111191 0.0001133 1.29111191 0.0001133 2.60830688 0.00022888 C3.53855682 0.00539017 4.46880676 0.01055145 5.42724609 0.01586914 C6.37884613 0.01728409 7.33044617 0.01869904 8.31088257 0.02015686 C11.35751456 0.02576527 14.40407372 0.0383192 17.45068359 0.05102539 C19.51318253 0.05603931 21.57568262 0.0606024 23.63818359 0.06469727 C28.70071176 0.07573744 33.76318532 0.09300772 38.82568359 0.11352539 C38.82568359 0.44352539 38.82568359 0.77352539 38.82568359 1.11352539 C37.65996826 1.13858154 36.49425293 1.1636377 35.29321289 1.18945312 C30.97132228 1.2835723 26.6495907 1.38378208 22.32788086 1.48583984 C20.45682493 1.52917161 18.5857299 1.57084796 16.71459961 1.61083984 C14.02624729 1.66858488 11.33809144 1.7322672 8.64990234 1.79711914 C7.39351204 1.82218788 7.39351204 1.82218788 6.11174011 1.84776306 C2.78895071 1.932666 -0.00183658 2.05603212 -3.17431641 3.11352539 C-0.20431641 3.60852539 -0.20431641 3.60852539 2.82568359 4.11352539 C2.05224609 5.19633789 2.05224609 5.19633789 1.26318359 6.30102539 C-0.38874622 9.53306199 -0.23783316 10.72960846 0.82568359 14.11352539 C-1.75822759 12.31401582 -4.10850006 10.50034578 -6.17431641 8.11352539 C-6.61181641 4.23852539 -6.61181641 4.23852539 -6.17431641 1.11352539 C-3.86611133 -0.04057715 -2.56647364 -0.00750431 0 0 Z " fill="#966A3D" transform="translate(163.17431640625,67.886474609375)"/>
<path d="M0 0 C0.5775 0.226875 1.155 0.45375 1.75 0.6875 C1.75 1.3475 1.75 2.0075 1.75 2.6875 C0.76 2.6875 -0.23 2.6875 -1.25 2.6875 C-1.25 6.6475 -1.25 10.6075 -1.25 14.6875 C-2.9 15.0175 -4.55 15.3475 -6.25 15.6875 C-8.25 13.6875 -8.25 13.6875 -8.4453125 11.0859375 C-8.42210937 10.08820313 -8.39890625 9.09046875 -8.375 8.0625 C-8.35695312 7.05960938 -8.33890625 6.05671875 -8.3203125 5.0234375 C-8.29710937 4.25257813 -8.27390625 3.48171875 -8.25 2.6875 C-7.59 2.6875 -6.93 2.6875 -6.25 2.6875 C-5.63125 2.171875 -5.0125 1.65625 -4.375 1.125 C-2.25 -0.3125 -2.25 -0.3125 0 0 Z " fill="#F6F6F4" transform="translate(217.25,203.3125)"/>
<path d="M0 0 C0.99 0 1.98 0 3 0 C3 2.31 3 4.62 3 7 C4.32 7.33 5.64 7.66 7 8 C6.67 8.99 6.34 9.98 6 11 C6 10.34 6 9.68 6 9 C-4.56 9 -15.12 9 -26 9 C-26 8.67 -26 8.34 -26 8 C-23.03 8 -20.06 8 -17 8 C-17 7.34 -17 6.68 -17 6 C-16.34 6 -15.68 6 -15 6 C-15 4.35 -15 2.7 -15 1 C-14.67 1 -14.34 1 -14 1 C-14 2.65 -14 4.3 -14 6 C-13.44828125 5.82597656 -12.8965625 5.65195313 -12.328125 5.47265625 C-9.63524347 4.92594708 -7.47352596 5.11497719 -4.75 5.4375 C-3.85796875 5.53933594 -2.9659375 5.64117187 -2.046875 5.74609375 C-1.37140625 5.82988281 -0.6959375 5.91367188 0 6 C0 4.02 0 2.04 0 0 Z " fill="#242223" transform="translate(178,113)"/>
<path d="M0 0 C0.99 0 1.98 0 3 0 C3.33 3.63 3.66 7.26 4 11 C5.65 11.33 7.3 11.66 9 12 C9.33 8.04 9.66 4.08 10 0 C10.99 0 11.98 0 13 0 C13.08107583 1.93681161 13.13922475 3.8745934 13.1875 5.8125 C13.22230469 6.89144531 13.25710937 7.97039062 13.29296875 9.08203125 C13 12 13 12 11.70703125 13.859375 C8.8086906 15.79602367 6.35846182 15.41980773 3 15 C0.69213 12.74494167 0.04507075 11.43027538 -0.29296875 8.203125 C-0.25816406 7.22859375 -0.22335938 6.2540625 -0.1875 5.25 C-0.16042969 4.26515625 -0.13335937 3.2803125 -0.10546875 2.265625 C-0.07066406 1.51796875 -0.03585938 0.7703125 0 0 Z " fill="#343331" transform="translate(206,206)"/>
<path d="M0 0 C2.47923801 -0.02685095 4.9581884 -0.04676547 7.4375 -0.0625 C8.14455078 -0.07087891 8.85160156 -0.07925781 9.58007812 -0.08789062 C11.38693559 -0.09653588 13.19387603 -0.05220011 15 0 C16 1 16 1 16.09765625 3.28515625 C16.08605469 4.20167969 16.07445313 5.11820313 16.0625 6.0625 C16.05347656 6.98160156 16.04445313 7.90070313 16.03515625 8.84765625 C16.02355469 9.55792969 16.01195313 10.26820313 16 11 C15.34 11 14.68 11 14 11 C14 8.03 14 5.06 14 2 C12.68 2.33 11.36 2.66 10 3 C9.67 5.64 9.34 8.28 9 11 C8.34 11 7.68 11 7 11 C7 8.03 7 5.06 7 2 C6.01 2.33 5.02 2.66 4 3 C3.67 5.64 3.34 8.28 3 11 C2.01 11 1.02 11 0 11 C0 7.37 0 3.74 0 0 Z " fill="#272725" transform="translate(100,210)"/>
<path d="M0 0 C2.05078125 0.03255208 4.1015625 0.06510417 6.15234375 0.09765625 C6.48234375 1.41765625 6.81234375 2.73765625 7.15234375 4.09765625 C4.84234375 3.76765625 2.53234375 3.43765625 0.15234375 3.09765625 C0.15234375 3.75765625 0.15234375 4.41765625 0.15234375 5.09765625 C2.79234375 6.08765625 5.43234375 7.07765625 8.15234375 8.09765625 C8.33984375 10.47265625 8.33984375 10.47265625 8.15234375 13.09765625 C4.68310494 15.41048212 3.230288 15.52244211 -0.84765625 15.09765625 C-2.72265625 13.72265625 -2.72265625 13.72265625 -3.84765625 12.09765625 C-3.84765625 11.43765625 -3.84765625 10.77765625 -3.84765625 10.09765625 C-2.85765625 10.09765625 -1.86765625 10.09765625 -0.84765625 10.09765625 C-0.51765625 10.75765625 -0.18765625 11.41765625 0.15234375 12.09765625 C1.47234375 12.09765625 2.79234375 12.09765625 4.15234375 12.09765625 C4.48234375 11.10765625 4.81234375 10.11765625 5.15234375 9.09765625 C4.01796875 8.95328125 2.88359375 8.80890625 1.71484375 8.66015625 C-1.84765625 8.09765625 -1.84765625 8.09765625 -2.84765625 7.09765625 C-2.97265625 4.09765625 -2.97265625 4.09765625 -2.84765625 1.09765625 C-1.84765625 0.09765625 -1.84765625 0.09765625 0 0 Z " fill="#2B2A29" transform="translate(57.84765625,205.90234375)"/>
<path d="M0 0 C1.32 0 2.64 0 4 0 C4.33 0.99 4.66 1.98 5 3 C5.66 2.01 6.32 1.02 7 0 C7.99 0 8.98 0 10 0 C10 3.63 10 7.26 10 11 C6.7 11 3.4 11 0 11 C0 7.37 0 3.74 0 0 Z " fill="#DAD9DA" transform="translate(156,108)"/>
<path d="M0 0 C2.875 -0.125 2.875 -0.125 6 0 C9.15771423 3.15771423 8.62506773 6.62579022 9 11 C5.7 11 2.4 11 -1 11 C-1.33 9.35 -1.66 7.7 -2 6 C1 4 1 4 5 4 C5 3.34 5 2.68 5 2 C3.02 2.33 1.04 2.66 -1 3 C-0.67 2.01 -0.34 1.02 0 0 Z " fill="#949391" transform="translate(144,210)"/>
<path d="M0 0 C0.99 0 1.98 0 3 0 C3.02696365 1.79158489 3.04637917 3.58328473 3.0625 5.375 C3.07410156 6.37273437 3.08570313 7.37046875 3.09765625 8.3984375 C3 11 3 11 2 13 C0.02 13 -1.96 13 -4 13 C-3.67 10.36 -3.34 7.72 -3 5 C-3.99 5 -4.98 5 -6 5 C-6 6.98 -6 8.96 -6 11 C-6.66 11 -7.32 11 -8 11 C-8 8.36 -8 5.72 -8 3 C-5.69 3 -3.38 3 -1 3 C-0.67 2.01 -0.34 1.02 0 0 Z " fill="#838081" transform="translate(184,108)"/>
<path d="M0 0 C2.33294775 -0.04241723 4.66702567 -0.04092937 7 0 C8.66342837 1.66342837 8.36048097 3.7825709 8.5625 6.0625 C8.64628906 6.98160156 8.73007813 7.90070313 8.81640625 8.84765625 C8.87699219 9.55792969 8.93757812 10.26820313 9 11 C7.52093108 11.02689216 6.04172517 11.04634621 4.5625 11.0625 C3.32693359 11.07990234 3.32693359 11.07990234 2.06640625 11.09765625 C0 11 0 11 -1 10 C-1.04063832 8.33382885 -1.042721 6.66611905 -1 5 C2.465 4.505 2.465 4.505 6 4 C6 3.34 6 2.68 6 2 C3.69 2.33 1.38 2.66 -1 3 C-0.67 2.01 -0.34 1.02 0 0 Z " fill="#6B6A68" transform="translate(185,210)"/>
<path d="M0 0 C1.98 0 3.96 0 6 0 C4.02 0.99 4.02 0.99 2 2 C2.33 2.33 2.66 2.66 3 3 C3.08847743 5.52094076 3.11527301 8.01430893 3.09765625 10.53515625 C3.0962413 11.28840683 3.09482635 12.04165741 3.09336853 12.81773376 C3.08775376 15.2326956 3.07519883 17.64756601 3.0625 20.0625 C3.0574869 21.69596221 3.05292366 23.32942586 3.04882812 24.96289062 C3.03777954 28.97529585 3.02050506 32.98763241 3 37 C3.99 37.33 4.98 37.66 6 38 C4.68 38 3.36 38 2 38 C1.67 28.76 1.34 19.52 1 10 C0.01 10.99 -0.98 11.98 -2 13 C-3.71050559 8.02398374 -2.00885647 4.57383705 0 0 Z " fill="#575754" transform="translate(189,154)"/>
<path d="M0 0 C3.465 1.485 3.465 1.485 7 3 C7.33 2.34 7.66 1.68 8 1 C7.67 2.32 7.34 3.64 7 5 C6.01 5 5.02 5 4 5 C4 8.63 4 12.26 4 16 C3.01 15.34 2.02 14.68 1 14 C0.8125 11.375 0.8125 11.375 1 9 C-1.64 8.01 -4.28 7.02 -7 6 C-6.67 5.01 -6.34 4.02 -6 3 C-1.25 3.875 -1.25 3.875 1 5 C0.67 3.35 0.34 1.7 0 0 Z " fill="#F0EFEE" transform="translate(64,205)"/>
<path d="M0 0 C7.75 -0.125 7.75 -0.125 10 1 C10 4.3 10 7.6 10 11 C9.01 11 8.02 11 7 11 C7 8.03 7 5.06 7 2 C6.01 2.33 5.02 2.66 4 3 C3.67 5.64 3.34 8.28 3 11 C2.01 11 1.02 11 0 11 C0 7.37 0 3.74 0 0 Z " fill="#484745" transform="translate(154,210)"/>
<path d="M0 0 C2.875 -0.125 2.875 -0.125 6 0 C6.66 0.66 7.32 1.32 8 2 C7.625 5.625 7.625 5.625 7 9 C4.69 9.33 2.38 9.66 0 10 C0 6.7 0 3.4 0 0 Z " fill="#454545" transform="translate(178,130)"/>
<path d="M0 0 C2.81083807 2.81083807 3.77143886 6.21585145 5.125 9.875 C5.40214844 10.59558594 5.67929688 11.31617188 5.96484375 12.05859375 C6.22652344 12.75855469 6.48820313 13.45851562 6.7578125 14.1796875 C6.9964502 14.81632324 7.23508789 15.45295898 7.48095703 16.10888672 C8 18 8 18 8 22 C5 21 5 21 3.98510742 19.3894043 C3.03612348 17.1614123 2.0967595 14.93206147 1.1875 12.6875 C0.85041016 11.91470703 0.51332031 11.14191406 0.16601562 10.34570312 C-0.14271484 9.59611328 -0.45144531 8.84652344 -0.76953125 8.07421875 C-1.05417236 7.38932373 -1.33881348 6.70442871 -1.63208008 5.9987793 C-2.1119745 3.39168201 -1.36377008 2.21029071 0 0 Z " fill="#2C2B29" transform="translate(166,160)"/>
<path d="M0 0 C2.5 0.25 2.5 0.25 4.5 2.25 C4.5 3.57 4.5 4.89 4.5 6.25 C2.19 6.25 -0.12 6.25 -2.5 6.25 C-2.17 6.91 -1.84 7.57 -1.5 8.25 C0.48 8.25 2.46 8.25 4.5 8.25 C4.5 8.91 4.5 9.57 4.5 10.25 C1.125 10.875 1.125 10.875 -2.5 11.25 C-4.5 9.25 -4.5 9.25 -4.75 5.75 C-4.46177779 1.71488904 -4.15174939 0.41517494 0 0 Z " fill="#222220" transform="translate(253.5,209.75)"/>
<path d="M0 0 C2.97 0 5.94 0 9 0 C10.20272819 2.40545638 10.10071472 3.94996953 10.0625 6.625 C10.05347656 7.44226563 10.04445312 8.25953125 10.03515625 9.1015625 C10.02355469 9.72804687 10.01195312 10.35453125 10 11 C9.01 11 8.02 11 7 11 C7 8.03 7 5.06 7 2 C5.68 2 4.36 2 3 2 C3 4.97 3 7.94 3 11 C2.01 11 1.02 11 0 11 C0 7.37 0 3.74 0 0 Z " fill="#403F3E" transform="translate(221,210)"/>
<path d="M0 0 C2.33294775 -0.04241723 4.66702567 -0.04092937 7 0 C8 1 8 1 8.1875 3.4375 C8 6 8 6 6 8 C5.01 8 4.02 8 3 8 C3 8.99 3 9.98 3 11 C2.01 11 1.02 11 0 11 C0 7.37 0 3.74 0 0 Z " fill="#989697" transform="translate(188,111)"/>
<path d="M0 0 C1.5 1.125 1.5 1.125 3 3 C3.42478586 7.07794425 3.31282587 8.53076119 1 12 C-1.1640625 12.51171875 -1.1640625 12.51171875 -3.625 12.6875 C-4.44226563 12.75324219 -5.25953125 12.81898437 -6.1015625 12.88671875 C-6.72804687 12.92410156 -7.35453125 12.96148437 -8 13 C-8 12.01 -8 11.02 -8 10 C-6.02 10 -4.04 10 -2 10 C-2 7.69 -2 5.38 -2 3 C-4.64 2.67 -7.28 2.34 -10 2 C-10 1.67 -10 1.34 -10 1 C-9.36191406 1.01160156 -8.72382813 1.02320312 -8.06640625 1.03515625 C-7.24011719 1.04417969 -6.41382813 1.05320312 -5.5625 1.0625 C-4.32693359 1.07990234 -4.32693359 1.07990234 -3.06640625 1.09765625 C-1.00836062 1.23267348 -1.00836062 1.23267348 0 0 Z " fill="#B8803C" transform="translate(203,69)"/>
<path d="M0 0 C3.3 0 6.6 0 10 0 C10 0.66 10 1.32 10 2 C7.69 2.33 5.38 2.66 3 3 C3.33 4.65 3.66 6.3 4 8 C5.98 8 7.96 8 10 8 C9.67 8.99 9.34 9.98 9 11 C7.68 10.67 6.36 10.34 5 10 C4.67 10.66 4.34 11.32 4 12 C0.37 11.34 -3.26 10.68 -7 10 C-6.67 9.34 -6.34 8.68 -6 8 C-4.35 8 -2.7 8 -1 8 C-0.30903529 4.01600042 -0.30903529 4.01600042 0 0 Z " fill="#E4E3E1" transform="translate(181,212)"/>
<path d="M0 0 C0.66 0 1.32 0 2 0 C2 2.64 2 5.28 2 8 C3.32 6.68 4.64 5.36 6 4 C6.99 4.33 7.98 4.66 9 5 C8.34 6.32 7.68 7.64 7 9 C7.7425 9.928125 7.7425 9.928125 8.5 10.875 C10 13 10 13 10 15 C8.68 14.67 7.36 14.34 6 14 C5.67 12.68 5.34 11.36 5 10 C4.01 10.495 4.01 10.495 3 11 C2.34786708 13.02463255 2.34786708 13.02463255 2 15 C1.34 15 0.68 15 0 15 C0 10.05 0 5.1 0 0 Z " fill="#1E1D1B" transform="translate(84,206)"/>
<path d="M0 0 C0.99 0 1.98 0 3 0 C3.33 2.31 3.66 4.62 4 7 C4.66 7 5.32 7 6 7 C6.33 4.69 6.66 2.38 7 0 C7.99 0.33 8.98 0.66 10 1 C9.26950918 3.15255287 8.5149728 5.29695864 7.75 7.4375 C7.33234375 8.63246094 6.9146875 9.82742187 6.484375 11.05859375 C5 14 5 14 2.828125 14.91015625 C2.22484375 14.93980469 1.6215625 14.96945313 1 15 C1 14.34 1 13.68 1 13 C1.66 13 2.32 13 3 13 C2.7834375 12.31292969 2.566875 11.62585938 2.34375 10.91796875 C2.0653125 10.01691406 1.786875 9.11585938 1.5 8.1875 C1.2215625 7.29417969 0.943125 6.40085938 0.65625 5.48046875 C0 3 0 3 0 0 Z " fill="#353533" transform="translate(290,210)"/>
<path d="M0 0 C4.19189408 0.1612267 6.51099943 0.64625491 9.9375 3.125 C12.48038638 6.6696295 12.41856088 8.730679 12 13 C11.34 12.01 10.68 11.02 10 10 C9.67 11.65 9.34 13.3 9 15 C7 13 7 13 6.8046875 11.0546875 C6.90234375 8.02734375 6.90234375 8.02734375 7 5 C5.35 4.67 3.7 4.34 2 4 C2 3.34 2 2.68 2 2 C1.01 1.67 0.02 1.34 -1 1 C-0.67 0.67 -0.34 0.34 0 0 Z " fill="#2C2C2A" transform="translate(134,172)"/>
<path d="M0 0 C0.99 0 1.98 0 3 0 C3 3.63 3 7.26 3 11 C-0.3 11 -3.6 11 -7 11 C-7 7.7 -7 4.4 -7 1 C-6.34 1 -5.68 1 -5 1 C-5 3.64 -5 6.28 -5 9 C-3.35 9 -1.7 9 0 9 C0 6.03 0 3.06 0 0 Z " fill="#5B5B5B" transform="translate(221,129)"/>
<path d="M0 0 C2.64 0 5.28 0 8 0 C8 3.3 8 6.6 8 10 C7.34 10 6.68 10 6 10 C6 8.68 6 7.36 6 6 C4.68 6 3.36 6 2 6 C2 7.32 2 8.64 2 10 C1.34 10 0.68 10 0 10 C0 6.7 0 3.4 0 0 Z " fill="#7B7B7B" transform="translate(159,130)"/>
<path d="M0 0 C1.32 0 2.64 0 4 0 C4 8.25 4 16.5 4 25 C3.67 25 3.34 25 3 25 C2.67 18.73 2.34 12.46 2 6 C1.67 12.93 1.34 19.86 1 27 C0.67 27 0.34 27 0 27 C0 18.09 0 9.18 0 0 Z " fill="#504F4C" transform="translate(209,154)"/>
<path d="M0 0 C1.65 0 3.3 0 5 0 C5 6.27 5 12.54 5 19 C4.67 19 4.34 19 4 19 C4 13.72 4 8.44 4 3 C3.34 3 2.68 3 2 3 C2 7.62 2 12.24 2 17 C1.01 17 0.02 17 -1 17 C-0.67 11.39 -0.34 5.78 0 0 Z " fill="#311C0D" transform="translate(171,82)"/>
<path d="M0 0 C1.98 0.66 3.96 1.32 6 2 C6 2.33 6 2.66 6 3 C4.35 3.33 2.7 3.66 1 4 C0.83318891 6.91652174 0.83318891 6.91652174 1 10 C1.66 10.66 2.32 11.32 3 12 C2.67 12.66 2.34 13.32 2 14 C-0.64 14 -3.28 14 -6 14 C-6 13.01 -6 12.02 -6 11 C-4.68 10.34 -3.36 9.68 -2 9 C-2 7.35 -2 5.7 -2 4 C-4.31 3.67 -6.62 3.34 -9 3 C-9 2.67 -9 2.34 -9 2 C-6.94921875 1.77213542 -4.8984375 1.54427083 -2.84765625 1.31640625 C-0.98859771 1.18113386 -0.98859771 1.18113386 0 0 Z " fill="#292728" transform="translate(197,108)"/>
<path d="M0 0 C1.4540625 0.0309375 1.4540625 0.0309375 2.9375 0.0625 C3.2675 1.0525 3.5975 2.0425 3.9375 3.0625 C0.9675 2.5675 0.9675 2.5675 -2.0625 2.0625 C-2.0625 2.7225 -2.0625 3.3825 -2.0625 4.0625 C0.9075 4.5575 0.9075 4.5575 3.9375 5.0625 C4.2675 6.7125 4.5975 8.3625 4.9375 10.0625 C2.22870665 11.41689668 -0.07183268 11.12751451 -3.0625 11.0625 C-3.3925 10.0725 -3.7225 9.0825 -4.0625 8.0625 C-1.0925 8.5575 -1.0925 8.5575 1.9375 9.0625 C1.9375 8.0725 1.9375 7.0825 1.9375 6.0625 C0.2875 6.0625 -1.3625 6.0625 -3.0625 6.0625 C-3.44468767 4.40635343 -3.77645102 2.73792976 -4.0625 1.0625 C-3.0625 0.0625 -3.0625 0.0625 0 0 Z " fill="#31312F" transform="translate(272.0625,209.9375)"/>
<path d="M0 0 C2.475 0.495 2.475 0.495 5 1 C4.01 1.495 4.01 1.495 3 2 C3.2165625 2.60328125 3.433125 3.2065625 3.65625 3.828125 C3.9346875 4.62734375 4.213125 5.4265625 4.5 6.25 C4.7784375 7.03890625 5.056875 7.8278125 5.34375 8.640625 C6 11 6 11 6 15 C5.34 15 4.68 15 4 15 C3.67 15.66 3.34 16.32 3 17 C2.67 15.02 2.34 13.04 2 11 C1.34 11 0.68 11 0 11 C0 8.69 0 6.38 0 4 C0.66 4 1.32 4 2 4 C2 3.34 2 2.68 2 2 C1.34 2 0.68 2 0 2 C0 1.34 0 0.68 0 0 Z " fill="#EFEFED" transform="translate(287,208)"/>
<path d="M0 0 C0.99 0 1.98 0 3 0 C3 1.32 3 2.64 3 4 C3.66 4.33 4.32 4.66 5 5 C4.34 5 3.68 5 3 5 C3 8.63 3 12.26 3 16 C2.01 16 1.02 16 0 16 C-0.19504458 13.89651926 -0.38078496 11.79217415 -0.5625 9.6875 C-0.66691406 8.51574219 -0.77132812 7.34398437 -0.87890625 6.13671875 C-1 3 -1 3 0 0 Z " fill="#6E6C6B" transform="translate(95,205)"/>
<path d="M0 0 C0.99 0 1.98 0 3 0 C3 1.32 3 2.64 3 4 C3.67546875 3.97679687 4.3509375 3.95359375 5.046875 3.9296875 C6.38492188 3.90261719 6.38492188 3.90261719 7.75 3.875 C8.63171875 3.85179687 9.5134375 3.82859375 10.421875 3.8046875 C13.1135858 4.00860498 14.69904974 4.63448279 17 6 C16.67 6.66 16.34 7.32 16 8 C15.42507812 7.81308594 14.85015625 7.62617188 14.2578125 7.43359375 C11.69469478 6.94136872 10.33890074 7.28023494 7.875 8.0625 C6.59625 8.371875 5.3175 8.68125 4 9 C3.34 8.34 2.68 7.68 2 7 C2.33 6.67 2.66 6.34 3 6 C2.505 5.566875 2.01 5.13375 1.5 4.6875 C0 3 0 3 0 0 Z " fill="#F9F5F2" transform="translate(51,198)"/>
<path d="M0 0 C1.98 0 3.96 0 6 0 C7.0326802 2.78823655 7.04509293 3.8677274 6.0625 6.75 C5.711875 7.4925 5.36125 8.235 5 9 C3.68 9 2.36 9 1 9 C0.67 6.03 0.34 3.06 0 0 Z " fill="#7B7B7B" transform="translate(192,130)"/>
<path d="M0 0 C1.98 0.495 1.98 0.495 4 1 C4 3.64 4 6.28 4 9 C4.66 9 5.32 9 6 9 C6.33 8.01 6.66 7.02 7 6 C7 7.32 7 8.64 7 10 C4.69 10.33 2.38 10.66 0 11 C0 10.01 0 9.02 0 8 C-0.185625 6.989375 -0.37125 5.97875 -0.5625 4.9375 C-1 2 -1 2 0 0 Z " fill="#B77D48" transform="translate(182,55)"/>
<path d="M0 0 C0.99 0 1.98 0 3 0 C3 0.99 3 1.98 3 3 C3.66 3 4.32 3 5 3 C5 3.66 5 4.32 5 5 C4.34 5 3.68 5 3 5 C3 7.31 3 9.62 3 12 C3.66 12 4.32 12 5 12 C5 12.66 5 13.32 5 14 C3.35 13.67 1.7 13.34 0 13 C-0.19551338 11.39679026 -0.38111983 9.79237014 -0.5625 8.1875 C-0.71912109 6.84751953 -0.71912109 6.84751953 -0.87890625 5.48046875 C-1 3 -1 3 0 0 Z " fill="#3B3A39" transform="translate(284,207)"/>
<path d="M0 0 C3.39576062 -0.05830787 6.7913915 -0.09369946 10.1875 -0.125 C11.14720703 -0.14175781 12.10691406 -0.15851563 13.09570312 -0.17578125 C14.02705078 -0.18222656 14.95839844 -0.18867188 15.91796875 -0.1953125 C16.77156982 -0.20578613 17.6251709 -0.21625977 18.50463867 -0.22705078 C21.30726815 0.02795806 23.44729419 0.84458578 26 2 C25.01 2.33 24.02 2.66 23 3 C23 8.28 23 13.56 23 19 C22.67 19 22.34 19 22 19 C22 14.05 22 9.1 22 4 C21.01 4 20.02 4 19 4 C19 3.01 19 2.02 19 1 C12.73 1 6.46 1 0 1 C0 0.67 0 0.34 0 0 Z " fill="#DFDDD8" transform="translate(102,202)"/>
<path d="M0 0 C-0.33 0.33 -0.66 0.66 -1 1 C-0.34 1.66 0.32 2.32 1 3 C-3.84241633 4.33583899 -7.93437617 5.25328119 -13 5 C-12.34 3.35 -11.68 1.7 -11 0 C-9.54263913 -0.19491452 -8.08405407 -0.38069358 -6.625 -0.5625 C-5.81289062 -0.66691406 -5.00078125 -0.77132812 -4.1640625 -0.87890625 C-2 -1 -2 -1 0 0 Z " fill="#F3F2F0" transform="translate(231,192)"/>
<path d="M0 0 C1.32 0 2.64 0 4 0 C4.2475 1.093125 4.495 2.18625 4.75 3.3125 C6.02002851 7.05908409 6.65756352 8.10595266 10 10 C8.02 10.99 8.02 10.99 6 12 C2.59156258 9.11593757 1.13408616 7.6291735 0.1875 3.1875 C0.125625 2.135625 0.06375 1.08375 0 0 Z " fill="#272725" transform="translate(117,179)"/>
<path d="M0 0 C0.99 0 1.98 0 3 0 C3 7.92 3 15.84 3 24 C2.01 23.34 1.02 22.68 0 22 C-0.34057617 19.75341797 -0.34057617 19.75341797 -0.29296875 16.9921875 C-0.28330078 16.00605469 -0.27363281 15.01992187 -0.26367188 14.00390625 C-0.23853516 12.97136719 -0.21339844 11.93882812 -0.1875 10.875 C-0.17396484 9.83472656 -0.16042969 8.79445312 -0.14648438 7.72265625 C-0.11105228 5.14792373 -0.06165221 2.5742167 0 0 Z " fill="#12120F" transform="translate(235,154)"/>
<path d="M0 0 C1.66611905 -0.042721 3.33382885 -0.04063832 5 0 C6 1 6 1 6.0625 4.5625 C6.041875 5.696875 6.02125 6.83125 6 8 C4.02 8 2.04 8 0 8 C-0.98120464 4.94736336 -0.98120464 3.05263664 0 0 Z " fill="#DFDEDF" transform="translate(198,111)"/>
<path d="M0 0 C3.8718417 1.25573244 6.02838671 2.36808079 8 6 C8.1875 8.75 8.1875 8.75 8 11 C7.01 11 6.02 11 5 11 C4.5978125 9.824375 4.5978125 9.824375 4.1875 8.625 C3.15185568 5.71885077 3.15185568 5.71885077 0 4 C-2.27912938 3.54605448 -2.27912938 3.54605448 -4.6875 3.375 C-5.49574219 3.30023438 -6.30398437 3.22546875 -7.13671875 3.1484375 C-7.75160156 3.09945312 -8.36648437 3.05046875 -9 3 C-9 2.67 -9 2.34 -9 2 C-6.03 2 -3.06 2 0 2 C0 1.34 0 0.68 0 0 Z " fill="#3D3E39" transform="translate(136,154)"/>
<path d="M0 0 C0.66 0 1.32 0 2 0 C2.66 1.98 3.32 3.96 4 6 C4.99 4.02 5.98 2.04 7 0 C7.99 0.33 8.98 0.66 10 1 C8.68 4.3 7.36 7.6 6 11 C5.01 11 4.02 11 3 11 C0 4.5 0 4.5 0 0 Z " fill="#272726" transform="translate(238,210)"/>
<path d="M0 0 C1.32 0 2.64 0 4 0 C5.4783226 2.95664519 5.06032783 5.74229737 5 9 C4.34 9 3.68 9 3 9 C3 9.66 3 10.32 3 11 C2.01 11 1.02 11 0 11 C0 7.37 0 3.74 0 0 Z " fill="#858482" transform="translate(68,210)"/>
<path d="M0 0 C1.32 0 2.64 0 4 0 C4 4.95 4 9.9 4 15 C3.34 15 2.68 15 2 15 C1.67 11.7 1.34 8.4 1 5 C0.34 6.65 -0.32 8.3 -1 10 C-2.46726798 6.18510326 -1.43336419 3.70988378 0 0 Z " fill="#222120" transform="translate(136,206)"/>
<path d="M0 0 C2.12280563 3.18420845 2.28019537 4.20537255 2.4140625 7.88671875 C2.45273438 8.82451172 2.49140625 9.76230469 2.53125 10.72851562 C2.57765625 12.19321289 2.57765625 12.19321289 2.625 13.6875 C2.68300781 15.16959961 2.68300781 15.16959961 2.7421875 16.68164062 C2.83645867 19.12090707 2.92206218 21.56016595 3 24 C2.01 24.33 1.02 24.66 0 25 C0 16.75 0 8.5 0 0 Z " fill="#141410" transform="translate(210,157)"/>
<path d="M0 0 C0.99 0 1.98 0 3 0 C3 5.28 3 10.56 3 16 C2.01 16 1.02 16 0 16 C0 10.72 0 5.44 0 0 Z " fill="#2C2C2A" transform="translate(195,205)"/>
<path d="M0 0 C4.06196093 0.38320386 6.10717589 1.8703483 9.3125 4.3125 C8.9825 4.9725 8.6525 5.6325 8.3125 6.3125 C6.9925 5.6525 5.6725 4.9925 4.3125 4.3125 C4.3125 3.6525 4.3125 2.9925 4.3125 2.3125 C2.0025 2.3125 -0.3075 2.3125 -2.6875 2.3125 C-2.23386829 3.89718677 -1.77438548 5.48019924 -1.3125 7.0625 C-1.05726563 7.94421875 -0.80203125 8.8259375 -0.5390625 9.734375 C0.2334934 12.07330572 1.14875676 14.14692562 2.3125 16.3125 C1.6525 16.3125 0.9925 16.3125 0.3125 16.3125 C-4.72859108 8.46305022 -4.72859108 8.46305022 -4.5625 3.8125 C-3.36507576 0.39128788 -3.36507576 0.39128788 0 0 Z " fill="#AC7E53" transform="translate(176.6875,46.6875)"/>
<path d="M0 0 C1.32 0 2.64 0 4 0 C4.144375 0.804375 4.28875 1.60875 4.4375 2.4375 C4.74135249 4.92103706 4.74135249 4.92103706 6 6 C6.14257189 9.33618231 6.04228157 12.65975606 6 16 C2.37 16 -1.26 16 -5 16 C-5 15.67 -5 15.34 -5 15 C-3.865625 14.87625 -2.73125 14.7525 -1.5625 14.625 C-0.386875 14.41875 0.78875 14.2125 2 14 C3.39935013 11.20129973 3.25265405 9.09501208 3 6 C1.56249809 4.31201173 1.56249809 4.31201173 0 3 C0 2.01 0 1.02 0 0 Z " fill="#382216" transform="translate(202,66)"/>
<path d="M0 0 C1.65 0 3.3 0 5 0 C5 0.66 5 1.32 5 2 C3.68 2.33 2.36 2.66 1 3 C0.67 9.27 0.34 15.54 0 22 C-1.65 22 -3.3 22 -5 22 C-5.33 21.01 -5.66 20.02 -6 19 C-4.68 18.67 -3.36 18.34 -2 18 C-1.93941406 16.86820313 -1.87882813 15.73640625 -1.81640625 14.5703125 C-1.73200083 13.08852855 -1.64735283 11.6067584 -1.5625 10.125 C-1.50352539 9.00544922 -1.50352539 9.00544922 -1.44335938 7.86328125 C-1.11328125 2.2265625 -1.11328125 2.2265625 0 0 Z " fill="#AA804E" transform="translate(183,80)"/>
<path d="M0 0 C2.31 0 4.62 0 7 0 C7.042721 1.66611905 7.04063832 3.33382885 7 5 C6 6 6 6 3.4375 6.0625 C2.2309375 6.0315625 2.2309375 6.0315625 1 6 C0.67 7.32 0.34 8.64 0 10 C0 6.7 0 3.4 0 0 Z " fill="#777777" transform="translate(147,130)"/>
<path d="M0 0 C1.32 0 2.64 0 4 0 C5.0257259 4.41062136 5.03684712 6.92630576 3 11 C2.01 11 1.02 11 0 11 C0 7.37 0 3.74 0 0 Z " fill="#C9C7C8" transform="translate(156,108)"/>
<path d="M0 0 C0.33 0 0.66 0 1 0 C1.33 1.65 1.66 3.3 2 5 C4.31 5.66 6.62 6.32 9 7 C8.67 8.32 8.34 9.64 8 11 C6.35 10.67 4.7 10.34 3 10 C3 9.34 3 8.68 3 8 C2.01 8 1.02 8 0 8 C-0.33 8.66 -0.66 9.32 -1 10 C-0.67 6.7 -0.34 3.4 0 0 Z " fill="#E6E6E5" transform="translate(54,208)"/>
<path d="M0 0 C1.98 0 3.96 0 6 0 C6 2.64 6 5.28 6 8 C4.02 8 2.04 8 0 8 C0.185625 7.236875 0.37125 6.47375 0.5625 5.6875 C1.22819173 2.91032625 1.22819173 2.91032625 0 0 Z " fill="#D4D3D4" transform="translate(168,111)"/>
<path d="M0 0 C0.66 0.33 1.32 0.66 2 1 C2 1.99 2 2.98 2 4 C3.98 3.67 5.96 3.34 8 3 C8 3.66 8 4.32 8 5 C6.576875 5.2784375 6.576875 5.2784375 5.125 5.5625 C1.61628301 6.73400805 1.61628301 6.73400805 0.625 10.625 C0.41875 11.73875 0.2125 12.8525 0 14 C-0.33 14 -0.66 14 -1 14 C-1.02685938 11.85423363 -1.04633088 9.70837355 -1.0625 7.5625 C-1.07410156 6.36753906 -1.08570313 5.17257813 -1.09765625 3.94140625 C-1 1 -1 1 0 0 Z " fill="#EEEEEC" transform="translate(141,209)"/>
<path d="M0 0 C2.8992226 0.46761655 3.86675182 0.86675182 6 3 C5.34 3 4.68 3 4 3 C4 4.98 4 6.96 4 9 C3.773125 8.360625 3.54625 7.72125 3.3125 7.0625 C2.16086307 4.74346259 2.16086307 4.74346259 -0.5 4.3125 C-1.325 4.209375 -2.15 4.10625 -3 4 C-3.66 3.67 -4.32 3.34 -5 3 C-6.99960012 2.960008 -9.00047242 2.95653201 -11 3 C-11 2.67 -11 2.34 -11 2 C-3.25 1 -3.25 1 -1 1 C-0.67 0.67 -0.34 0.34 0 0 Z " fill="#D1D0CE" transform="translate(69,203)"/>
<path d="M0 0 C4 2 4 2 6 5 C6.33 3.35 6.66 1.7 7 0 C7.33 0 7.66 0 8 0 C8 3.3 8 6.6 8 10 C6.35 8.35 4.7 6.7 3 5 C2.67 6.65 2.34 8.3 2 10 C1.34 10 0.68 10 0 10 C0 6.7 0 3.4 0 0 Z " fill="#525252" transform="translate(127,130)"/>
<path d="M0 0 C0.33 0 0.66 0 1 0 C1 10.23 1 20.46 1 31 C0.01 31 -0.98 31 -2 31 C-2 29.02 -2 27.04 -2 25 C-1.67 25 -1.34 25 -1 25 C-0.67 16.75 -0.34 8.5 0 0 Z " fill="#10100B" transform="translate(161,160)"/>
<path d="M0 0 C0.33 0 0.66 0 1 0 C1 2.64 1 5.28 1 8 C0.34 8 -0.32 8 -1 8 C-1.33 8.66 -1.66 9.32 -2 10 C-5 10 -5 10 -8 8 C-7.34 8 -6.68 8 -6 8 C-6 6.68 -6 5.36 -6 4 C-4.35 3.67 -2.7 3.34 -1 3 C-0.67 2.01 -0.34 1.02 0 0 Z " fill="#F6F6F6" transform="translate(154,132)"/>
<path d="M0 0 C2.33294775 -0.04241723 4.66702567 -0.04092937 7 0 C8.66342837 1.66342837 8.36048097 3.7825709 8.5625 6.0625 C8.64628906 6.98160156 8.73007813 7.90070313 8.81640625 8.84765625 C8.87699219 9.55792969 8.93757812 10.26820313 9 11 C8.01 11 7.02 11 6 11 C4.875 4.25 4.875 4.25 6 2 C3.69 2.33 1.38 2.66 -1 3 C-0.67 2.01 -0.34 1.02 0 0 Z " fill="#2D2C2A" transform="translate(185,210)"/>
<path d="M0 0 C0.33 0 0.66 0 1 0 C1.02505615 0.56509277 1.0501123 1.13018555 1.07592773 1.71240234 C1.19179956 4.26683742 1.31456537 6.8208955 1.4375 9.375 C1.47681641 10.26445313 1.51613281 11.15390625 1.55664062 12.0703125 C1.59853516 12.92109375 1.64042969 13.771875 1.68359375 14.6484375 C1.72025146 15.43395996 1.75690918 16.21948242 1.79467773 17.02880859 C1.890891 19.07523496 1.890891 19.07523496 3 21 C2.34 21 1.68 21 1 21 C0.67 22.32 0.34 23.64 0 25 C-0.66 25 -1.32 25 -2 25 C-3.125 20.25 -3.125 20.25 -2 18 C-1.34 18 -0.68 18 0 18 C0 12.06 0 6.12 0 0 Z " fill="#442F22" transform="translate(187,82)"/>
<path d="M0 0 C4.875 0.875 4.875 0.875 6 2 C6.125 5 6.125 5 6 8 C5 9 5 9 1.9375 9.0625 C0.968125 9.041875 -0.00125 9.02125 -1 9 C-1.66 7.35 -2.32 5.7 -3 4 C-2.34 3.34 -1.68 2.68 -1 2 C-1 3.65 -1 5.3 -1 7 C-0.34 7 0.32 7 1 7 C1 6.34 1 5.68 1 5 C1.66 5 2.32 5 3 5 C3 4.01 3 3.02 3 2 C2.01 1.34 1.02 0.68 0 0 Z " fill="#DBDBDB" transform="translate(218,43)"/>
<path d="M0 0 C0.33 0 0.66 0 1 0 C1 1.65 1 3.3 1 5 C1.66 5 2.32 5 3 5 C3 5.66 3 6.32 3 7 C-0.3 7 -3.6 7 -7 7 C-7.38218767 5.34385343 -7.71395102 3.67542976 -8 2 C-7 1 -7 1 -4.4375 0.9375 C-3.2309375 0.9684375 -3.2309375 0.9684375 -2 1 C-2.99 1.33 -3.98 1.66 -5 2 C-5 2.99 -5 3.98 -5 5 C-3.68 4.67 -2.36 4.34 -1 4 C-0.67 2.68 -0.34 1.36 0 0 Z " fill="#2D2C2A" transform="translate(150,214)"/>
<path d="M0 0 C0.66 0.33 1.32 0.66 2 1 C2 4.3 2 7.6 2 11 C1.34 9.68 0.68 8.36 0 7 C-3.04199472 5.70768358 -3.04199472 5.70768358 -6 5 C-6 4.34 -6 3.68 -6 3 C-3.03 3.495 -3.03 3.495 0 4 C0 2.68 0 1.36 0 0 Z M1 12 C0.34 12.66 -0.32 13.32 -1 14 C-3.625 13.625 -3.625 13.625 -6 13 C-6 12.67 -6 12.34 -6 12 C-1.25 10.875 -1.25 10.875 1 12 Z " fill="#E8E7E5" transform="translate(276,209)"/>
<path d="M0 0 C1.32 0 2.64 0 4 0 C4.3682455 7.48765844 4.3682455 7.48765844 2.5625 10 C1 11 1 11 0 11 C0 7.37 0 3.74 0 0 Z " fill="#F7F7F5" transform="translate(224,212)"/>
<path d="M0 0 C0.66 0 1.32 0 2 0 C2 3.63 2 7.26 2 11 C1.01 11.495 1.01 11.495 0 12 C-1.625 9.875 -1.625 9.875 -3 7 C-1.8 1.8 -1.8 1.8 0 0 Z " fill="#F1F0EE" transform="translate(82,208)"/>
<path d="M0 0 C1.65 0 3.3 0 5 0 C4.67 0.66 4.34 1.32 4 2 C3.34 2 2.68 2 2 2 C1.67 10.91 1.34 19.82 1 29 C0.67 29 0.34 29 0 29 C0 19.43 0 9.86 0 0 Z " fill="#151514" transform="translate(159,155)"/>
<path d="M0 0 C2.31 0 4.62 0 7 0 C7 2.64 7 5.28 7 8 C6.34 8 5.68 8 5 8 C5 6.02 5 4.04 5 2 C4.01 2 3.02 2 2 2 C2 3.98 2 5.96 2 8 C1.34 8 0.68 8 0 8 C0 5.36 0 2.72 0 0 Z " fill="#EDECEB" transform="translate(176,111)"/>
<path d="M0 0 C0.33 0 0.66 0 1 0 C1 5.94 1 11.88 1 18 C-0.65 17.67 -2.3 17.34 -4 17 C-4 15.68 -4 14.36 -4 13 C-3.67 13.66 -3.34 14.32 -3 15 C-2.34 15 -1.68 15 -1 15 C-0.67 10.05 -0.34 5.1 0 0 Z " fill="#AB7B4D" transform="translate(193,85)"/>
<path d="M0 0 C0.99 0 1.98 0 3 0 C3 2.97 3 5.94 3 9 C1.68 9.33 0.36 9.66 -1 10 C-1.02689216 8.52093108 -1.04634621 7.04172517 -1.0625 5.5625 C-1.07410156 4.73878906 -1.08570312 3.91507813 -1.09765625 3.06640625 C-1 1 -1 1 0 0 Z " fill="#EFEEEC" transform="translate(104,212)"/>
<path d="M0 0 C1.32 0.33 2.64 0.66 4 1 C3.67 4.3 3.34 7.6 3 11 C2.01 11 1.02 11 0 11 C0 7.37 0 3.74 0 0 Z " fill="#52514F" transform="translate(100,210)"/>
<path d="M0 0 C0.99 0 1.98 0 3 0 C3 3.96 3 7.92 3 12 C2.01 11.67 1.02 11.34 0 11 C0 7.37 0 3.74 0 0 Z " fill="#3C3B3A" transform="translate(206,206)"/>
<path d="M0 0 C2.05078125 0.03255208 4.1015625 0.06510417 6.15234375 0.09765625 C6.48234375 1.41765625 6.81234375 2.73765625 7.15234375 4.09765625 C4.84234375 3.76765625 2.53234375 3.43765625 0.15234375 3.09765625 C0.48234375 4.41765625 0.81234375 5.73765625 1.15234375 7.09765625 C-0.16765625 6.76765625 -1.48765625 6.43765625 -2.84765625 6.09765625 C-2.89037725 4.4315372 -2.88829457 2.7638274 -2.84765625 1.09765625 C-1.84765625 0.09765625 -1.84765625 0.09765625 0 0 Z " fill="#292925" transform="translate(57.84765625,205.90234375)"/>
<path d="M0 0 C2.31 0 4.62 0 7 0 C6.34 0.66 5.68 1.32 5 2 C5.99 2.99 6.98 3.98 8 5 C5.64561267 6.42944945 4.51967567 7.08661261 1.75 6.625 C1.1725 6.41875 0.595 6.2125 0 6 C0 4.02 0 2.04 0 0 Z " fill="#FDFCFC" transform="translate(76,203)"/>
<path d="M0 0 C0.99 0 1.98 0 3 0 C3 3.96 3 7.92 3 12 C2.01 11.67 1.02 11.34 0 11 C0 7.37 0 3.74 0 0 Z " fill="#575757" transform="translate(155,129)"/>
<path d="M0 0 C2.475 0.495 2.475 0.495 5 1 C5 2.98 5 4.96 5 7 C3.35 7 1.7 7 0 7 C0 4.69 0 2.38 0 0 Z " fill="#F6F6F6" transform="translate(179,131)"/>
<path d="M0 0 C6.6 0 13.2 0 20 0 C20 0.33 20 0.66 20 1 C18.19402344 1.09087891 18.19402344 1.09087891 16.3515625 1.18359375 C14.77602923 1.26799732 13.20050904 1.35264541 11.625 1.4375 C10.8309375 1.47681641 10.036875 1.51613281 9.21875 1.55664062 C4.97398779 1.68893404 4.97398779 1.68893404 1 3 C0.34227572 6.02934491 0.34227572 6.02934491 0 9 C-1.125 7.3125 -1.125 7.3125 -2 5 C-1.34 3.35 -0.68 1.7 0 0 Z " fill="#26180A" transform="translate(156,67)"/>
<path d="M0 0 C0.66 1.32 1.32 2.64 2 4 C5.54588501 5.29920746 5.54588501 5.29920746 9 6 C8.67 6.66 8.34 7.32 8 8 C6.35 8 4.7 8 3 8 C2.67 9.32 2.34 10.64 2 12 C1.34 12 0.68 12 0 12 C0 8.04 0 4.08 0 0 Z " fill="#272625" transform="translate(172,213)"/>
<path d="M0 0 C0.99 0 1.98 0 3 0 C3 3.63 3 7.26 3 11 C2.01 11 1.02 11 0 11 C0 7.37 0 3.74 0 0 Z " fill="#50504E" transform="translate(233,210)"/>
<path d="M0 0 C0.99 0 1.98 0 3 0 C3 3.63 3 7.26 3 11 C2.01 11 1.02 11 0 11 C0 7.37 0 3.74 0 0 Z " fill="#42413F" transform="translate(166,210)"/>
<path d="M0 0 C0.66 0.33 1.32 0.66 2 1 C2.3125 3.25 2.3125 3.25 2 6 C-0.25 8.375 -0.25 8.375 -3 10 C-5.3125 9.75 -5.3125 9.75 -7 9 C-5.71034824 7.62437146 -4.37310707 6.29233607 -3 5 C-2.34 5 -1.68 5 -1 5 C-0.67 3.35 -0.34 1.7 0 0 Z " fill="#1D1D1B" transform="translate(143,181)"/>
<path d="M0 0 C0.99 0 1.98 0 3 0 C3 3.63 3 7.26 3 11 C2.01 11 1.02 11 0 11 C0 7.37 0 3.74 0 0 Z " fill="#EAE7E8" transform="translate(205,108)"/>
<path d="M0 0 C0.33 0 0.66 0 1 0 C1 5.94 1 11.88 1 18 C-0.98 18.33 -2.96 18.66 -5 19 C-5.33 18.01 -5.66 17.02 -6 16 C-4.02 16 -2.04 16 0 16 C0 10.72 0 5.44 0 0 Z " fill="#341B08" transform="translate(194,87)"/>
<path d="M0 0 C2.0625 0.4375 2.0625 0.4375 4 1 C4 2.98 4 4.96 4 7 C2.35 6.67 0.7 6.34 -1 6 C-1.042721 4.33388095 -1.04063832 2.66617115 -1 1 C-0.67 0.67 -0.34 0.34 0 0 Z " fill="#F5F4F2" transform="translate(175,212)"/>
<path d="M0 0 C0.99 0.33 1.98 0.66 3 1 C2.34 2.32 1.68 3.64 1 5 C1.495 5.61875 1.99 6.2375 2.5 6.875 C4 9 4 9 4 11 C2.68 10.67 1.36 10.34 0 10 C-0.103125 9.360625 -0.20625 8.72125 -0.3125 8.0625 C-0.539375 7.381875 -0.76625 6.70125 -1 6 C-1.99 5.67 -2.98 5.34 -4 5 C-2.68 3.35 -1.36 1.7 0 0 Z " fill="#31302E" transform="translate(90,210)"/>
<path d="M0 0 C1.74627478 2.61941217 2.38722388 4.03824877 3 7 C3.66 6.34 4.32 5.68 5 5 C6 8 6 8 5.0625 10.1875 C4.5365625 11.0846875 4.5365625 11.0846875 4 12 C3.34 12 2.68 12 2 12 C1.47026689 10.37787941 0.95146893 8.75218416 0.4375 7.125 C0.14746094 6.22007812 -0.14257812 5.31515625 -0.44140625 4.3828125 C-1 2 -1 2 0 0 Z " fill="#333230" transform="translate(129,209)"/>
<path d="M0 0 C0.66 0 1.32 0 2 0 C3.20272819 2.40545638 3.10071472 3.94996953 3.0625 6.625 C3.05347656 7.44226563 3.04445312 8.25953125 3.03515625 9.1015625 C3.02355469 9.72804687 3.01195312 10.35453125 3 11 C2.01 11 1.02 11 0 11 C0 7.37 0 3.74 0 0 Z " fill="#41403F" transform="translate(154,210)"/>
<path d="M0 0 C0.99 0.33 1.98 0.66 3 1 C3.33 1.99 3.66 2.98 4 4 C2.35 5.65 0.7 7.3 -1 9 C-1.33 6.36 -1.66 3.72 -2 1 C-1.34 0.67 -0.68 0.34 0 0 Z " fill="#C27E41" transform="translate(176,48)"/>
<path d="M0 0 C0.99 0.33 1.98 0.66 3 1 C2.608125 1.53625 2.21625 2.0725 1.8125 2.625 C0.64661496 5.17119399 0.64661496 5.17119399 2.375 8.25 C2.91125 9.1575 3.4475 10.065 4 11 C2.1875 10.8125 2.1875 10.8125 0 10 C-1.75 7.4375 -1.75 7.4375 -3 5 C-2.34 5 -1.68 5 -1 5 C-1.33 4.01 -1.66 3.02 -2 2 C-1.34 1.34 -0.68 0.68 0 0 Z " fill="#383736" transform="translate(79,210)"/>
<path d="M0 0 C1.98 0 3.96 0 6 0 C6 0.66 6 1.32 6 2 C5.01 2.33 4.02 2.66 3 3 C2.67 5.64 2.34 8.28 2 11 C1.34 11 0.68 11 0 11 C0 7.37 0 3.74 0 0 Z " fill="#20201F" transform="translate(261,210)"/>
<path d="M0 0 C2.31 0 4.62 0 7 0 C7 0.33 7 0.66 7 1 C5.35 1 3.7 1 2 1 C2 1.99 2 2.98 2 4 C3.65 4 5.3 4 7 4 C7 4.33 7 4.66 7 5 C5.35 5 3.7 5 2 5 C2 6.65 2 8.3 2 10 C1.34 10 0.68 10 0 10 C0 6.7 0 3.4 0 0 Z " fill="#555555" transform="translate(225,130)"/>
<path d="M0 0 C0.99 0 1.98 0 3 0 C3.368 5.52 3.368 5.52 1.5625 7.875 C0 9 0 9 -1 9 C-1.09765625 2.84765625 -1.09765625 2.84765625 -1 1 C-0.67 0.67 -0.34 0.34 0 0 Z " fill="#F8F7F5" transform="translate(158,212)"/>
<path d="M0 0 C2.7972908 2.06756277 3.02692273 3.14440371 3.6875 6.6875 C3.790625 7.780625 3.89375 8.87375 4 10 C1 9 1 9 -0.25 6.6875 C-1.0275526 3.90126985 -0.98726527 2.66561622 0 0 Z " fill="#222120" transform="translate(170,172)"/>
<path d="M0 0 C0.33 0 0.66 0 1 0 C1.33 7.26 1.66 14.52 2 22 C1.01 21.67 0.02 21.34 -1 21 C-0.67 14.07 -0.34 7.14 0 0 Z " fill="#1E1F1B" transform="translate(236,159)"/>
<path d="M0 0 C1.98 0 3.96 0 6 0 C6.33 0.66 6.66 1.32 7 2 C5.35 2 3.7 2 2 2 C2.66 3.65 3.32 5.3 4 7 C3.01 7 2.02 7 1 7 C0.67 7.99 0.34 8.98 0 10 C0 6.7 0 3.4 0 0 Z " fill="#EFEFF0" transform="translate(189,111)"/>
<path d="M0 0 C1.98 0.66 3.96 1.32 6 2 C6 2.33 6 2.66 6 3 C4.35 3.33 2.7 3.66 1 4 C0.67 5.65 0.34 7.3 0 9 C-0.33 9 -0.66 9 -1 9 C-1.33 7.35 -1.66 5.7 -2 4 C-4.31 3.67 -6.62 3.34 -9 3 C-9 2.67 -9 2.34 -9 2 C-6.94921875 1.77213542 -4.8984375 1.54427083 -2.84765625 1.31640625 C-0.98859771 1.18113386 -0.98859771 1.18113386 0 0 Z " fill="#454444" transform="translate(197,108)"/>
<path d="M0 0 C1.32 0.33 2.64 0.66 4 1 C3.34 2.98 2.68 4.96 2 7 C1.34 7 0.68 7 0 7 C-0.33 8.65 -0.66 10.3 -1 12 C-1.33 12 -1.66 12 -2 12 C-2 9.36 -2 6.72 -2 4 C-0.68 3.67 0.64 3.34 2 3 C2 2.34 2 1.68 2 1 C1.34 0.67 0.68 0.34 0 0 Z " fill="#DEDEDC" transform="translate(265,209)"/>
<path d="M0 0 C1.32 0 2.64 0 4 0 C4 2.97 4 5.94 4 9 C3.67 9 3.34 9 3 9 C2.67 7.35 2.34 5.7 2 4 C1.67 4 1.34 4 1 4 C0.67 5.65 0.34 7.3 0 9 C-0.33 9 -0.66 9 -1 9 C-1.09765625 2.84765625 -1.09765625 2.84765625 -1 1 C-0.67 0.67 -0.34 0.34 0 0 Z " fill="#C4C3C1" transform="translate(110,212)"/>
<path d="M0 0 C0 0.66 0 1.32 0 2 C-0.99 2 -1.98 2 -3 2 C-3 5.96 -3 9.92 -3 14 C-3.66 13.34 -4.32 12.68 -5 12 C-4.9765625 9.6171875 -4.9765625 9.6171875 -4.625 6.875 C-4.51414063 5.96492187 -4.40328125 5.05484375 -4.2890625 4.1171875 C-4.19367188 3.41851562 -4.09828125 2.71984375 -4 2 C-5.32 1.67 -6.64 1.34 -8 1 C-4.93251126 -0.86240388 -3.40254489 -1.2151946 0 0 Z " fill="#EFEDEA" transform="translate(219,204)"/>
<path d="M0 0 C2.475 0.99 2.475 0.99 5 2 C5 2.99 5 3.98 5 5 C3.02 5 1.04 5 -1 5 C-1 1 -1 1 0 0 Z " fill="#81817F" transform="translate(251,210)"/>
<path d="M0 0 C2.64 0.33 5.28 0.66 8 1 C8 1.66 8 2.32 8 3 C6.3125 4.125 6.3125 4.125 4 5 C1.25 4.125 1.25 4.125 -1 3 C-0.67 2.01 -0.34 1.02 0 0 Z " fill="#D9D9D7" transform="translate(58,208)"/>
<path d="M0 0 C3.96 0 7.92 0 12 0 C12 0.66 12 1.32 12 2 C6.06 2.495 6.06 2.495 0 3 C0 2.01 0 1.02 0 0 Z " fill="#181916" transform="translate(124,154)"/>
<path d="M0 0 C0.391875 0.495 0.78375 0.99 1.1875 1.5 C3.55091715 3.45593143 5.01435003 3.24207973 8 3 C8 3.99 8 4.98 8 6 C6.68 5.34 5.36 4.68 4 4 C3.34 5.32 2.68 6.64 2 8 C1.34 8 0.68 8 0 8 C0 5.36 0 2.72 0 0 Z " fill="#C2C1C0" transform="translate(86,206)"/>
<path d="M0 0 C0.99 0.99 1.98 1.98 3 3 C2.01 5.31 1.02 7.62 0 10 C-0.66 9.67 -1.32 9.34 -2 9 C-1.125 2.25 -1.125 2.25 0 0 Z " fill="#252523" transform="translate(180,178)"/>
<path d="M0 0 C1.98 0.495 1.98 0.495 4 1 C4 3.31 4 5.62 4 8 C3.34 7.01 2.68 6.02 2 5 C1.67 6.65 1.34 8.3 1 10 C0.34 9.34 -0.32 8.68 -1 8 C-0.96712417 5.27130593 -0.43602229 2.7033382 0 0 Z " fill="#373736" transform="translate(142,177)"/>
<path d="M0 0 C0.33 0 0.66 0 1 0 C1 3.63 1 7.26 1 11 C1.99 11.33 2.98 11.66 4 12 C1.64561267 13.42944945 0.51967567 14.08661261 -2.25 13.625 C-2.8275 13.41875 -3.405 13.2125 -4 13 C-2.68 12.34 -1.36 11.68 0 11 C-0.185625 9.741875 -0.37125 8.48375 -0.5625 7.1875 C-1.00732761 4.17255732 -0.99843846 2.99531539 0 0 Z " fill="#2E2C2E" transform="translate(204,108)"/>
<path d="M0 0 C0.99 0 1.98 0 3 0 C3 2.31 3 4.62 3 7 C1.35 7.33 -0.3 7.66 -2 8 C-1.34 5.36 -0.68 2.72 0 0 Z " fill="#363435" transform="translate(178,113)"/>
<path d="M0 0 C5.94 0.99 5.94 0.99 12 2 C11.67 2.66 11.34 3.32 11 4 C7.7 4 4.4 4 1 4 C0.67 2.68 0.34 1.36 0 0 Z " fill="#291B0C" transform="translate(177,64)"/>
<path d="M0 0 C0.33 0 0.66 0 1 0 C1 3.3 1 6.6 1 10 C0.67 10 0.34 10 0 10 C0 8.02 0 6.04 0 4 C-1.98 4 -3.96 4 -6 4 C-6 3.01 -6 2.02 -6 1 C-4.35 1 -2.7 1 -1 1 C-0.67 1.66 -0.34 2.32 0 3 C0 2.01 0 1.02 0 0 Z " fill="#D8D8D8" transform="translate(233,130)"/>
<path d="M0 0 C1.32 0.33 2.64 0.66 4 1 C4 2.65 4 4.3 4 6 C2.68 6 1.36 6 0 6 C-0.66 6.66 -1.32 7.32 -2 8 C-2 4.79604584 -1.25664978 2.90600261 0 0 Z " fill="#EEEEEE" transform="translate(200,134)"/>
<path d="M0 0 C0.268125 0.61875 0.53625 1.2375 0.8125 1.875 C1.95556848 4.2995233 1.95556848 4.2995233 5 6 C4.34 6 3.68 6 3 6 C3 6.66 3 7.32 3 8 C1.35 8 -0.3 8 -2 8 C-2.33 7.34 -2.66 6.68 -3 6 C-2.34 6 -1.68 6 -1 6 C-0.67 4.02 -0.34 2.04 0 0 Z " fill="#402B1E" transform="translate(176,97)"/>
<path d="M0 0 C6.625 -0.25 6.625 -0.25 10 2 C9.67 3.65 9.34 5.3 9 7 C8.34 6.67 7.68 6.34 7 6 C7.33 5.01 7.66 4.02 8 3 C6.865625 2.87625 5.73125 2.7525 4.5625 2.625 C3.386875 2.41875 2.21125 2.2125 1 2 C0.67 1.34 0.34 0.68 0 0 Z " fill="#434341" transform="translate(55,212)"/>
<path d="M0 0 C0.99 0.33 1.98 0.66 3 1 C2.01 3.64 1.02 6.28 0 9 C-0.99 9 -1.98 9 -3 9 C-2.01 6.03 -1.02 3.06 0 0 Z " fill="#3A3A38" transform="translate(245,210)"/>
<path d="M0 0 C1.98 0 3.96 0 6 0 C6.33 0.99 6.66 1.98 7 3 C4.03 2.505 4.03 2.505 1 2 C1.33 2.99 1.66 3.98 2 5 C1.01 5 0.02 5 -1 5 C-0.67 3.35 -0.34 1.7 0 0 Z " fill="#242422" transform="translate(269,210)"/>
<path d="M0 0 C0.99 0.33 1.98 0.66 3 1 C2.67 2.98 2.34 4.96 2 7 C1.01 7 0.02 7 -1 7 C-0.67 4.69 -0.34 2.38 0 0 Z " fill="#2F2F2D" transform="translate(182,172)"/>
<path d="M0 0 C1.98 0.495 1.98 0.495 4 1 C4 2.65 4 4.3 4 6 C3.01 6.33 2.02 6.66 1 7 C-0.0625 4.625 -0.0625 4.625 -1 2 C-0.67 1.34 -0.34 0.68 0 0 Z " fill="#C67B4C" transform="translate(182,55)"/>
<path d="M0 0 C0.66 0 1.32 0 2 0 C3.0625 1.8125 3.0625 1.8125 4 4 C3.67 4.99 3.34 5.98 3 7 C1.68 7 0.36 7 -1 7 C-0.67 4.69 -0.34 2.38 0 0 Z " fill="#3D3C3A" transform="translate(176,185)"/>
<path d="M0 0 C0.33 0 0.66 0 1 0 C1.33 2.64 1.66 5.28 2 8 C3.98 8.66 5.96 9.32 8 10 C8 10.33 8 10.66 8 11 C2.25 12.125 2.25 12.125 0 11 C0 7.37 0 3.74 0 0 Z " fill="#C4C4C4" transform="translate(135,130)"/>
<path d="M0 0 C2.31 0 4.62 0 7 0 C6.67 1.32 6.34 2.64 6 4 C4.35 4.33 2.7 4.66 1 5 C0.67 3.35 0.34 1.7 0 0 Z " fill="#DFDFDF" transform="translate(234,129)"/>
<path d="M0 0 C0.66 0 1.32 0 2 0 C1.95875 0.86625 1.9175 1.7325 1.875 2.625 C2.00457721 6.12358468 2.76019656 8.74551597 4 12 C3.01 12 2.02 12 1 12 C0.03929566 9.11788698 -0.10581883 7.30149956 -0.0625 4.3125 C-0.05347656 3.50425781 -0.04445312 2.69601563 -0.03515625 1.86328125 C-0.02355469 1.24839844 -0.01195312 0.63351563 0 0 Z " fill="#41270F" transform="translate(171,48)"/>
<path d="M0 0 C1.32 0 2.64 0 4 0 C4 1.98 4 3.96 4 6 C2.68 5.67 1.36 5.34 0 5 C0 3.35 0 1.7 0 0 Z " fill="#373735" transform="translate(117,179)"/>
<path d="M0 0 C2.0625 0.4375 2.0625 0.4375 4 1 C3.67 2.65 3.34 4.3 3 6 C1.68 6.33 0.36 6.66 -1 7 C-1.04254356 5.00045254 -1.04080783 2.99958364 -1 1 C-0.67 0.67 -0.34 0.34 0 0 Z " fill="#B2B0B0" transform="translate(198,111)"/>
<path d="M0 0 C3 3 3 3 3.3125 6.0625 C3 9 3 9 1 11 C0.67 7.37 0.34 3.74 0 0 Z " fill="#A57C52" transform="translate(203,69)"/>
<path d="M0 0 C2.97 0.495 2.97 0.495 6 1 C6 1.99 6 2.98 6 4 C3.69 4 1.38 4 -1 4 C-0.67 2.68 -0.34 1.36 0 0 Z " fill="#D0CFCD" transform="translate(268,215)"/>
<path d="M0 0 C2.7839183 1.39195915 2.97898997 3.15575779 4 6 C2.68 6 1.36 6 0 6 C-0.38218767 4.34385343 -0.71395102 2.67542976 -1 1 C-0.67 0.67 -0.34 0.34 0 0 Z " fill="#F7F7F5" transform="translate(265,215)"/>
<path d="M0 0 C1.65 1.32 3.3 2.64 5 4 C3.625 6 3.625 6 2 8 C1.34 8 0.68 8 0 8 C0 5.36 0 2.72 0 0 Z " fill="#C6C5C3" transform="translate(75,206)"/>
<path d="M0 0 C3.3 0.33 6.6 0.66 10 1 C10 1.33 10 1.66 10 2 C8.02 2 6.04 2 4 2 C4 2.66 4 3.32 4 4 C2.35 3.67 0.7 3.34 -1 3 C-0.67 2.01 -0.34 1.02 0 0 Z " fill="#333331" transform="translate(217,188)"/>
<path d="M0 0 C0.33 0 0.66 0 1 0 C1 2.97 1 5.94 1 9 C0.01 9.495 0.01 9.495 -1 10 C-2.23076923 4.58461538 -2.23076923 4.58461538 -1.0625 1.625 C-0.5365625 0.820625 -0.5365625 0.820625 0 0 Z " fill="#E4E4E4" transform="translate(168,130)"/>
<path d="M0 0 C0.33 1.65 0.66 3.3 1 5 C0.34 5 -0.32 5 -1 5 C-1 4.34 -1 3.68 -1 3 C-1.66 3 -2.32 3 -3 3 C-3 3.66 -3 4.32 -3 5 C-3.66 5 -4.32 5 -5 5 C-5 3.68 -5 2.36 -5 1 C-3 0 -3 0 0 0 Z " fill="#757575" transform="translate(222,45)"/>
<path d="M0 0 C3 3.625 3 3.625 3 7 C1.68 6.67 0.36 6.34 -1 6 C-1 3 -1 3 0 0 Z " fill="#E2E2E0" transform="translate(238,214)"/>
<path d="M0 0 C5.75 -0.125 5.75 -0.125 8 1 C7.67 1.66 7.34 2.32 7 3 C5.02 3 3.04 3 1 3 C0.67 2.01 0.34 1.02 0 0 Z " fill="#D7D7D5" transform="translate(251,216)"/>
<path d="M0 0 C-0.33 0.66 -0.66 1.32 -1 2 C-3.64 2 -6.28 2 -9 2 C-9 1.34 -9 0.68 -9 0 C-3.375 -1.125 -3.375 -1.125 0 0 Z " fill="#191917" transform="translate(230,190)"/>
<path d="M0 0 C1.98 0 3.96 0 6 0 C6.33 1.65 6.66 3.3 7 5 C5.35 5 3.7 5 2 5 C2 4.34 2 3.68 2 3 C2.66 2.67 3.32 2.34 4 2 C2.68 1.34 1.36 0.68 0 0 Z " fill="#363636" transform="translate(159,154)"/>
<path d="M0 0 C4.75 -0.125 4.75 -0.125 7 1 C6.67 1.99 6.34 2.98 6 4 C3.03 3.505 3.03 3.505 0 3 C0 2.01 0 1.02 0 0 Z " fill="#EBEBEB" transform="translate(170,131)"/>
<path d="M0 0 C0.99 0.66 1.98 1.32 3 2 C2.1875 3.9375 2.1875 3.9375 1 6 C0.01 6.33 -0.98 6.66 -2 7 C-1.34 4.69 -0.68 2.38 0 0 Z " fill="#E6E6E4" transform="translate(185,174)"/>
<path d="M0 0 C0.33 0 0.66 0 1 0 C1 2.31 1 4.62 1 7 C1.99 7 2.98 7 4 7 C4.33 7.99 4.66 8.98 5 10 C4.01 10 3.02 10 2 10 C0 8 0 8 -0.1953125 6.0546875 C-0.13020833 4.03645833 -0.06510417 2.01822917 0 0 Z " fill="#555553" transform="translate(118,160)"/>
<path d="M0 0 C2.475 0.495 2.475 0.495 5 1 C4.67 1.99 4.34 2.98 4 4 C2.68 4 1.36 4 0 4 C0 2.68 0 1.36 0 0 Z " fill="#DCDCDC" transform="translate(193,135)"/>
<path d="M0 0 C1.32 0 2.64 0 4 0 C4.33 1.32 4.66 2.64 5 4 C3.02 4.33 1.04 4.66 -1 5 C-0.67 3.35 -0.34 1.7 0 0 Z " fill="#BBBBBB" transform="translate(140,129)"/>
<path d="M0 0 C-2 2 -4 4 -6 6 C-6.33 4.35 -6.66 2.7 -7 1 C-4.53721199 -0.231394 -2.7204945 -0.07159196 0 0 Z " fill="#C6802C" transform="translate(187,78)"/>
<path d="M0 0 C2.35953094 2.35953094 2.49141413 3.77895617 3 7 C2.34 7 1.68 7 1 7 C0.67 7.99 0.34 8.98 0 10 C0 6.7 0 3.4 0 0 Z " fill="#DFDFDD" transform="translate(127,211)"/>
<path d="M0 0 C2.97 0.495 2.97 0.495 6 1 C5.67 2.32 5.34 3.64 5 5 C4.34 5 3.68 5 3 5 C3 4.34 3 3.68 3 3 C2.34 2.67 1.68 2.34 1 2 C0.67 1.34 0.34 0.68 0 0 Z " fill="#F2F2F0" transform="translate(57,214)"/>
<path d="M0 0 C0.99 0.33 1.98 0.66 3 1 C1.515 4.465 1.515 4.465 0 8 C-0.33 8 -0.66 8 -1 8 C-0.67 5.36 -0.34 2.72 0 0 Z " fill="#2C2C2B" transform="translate(297,210)"/>
<path d="M0 0 C1.98 0 3.96 0 6 0 C6 0.99 6 1.98 6 3 C3.69 3 1.38 3 -1 3 C-0.67 2.01 -0.34 1.02 0 0 Z " fill="#252423" transform="translate(144,210)"/>
<path d="M0 0 C3.465 1.485 3.465 1.485 7 3 C6.34 3.66 5.68 4.32 5 5 C2.375 4.625 2.375 4.625 0 4 C0 2.68 0 1.36 0 0 Z " fill="#181816" transform="translate(122,167)"/>
<path d="M0 0 C0.66 0.33 1.32 0.66 2 1 C2 2.65 2 4.3 2 6 C1.01 6 0.02 6 -1 6 C-1.33 4.35 -1.66 2.7 -2 1 C-1.34 0.67 -0.68 0.34 0 0 Z " fill="#1B1B19" transform="translate(142,159)"/>
<path d="M0 0 C2.97 0.33 5.94 0.66 9 1 C9 1.33 9 1.66 9 2 C4.545 2.495 4.545 2.495 0 3 C0 2.01 0 1.02 0 0 Z " fill="#A97D54" transform="translate(195,79)"/>
<path d="M0 0 C-0.33 0.66 -0.66 1.32 -1 2 C-3.64860427 2.59355614 -6.29197322 2.74209269 -9 3 C-7.01532024 -0.96935951 -3.9567243 -1.41311582 0 0 Z " fill="#271B14" transform="translate(181,44)"/>
</svg>
